<svg width="143" height="118" viewBox="0 0 143 118" fill="none" xmlns="http://www.w3.org/2000/svg">
<rect x="52.161" y="114.256" width="39.1463" height="2.74711" fill="#EFEFEF"/>
<path d="M56.9691 114.599L59.0294 99.8334H84.7836C85.3559 104.755 86.5692 114.599 86.844 114.599H56.9691Z" fill="#D9E0E4"/>
<rect x="0.652802" y="0.250488" width="142.163" height="99.5828" rx="9.63033" fill="#F2F5F5"/>
<rect x="6.83455" y="8.49176" width="129.801" height="70.0514" fill="#EFC461"/>
<mask id="mask0_266_492" style="mask-type:alpha" maskUnits="userSpaceOnUse" x="49" y="20" width="46" height="47">
<path fill-rule="evenodd" clip-rule="evenodd" d="M92.6305 24.2514L80.8333 63.6289C80.7068 63.9885 80.4931 64.3118 80.211 64.5708C80.0394 64.7182 79.8394 64.8294 79.6231 64.8984C79.4067 64.9674 79.1785 64.9925 78.9521 64.9721H64.6515C64.425 64.9938 64.1964 64.9691 63.9799 64.9001C63.7634 64.8311 63.5635 64.7191 63.3925 64.5708C63.1042 64.3101 62.8856 63.9829 62.756 63.6187L50.9732 24.2514C50.9555 24.1901 50.946 24.1268 50.9449 24.063C50.9438 24.0106 50.9546 23.9586 50.9767 23.9109C50.9987 23.8632 51.0314 23.8209 51.0722 23.7874C51.1087 23.7464 51.154 23.7139 51.2047 23.6922C51.2554 23.6704 51.3104 23.6601 51.3657 23.6618H62.0558C62.0806 23.7106 62.1089 23.749 62.1336 23.7978C62.1613 23.8537 62.1724 23.9161 62.1655 23.9779C62.1586 24.0396 62.1341 24.0982 62.0948 24.1467C61.4476 24.8724 58.9934 27.6704 58.0669 28.724C57.9721 28.8306 57.8493 28.9092 57.7119 28.9511C57.5746 28.9929 57.4282 28.9965 57.2889 28.9612C56.9348 28.88 56.5637 28.9105 56.2281 29.0484C56.035 29.1298 55.8602 29.2481 55.7139 29.3966C55.5676 29.5452 55.4527 29.7209 55.3759 29.9137C55.275 30.1611 55.2369 30.4292 55.265 30.6945C55.2932 30.9597 55.3866 31.2142 55.5372 31.4357C55.6879 31.6572 55.8911 31.8391 56.1292 31.9654C56.3673 32.0917 56.6331 32.1586 56.9035 32.1604C56.9488 32.1614 56.9927 32.1763 57.0288 32.2033C57.065 32.2302 57.0917 32.2677 57.105 32.3105L64.2236 55.3605C63.9784 55.4891 63.7632 55.6668 63.5922 55.8823C63.421 56.0979 63.2978 56.3466 63.2304 56.612C63.163 56.8779 63.1529 57.1543 63.2008 57.424C63.2488 57.6936 63.3536 57.9505 63.5086 58.1776C63.6636 58.4046 63.8653 58.5972 64.1005 58.7424C64.3357 58.8877 64.5993 58.9827 64.8741 59.021C65.1489 59.0593 65.4288 59.0402 65.6957 58.9652C65.9625 58.8898 66.2104 58.7599 66.4231 58.5844C66.5766 58.454 66.759 58.3612 66.9556 58.3134C67.1522 58.2653 67.3574 58.2636 67.5547 58.3088L74.8394 59.8994C74.8942 59.9122 74.943 59.9429 74.9778 59.9867C75.0125 60.0306 75.0311 60.0847 75.0303 60.1401C75.0314 60.5311 75.1295 60.9162 75.316 61.2613C75.5025 61.6063 75.7718 61.9011 76.1004 62.1201C76.4289 62.3386 76.8067 62.4749 77.2008 62.5167C77.595 62.5584 77.9934 62.5043 78.3615 62.3591C78.6647 62.247 78.9402 62.0728 79.1701 61.8479C79.3998 61.623 79.5787 61.3525 79.6947 61.0543C79.8744 60.6146 79.9186 60.1324 79.8217 59.6685C79.7248 59.2042 79.4912 58.7786 79.1501 58.4446C79.0577 58.3526 78.9922 58.2372 78.9605 58.1115C78.9287 57.9859 78.9319 57.8538 78.9698 57.7294L88.0225 30.2137H88.0966C88.3744 30.2122 88.647 30.1421 88.8898 30.0099C89.1331 29.8777 89.3384 29.6877 89.4879 29.457C89.6374 29.2263 89.7261 28.9624 89.7452 28.6894C89.7648 28.4163 89.715 28.1427 89.5995 27.8937C89.4453 27.5385 89.1578 27.2559 88.797 27.1052C88.555 26.9975 88.2905 26.9483 88.0255 26.9617C87.7605 26.975 87.5024 27.0505 87.2728 27.182C87.1889 27.2332 87.0922 27.2604 86.9933 27.2604C86.8949 27.2604 86.7982 27.2332 86.7143 27.182L81.6538 24.1607C81.5686 24.1078 81.5043 24.0277 81.4715 23.9338C81.4387 23.8399 81.4394 23.7378 81.4734 23.6444H92.2556C92.3105 23.6429 92.3655 23.6534 92.4162 23.675C92.4669 23.6968 92.5125 23.7291 92.5491 23.7699C92.5891 23.8068 92.6211 23.8516 92.6424 23.9015C92.6641 23.9515 92.6743 24.0053 92.6726 24.0595C92.6705 24.1237 92.6586 24.1872 92.6373 24.2479L92.6305 24.2514ZM63.0813 24.6387C63.3447 24.7562 63.6304 24.8169 63.9194 24.8166C63.9919 24.8181 64.0627 24.8386 64.1246 24.8759C64.1825 24.92 64.2227 24.9831 64.2377 25.0538L67.0455 34.8223C67.0881 34.9511 67.0851 35.0903 67.0369 35.2171C66.9887 35.3439 66.8982 35.4508 66.7803 35.5201C66.6855 35.5805 66.5956 35.6482 66.5115 35.7224C66.397 35.82 66.2538 35.8787 66.1029 35.89C65.9521 35.9013 65.8016 35.8646 65.6734 35.7852L58.4666 31.044C58.5175 30.8896 58.5437 30.7284 58.5443 30.5661C58.5411 30.352 58.4979 30.1402 58.417 29.9416C58.363 29.8164 58.3473 29.6783 58.3718 29.5445C58.3963 29.4106 58.46 29.2866 58.5549 29.188C59.4072 28.2111 61.6173 25.6993 62.4448 24.7852C62.5188 24.6906 62.6235 24.6241 62.7414 24.5968C62.8592 24.5695 62.983 24.583 63.092 24.6352L63.0813 24.6387ZM67.1622 39.9159L64.8353 54.9174C64.8326 54.9272 64.8268 54.9353 64.8188 54.9413C64.8108 54.9473 64.8011 54.9507 64.7911 54.9507C64.7811 54.9507 64.7714 54.9473 64.7635 54.9413C64.7554 54.9353 64.7497 54.9272 64.7469 54.9174L57.7416 32.2407C57.7216 32.1781 57.7218 32.111 57.742 32.0485C57.7623 31.986 57.8017 31.9313 57.8547 31.8918C57.9078 31.8534 57.9467 31.815 57.9962 31.7766C58.0444 31.7351 58.105 31.7102 58.1689 31.7058C58.2327 31.7014 58.2962 31.7177 58.3498 31.7522C59.34 32.4046 63.7143 35.2759 65.2526 36.2876C65.4167 36.3974 65.5512 36.545 65.6442 36.7177C65.7373 36.8904 65.7862 37.0829 65.7866 37.2784C65.7863 37.6269 65.8757 37.9698 66.0464 38.2749C66.2171 38.58 66.4635 38.8373 66.7626 39.0228C66.9118 39.1179 67.029 39.2545 67.0995 39.4153C67.17 39.5762 67.1906 39.754 67.1587 39.9264L67.1622 39.9159ZM67.8871 39.567C67.8931 39.5037 67.9222 39.4447 67.9691 39.4011C68.0159 39.3574 68.0773 39.3321 68.1417 39.3298C68.2275 39.3164 68.3153 39.3346 68.3883 39.3809C68.4613 39.4273 68.5146 39.4984 68.5378 39.581L70.7621 45.9131C70.7988 46.018 70.8026 46.1314 70.773 46.2385C70.7433 46.3455 70.6816 46.4413 70.5959 46.5131C70.3934 46.6868 70.2309 46.9011 70.1193 47.1418C70.0077 47.3825 69.9495 47.644 69.9487 47.9087C69.9468 48.1884 70.0122 48.4646 70.1397 48.7146C70.19 48.8225 70.2115 48.9413 70.2022 49.0597C70.193 49.1782 70.1532 49.2923 70.0867 49.3914L65.9952 55.1581C65.9621 55.2063 65.9149 55.2433 65.8598 55.2638C65.8048 55.2842 65.7446 55.2876 65.6876 55.2736C65.6236 55.2548 65.5687 55.2135 65.5336 55.1577C65.4983 55.1015 65.4852 55.0346 65.4966 54.9698L67.8871 39.567ZM71.2536 49.6635C71.4381 49.7246 71.6319 49.7542 71.8265 49.7507C71.8852 49.7576 71.9446 49.7576 72.0033 49.7507C72.1424 49.743 72.2807 49.776 72.4008 49.8455C72.521 49.915 72.6177 50.018 72.6787 50.1415L76.0735 57.7294C76.1116 57.8261 76.1184 57.9318 76.093 58.0323C76.0677 58.1328 76.0115 58.2236 75.9321 58.2913C75.6818 58.4787 75.4745 58.7169 75.3239 58.9891C75.267 59.0845 75.1812 59.1603 75.0784 59.2055C74.9756 59.2506 74.8611 59.2625 74.751 59.24L67.537 57.6595C67.4125 57.6323 67.3008 57.5646 67.2201 57.467C67.1392 57.3699 67.094 57.2485 67.0915 57.1224C67.0899 56.9094 67.0553 56.6972 66.9889 56.4945C66.9209 56.3028 66.8269 56.1209 66.7095 55.9539C66.6356 55.8585 66.5955 55.7422 66.5955 55.6225C66.5955 55.5023 66.6356 55.386 66.7095 55.291L70.5075 49.8833C70.5904 49.7771 70.7045 49.6987 70.8342 49.6587C70.9639 49.6188 71.103 49.6192 71.2324 49.66L71.2536 49.6635ZM72.7283 45.9759L75.7942 35.3282C75.8198 35.2344 75.8758 35.1516 75.9537 35.0923C76.0317 35.0331 76.1272 35.0007 76.2256 35.0003H76.2504C76.3522 34.9976 76.4522 35.0265 76.5366 35.0828C76.6209 35.1391 76.6853 35.22 76.7207 35.3142L78.5383 40.2822C78.7045 40.7462 78.6904 40.9346 78.5772 41.0707C78.4734 41.1972 78.397 41.3433 78.3527 41.5C78.3084 41.6568 78.2971 41.8209 78.3197 41.9821C78.3422 42.1433 78.398 42.2982 78.4837 42.4373C78.5694 42.5764 78.683 42.6966 78.8177 42.7907C78.905 42.8521 78.9735 42.936 79.0159 43.0331C79.0583 43.1303 79.0729 43.2371 79.0581 43.3419L77.2264 57.7609C77.1121 57.7673 76.9986 57.7396 76.9007 57.6808C76.8028 57.6225 76.7253 57.536 76.6783 57.4329L73.3365 49.9217C73.2618 49.7537 73.2308 49.57 73.2462 49.3873C73.2617 49.2045 73.3231 49.0285 73.4249 48.875C73.6187 48.5801 73.7207 48.2357 73.7184 47.8842C73.7172 47.5833 73.6427 47.2871 73.5011 47.0206C73.3596 46.754 73.1552 46.5249 72.9051 46.3527C72.8384 46.3148 72.7862 46.2564 72.7562 46.1865C72.7262 46.1167 72.7201 46.039 72.7388 45.9654L72.7283 45.9759ZM86.8025 29.6346L79.9634 40.5195C79.9324 40.5672 79.8885 40.6055 79.8367 40.6302C79.7848 40.6548 79.7271 40.6648 79.6699 40.659C79.6204 40.659 79.5674 40.659 79.5179 40.659C79.4752 40.6607 79.4332 40.6481 79.3986 40.6235C79.364 40.5988 79.3388 40.5635 79.3269 40.5229L77.3431 35.1049C77.3077 34.9943 77.3007 34.8767 77.323 34.7628C77.3452 34.6489 77.3959 34.5423 77.4704 34.4525C77.7309 34.1568 77.8719 33.7768 77.8664 33.385C77.8663 33.329 77.8831 33.2742 77.9145 33.2277C77.946 33.181 77.9908 33.1448 78.0432 33.1233L86.8025 29.6346ZM80.5717 41.2486C80.5283 41.1807 80.5053 41.1021 80.5053 41.0219C80.5053 40.9416 80.5283 40.863 80.5717 40.7951L87.2907 30.123C87.2932 30.1179 87.2966 30.1135 87.3009 30.1097C87.3051 30.1061 87.3103 30.1032 87.3158 30.1015C87.3213 30.0997 87.3269 30.099 87.3324 30.0994C87.3384 30.0998 87.3439 30.1013 87.349 30.1038C87.3541 30.1063 87.3584 30.1098 87.3622 30.114C87.3661 30.1183 87.369 30.1232 87.3708 30.1286C87.3725 30.1339 87.3733 30.1396 87.3729 30.1452C87.3725 30.1509 87.3708 30.1563 87.3682 30.1614L78.2872 57.7469C78.2725 57.792 78.241 57.8304 78.1991 57.8534C78.1571 57.8768 78.1078 57.8836 78.0609 57.8725C78.0188 57.864 77.9817 57.8397 77.9579 57.8044C77.934 57.769 77.9253 57.7256 77.9336 57.6843L79.7371 43.3803C79.7477 43.288 79.7828 43.2002 79.8386 43.1255C79.8945 43.0508 79.9692 42.9919 80.0554 42.9546C80.2649 42.8589 80.4427 42.7064 80.5678 42.515C80.693 42.3235 80.7606 42.1009 80.7626 41.8731C80.75 41.6544 80.6884 41.4411 80.5823 41.2486H80.5717ZM76.9364 31.4801C77.2299 30.3288 78.0821 26.9447 78.411 25.6609C78.4458 25.5329 78.5242 25.4207 78.6331 25.3432C78.7419 25.2656 78.8746 25.2275 79.0087 25.2352C79.0723 25.2352 79.1218 25.2352 79.1854 25.2352C79.692 25.2385 80.1867 25.0847 80.5999 24.7956C80.7112 24.7156 80.8438 24.6693 80.9814 24.6624C81.119 24.6556 81.2555 24.6886 81.3744 24.7573L86.3961 27.7541C86.4532 27.7902 86.4966 27.844 86.5196 27.9072C86.5431 27.9703 86.5439 28.0391 86.523 28.103C86.4723 28.2609 86.4459 28.4256 86.4455 28.5914C86.4383 28.654 86.4383 28.7172 86.4455 28.7798C86.4566 28.8518 86.4425 28.9254 86.4059 28.9887C86.3693 29.052 86.3122 29.1013 86.244 29.1287L77.9336 32.4535C77.8582 32.4828 77.7752 32.4874 77.6969 32.4667C77.6186 32.446 77.5491 32.401 77.4987 32.3384C77.3967 32.2214 77.2775 32.1202 77.145 32.0383C77.0572 31.975 76.9901 31.8878 76.9518 31.7875C76.9134 31.6871 76.9056 31.5778 76.9293 31.4731L76.9364 31.4801ZM93.9105 22.4372C93.4718 22.0056 92.8784 21.7623 92.259 21.7604H81.3284C81.2531 21.6255 81.168 21.4961 81.0738 21.3732C80.7416 20.9714 80.2866 20.6864 79.7768 20.5607C79.267 20.4349 78.7296 20.4752 78.2448 20.6754C77.9468 20.7922 77.6772 20.9697 77.4536 21.1963C77.2299 21.423 77.0573 21.6937 76.947 21.9907C76.771 22.4365 76.7339 22.924 76.8404 23.3907C76.9468 23.8575 77.1921 24.2823 77.5447 24.6108C77.6613 24.7225 77.7462 24.8626 77.7908 25.0168C77.8355 25.1711 77.8384 25.3342 77.7993 25.4899L76.2751 31.4836C76.2574 31.5614 76.2161 31.6321 76.1567 31.6863C76.0973 31.7405 76.0228 31.7757 75.9427 31.7871C75.6566 31.8393 75.3897 31.9654 75.1689 32.1524C74.9482 32.3394 74.7816 32.5807 74.686 32.8518C74.5905 33.1229 74.5694 33.4141 74.6249 33.6959C74.6804 33.9777 74.8105 34.2399 75.0021 34.456C75.0853 34.5501 75.143 34.6635 75.1695 34.7855C75.1961 34.9075 75.1908 35.0343 75.1541 35.1538C74.5954 37.111 72.4347 44.6222 72.0776 45.8643C72.0639 45.9135 72.0345 45.957 71.9937 45.9884C71.9529 46.0199 71.903 46.0375 71.8512 46.0387H71.7629C71.7025 46.0386 71.6435 46.0211 71.5932 45.9882C71.5429 45.9553 71.5036 45.9086 71.48 45.8538L69.2698 39.574C69.213 39.4098 69.2018 39.2337 69.2373 39.0638C69.2727 38.8939 69.3535 38.7364 69.4714 38.6076C69.7336 38.3104 69.9035 37.9449 69.9607 37.5549C70.0179 37.1649 69.9601 36.7669 69.7941 36.4085C69.6281 36.05 69.361 35.7464 69.0247 35.5338C68.6884 35.3212 68.2971 35.2086 67.8977 35.2096H67.873L65.1005 25.5527C65.0289 25.31 65.0239 25.053 65.0861 24.8078C65.1482 24.5626 65.2752 24.3381 65.4542 24.1572C65.7372 23.8608 65.9264 23.4893 65.9986 23.0884C66.0708 22.6875 66.0229 22.2745 65.8608 21.9C65.6597 21.4276 65.2788 21.0518 64.8 20.8534C64.4348 20.7018 64.0339 20.6542 63.6426 20.7158C63.2514 20.7775 62.8854 20.946 62.5863 21.2022C62.3987 21.3621 62.2397 21.552 62.116 21.7639H51.3657C50.7463 21.7658 50.1528 22.0091 49.7143 22.4407C49.4923 22.6518 49.3168 22.9057 49.1988 23.1866C49.0808 23.4675 49.0227 23.7694 49.0283 24.0735C49.034 24.2969 49.0637 24.5191 49.1167 24.7363C49.1167 24.7363 49.1167 24.7643 49.1167 24.7747L60.9136 64.1487C61.121 64.8328 61.512 65.4488 62.0452 65.9314C62.3948 66.259 62.8085 66.512 63.261 66.6761C63.7134 66.8396 64.195 66.9104 64.6762 66.8839H78.9945C79.4731 66.9065 79.9514 66.8337 80.401 66.6701C80.8505 66.5065 81.2621 66.2552 81.6113 65.9314C82.1383 65.4513 82.5251 64.8405 82.7321 64.1627L94.5291 24.7817C94.5291 24.7817 94.5291 24.7573 94.5291 24.7433C94.5866 24.5268 94.6164 24.3042 94.6177 24.0804C94.6036 23.4667 94.3502 22.882 93.9105 22.4477V22.4372Z" fill="white"/>
</mask>
<g mask="url(#mask0_266_492)">
<path fill-rule="evenodd" clip-rule="evenodd" d="M92.6307 24.2514L80.8336 63.6289C80.7071 63.9885 80.4934 64.3118 80.2112 64.5708C80.0396 64.7182 79.8397 64.8294 79.6233 64.8984C79.407 64.9674 79.1787 64.9925 78.9523 64.9721H64.6517C64.4252 64.9938 64.1966 64.9691 63.9801 64.9001C63.7636 64.8311 63.5637 64.7191 63.3928 64.5708C63.1045 64.3101 62.8858 63.9829 62.7563 63.6187L50.9735 24.2514C50.9557 24.1901 50.9462 24.1268 50.9451 24.063C50.944 24.0106 50.9549 23.9586 50.9769 23.9109C50.9989 23.8632 51.0316 23.8209 51.0725 23.7874C51.109 23.7464 51.1542 23.7139 51.2049 23.6922C51.2557 23.6704 51.3107 23.6601 51.366 23.6618H62.0561C62.0808 23.7106 62.1091 23.749 62.1339 23.7978C62.1616 23.8537 62.1726 23.9161 62.1657 23.9779C62.1588 24.0396 62.1343 24.0982 62.095 24.1467C61.4478 24.8724 58.9937 27.6704 58.0672 28.724C57.9724 28.8306 57.8495 28.9092 57.7122 28.9511C57.5749 28.9929 57.4284 28.9965 57.2892 28.9612C56.935 28.88 56.564 28.9105 56.2283 29.0484C56.0352 29.1298 55.8605 29.2481 55.7142 29.3966C55.5679 29.5452 55.453 29.7209 55.3761 29.9137C55.2752 30.1611 55.2371 30.4292 55.2653 30.6945C55.2934 30.9597 55.3868 31.2142 55.5375 31.4357C55.6881 31.6572 55.8913 31.8391 56.1294 31.9654C56.3676 32.0917 56.6334 32.1586 56.9038 32.1604C56.9491 32.1614 56.9929 32.1763 57.0291 32.2033C57.0653 32.2302 57.092 32.2677 57.1053 32.3105L64.2238 55.3605C63.9786 55.4891 63.7635 55.6668 63.5924 55.8823C63.4213 56.0979 63.298 56.3466 63.2306 56.612C63.1632 56.8779 63.1532 57.1543 63.2011 57.424C63.249 57.6936 63.3539 57.9505 63.5089 58.1776C63.6639 58.4046 63.8655 58.5972 64.1007 58.7424C64.336 58.8877 64.5995 58.9827 64.8743 59.021C65.1491 59.0593 65.429 59.0402 65.6959 58.9652C65.9627 58.8898 66.2106 58.7599 66.4234 58.5844C66.5768 58.454 66.7592 58.3612 66.9558 58.3134C67.1524 58.2653 67.3576 58.2636 67.555 58.3088L74.8396 59.8994C74.8945 59.9122 74.9433 59.9429 74.978 59.9867C75.0127 60.0306 75.0313 60.0847 75.0306 60.1401C75.0317 60.5311 75.1298 60.9162 75.3163 61.2613C75.5028 61.6063 75.7721 61.9011 76.1006 62.1201C76.4291 62.3386 76.8069 62.4749 77.2011 62.5167C77.5952 62.5584 77.9937 62.5043 78.3618 62.3591C78.6649 62.247 78.9405 62.0728 79.1703 61.8479C79.4001 61.623 79.5789 61.3525 79.6949 61.0543C79.8746 60.6146 79.9188 60.1324 79.8219 59.6685C79.7251 59.2042 79.4914 58.7786 79.1503 58.4446C79.058 58.3526 78.9924 58.2372 78.9607 58.1115C78.929 57.9859 78.9322 57.8538 78.97 57.7294L88.0228 30.2137H88.0969C88.3746 30.2122 88.6473 30.1421 88.8901 30.0099C89.1333 29.8777 89.3386 29.6877 89.4882 29.457C89.6377 29.2263 89.7263 28.9624 89.7455 28.6894C89.7651 28.4163 89.7152 28.1427 89.5998 27.8937C89.4456 27.5385 89.158 27.2559 88.7972 27.1052C88.5552 26.9975 88.2907 26.9483 88.0257 26.9617C87.7608 26.975 87.5026 27.0505 87.273 27.182C87.1891 27.2332 87.0924 27.2604 86.9936 27.2604C86.8952 27.2604 86.7985 27.2332 86.7145 27.182L81.654 24.1607C81.5688 24.1078 81.5046 24.0277 81.4718 23.9338C81.439 23.8399 81.4396 23.7378 81.4737 23.6444H92.2558C92.3108 23.6429 92.3657 23.6534 92.4164 23.675C92.4671 23.6968 92.5127 23.7291 92.5493 23.7699C92.5894 23.8068 92.6213 23.8516 92.6426 23.9015C92.6643 23.9515 92.6746 24.0053 92.6729 24.0595C92.6707 24.1237 92.6588 24.1872 92.6375 24.2479L92.6307 24.2514ZM63.0816 24.6387C63.3449 24.7562 63.6306 24.8169 63.9197 24.8166C63.9921 24.8181 64.0629 24.8386 64.1248 24.8759C64.1828 24.92 64.2229 24.9831 64.2379 25.0538L67.0457 34.8223C67.0884 34.9511 67.0853 35.0903 67.0371 35.2171C66.9889 35.3439 66.8985 35.4508 66.7805 35.5201C66.6857 35.5805 66.5958 35.6482 66.5117 35.7224C66.3972 35.82 66.254 35.8787 66.1032 35.89C65.9523 35.9013 65.8018 35.8646 65.6737 35.7852L58.4668 31.044C58.5178 30.8896 58.544 30.7284 58.5446 30.5661C58.5413 30.352 58.4982 30.1402 58.4173 29.9416C58.3633 29.8164 58.3476 29.6783 58.3721 29.5445C58.3965 29.4106 58.4602 29.2866 58.5552 29.188C59.4074 28.2111 61.6176 25.6993 62.4451 24.7852C62.519 24.6906 62.6238 24.6241 62.7416 24.5968C62.8595 24.5695 62.9833 24.583 63.0922 24.6352L63.0816 24.6387ZM67.1624 39.9159L64.8356 54.9174C64.8328 54.9272 64.827 54.9353 64.819 54.9413C64.8111 54.9473 64.8014 54.9507 64.7914 54.9507C64.7814 54.9507 64.7717 54.9473 64.7637 54.9413C64.7557 54.9353 64.7499 54.9272 64.7472 54.9174L57.7418 32.2407C57.7219 32.1781 57.722 32.111 57.7423 32.0485C57.7625 31.986 57.8019 31.9313 57.855 31.8918C57.908 31.8534 57.947 31.815 57.9965 31.7766C58.0446 31.7351 58.1053 31.7102 58.1691 31.7058C58.2329 31.7014 58.2965 31.7177 58.3501 31.7522C59.3402 32.4046 63.7146 35.2759 65.2529 36.2876C65.417 36.3974 65.5514 36.545 65.6444 36.7177C65.7375 36.8904 65.7864 37.0829 65.7868 37.2784C65.7865 37.6269 65.8759 37.9698 66.0466 38.2749C66.2173 38.58 66.4638 38.8373 66.7628 39.0228C66.912 39.1179 67.0292 39.2545 67.0997 39.4153C67.1702 39.5762 67.1908 39.754 67.1589 39.9264L67.1624 39.9159ZM67.8874 39.567C67.8934 39.5037 67.9225 39.4447 67.9693 39.4011C68.0162 39.3574 68.0776 39.3321 68.142 39.3298C68.2277 39.3164 68.3155 39.3346 68.3885 39.3809C68.4616 39.4273 68.5148 39.4984 68.538 39.581L70.7623 45.9131C70.7991 46.018 70.8029 46.1314 70.7732 46.2385C70.7436 46.3455 70.6818 46.4413 70.5961 46.5131C70.3936 46.6868 70.2311 46.9011 70.1195 47.1418C70.0079 47.3825 69.9497 47.644 69.949 47.9087C69.947 48.1884 70.0125 48.4646 70.1399 48.7146C70.1903 48.8225 70.2118 48.9413 70.2025 49.0597C70.1932 49.1782 70.1534 49.2923 70.0869 49.3914L65.9954 55.1581C65.9624 55.2063 65.9151 55.2433 65.8601 55.2638C65.805 55.2842 65.7449 55.2876 65.6878 55.2736C65.6238 55.2548 65.569 55.2135 65.5338 55.1577C65.4986 55.1015 65.4854 55.0346 65.4969 54.9698L67.8874 39.567ZM71.2539 49.6635C71.4384 49.7246 71.6321 49.7542 71.8267 49.7507C71.8855 49.7576 71.9448 49.7576 72.0036 49.7507C72.1426 49.743 72.2809 49.776 72.4011 49.8455C72.5212 49.915 72.6179 50.018 72.679 50.1415L76.0738 57.7294C76.1118 57.8261 76.1186 57.9318 76.0933 58.0323C76.068 58.1328 76.0118 58.2236 75.9323 58.2913C75.682 58.4787 75.4747 58.7169 75.3241 58.9891C75.2672 59.0845 75.1814 59.1603 75.0786 59.2055C74.9759 59.2506 74.8614 59.2625 74.7512 59.24L67.5373 57.6595C67.4127 57.6323 67.3011 57.5646 67.2203 57.467C67.1395 57.3699 67.0942 57.2485 67.0917 57.1224C67.0902 56.9094 67.0556 56.6972 66.9892 56.4945C66.9211 56.3028 66.8271 56.1209 66.7098 55.9539C66.6358 55.8585 66.5957 55.7422 66.5957 55.6225C66.5957 55.5023 66.6358 55.386 66.7098 55.291L70.5077 49.8833C70.5907 49.7771 70.7048 49.6987 70.8344 49.6587C70.9642 49.6188 71.1032 49.6192 71.2327 49.66L71.2539 49.6635ZM72.7285 45.9759L75.7944 35.3282C75.82 35.2344 75.8761 35.1516 75.954 35.0923C76.0319 35.0331 76.1274 35.0007 76.2259 35.0003H76.2506C76.3524 34.9976 76.4525 35.0265 76.5368 35.0828C76.6212 35.1391 76.6855 35.22 76.7209 35.3142L78.5386 40.2822C78.7048 40.7462 78.6906 40.9346 78.5774 41.0707C78.4736 41.1972 78.3972 41.3433 78.3529 41.5C78.3086 41.6568 78.2974 41.8209 78.3199 41.9821C78.3424 42.1433 78.3983 42.2982 78.4839 42.4373C78.5696 42.5764 78.6833 42.6966 78.8179 42.7907C78.9052 42.8521 78.9738 42.936 79.0162 43.0331C79.0586 43.1303 79.0732 43.2371 79.0584 43.3419L77.2266 57.7609C77.1123 57.7673 76.9988 57.7396 76.9009 57.6808C76.8031 57.6225 76.7255 57.536 76.6785 57.4329L73.3367 49.9217C73.2621 49.7537 73.2311 49.57 73.2465 49.3873C73.2619 49.2045 73.3233 49.0285 73.4251 48.875C73.6189 48.5801 73.7209 48.2357 73.7186 47.8842C73.7175 47.5833 73.6429 47.2871 73.5013 47.0206C73.3598 46.754 73.1554 46.5249 72.9053 46.3527C72.8387 46.3148 72.7864 46.2564 72.7564 46.1865C72.7264 46.1167 72.7203 46.039 72.7391 45.9654L72.7285 45.9759ZM86.8027 29.6346L79.9637 40.5195C79.9326 40.5672 79.8887 40.6055 79.8369 40.6302C79.7851 40.6548 79.7274 40.6648 79.6702 40.659C79.6207 40.659 79.5676 40.659 79.5181 40.659C79.4754 40.6607 79.4334 40.6481 79.3988 40.6235C79.3642 40.5988 79.339 40.5635 79.3271 40.5229L77.3433 35.1049C77.3079 34.9943 77.301 34.8767 77.3232 34.7628C77.3454 34.6489 77.3961 34.5423 77.4706 34.4525C77.7311 34.1568 77.8721 33.7768 77.8667 33.385C77.8666 33.329 77.8833 33.2742 77.9148 33.2277C77.9463 33.181 77.9911 33.1448 78.0435 33.1233L86.8027 29.6346ZM80.5719 41.2486C80.5286 41.1807 80.5056 41.1021 80.5056 41.0219C80.5056 40.9416 80.5286 40.863 80.5719 40.7951L87.2909 30.123C87.2935 30.1179 87.2969 30.1135 87.3011 30.1097C87.3054 30.1061 87.3105 30.1032 87.316 30.1015C87.3216 30.0997 87.3271 30.099 87.3327 30.0994C87.3386 30.0998 87.3442 30.1013 87.3493 30.1038C87.3544 30.1063 87.3586 30.1098 87.3625 30.114C87.3663 30.1183 87.3693 30.1232 87.371 30.1286C87.3727 30.1339 87.3735 30.1396 87.3731 30.1452C87.3727 30.1509 87.371 30.1563 87.3684 30.1614L78.2875 57.7469C78.2728 57.792 78.2413 57.8304 78.1993 57.8534C78.1573 57.8768 78.108 57.8836 78.0611 57.8725C78.019 57.864 77.982 57.8397 77.9581 57.8044C77.9342 57.769 77.9255 57.7256 77.9339 57.6843L79.7373 43.3803C79.748 43.288 79.783 43.2002 79.8388 43.1255C79.8947 43.0508 79.9695 42.9919 80.0556 42.9546C80.2652 42.8589 80.4429 42.7064 80.5681 42.515C80.6933 42.3235 80.7608 42.1009 80.7629 41.8731C80.7503 41.6544 80.6887 41.4411 80.5825 41.2486H80.5719ZM76.9366 31.4801C77.2301 30.3288 78.0824 26.9447 78.4113 25.6609C78.446 25.5329 78.5245 25.4207 78.6333 25.3432C78.7422 25.2656 78.8748 25.2275 79.0089 25.2352C79.0725 25.2352 79.122 25.2352 79.1857 25.2352C79.6922 25.2385 80.187 25.0847 80.6002 24.7956C80.7115 24.7156 80.8441 24.6693 80.9816 24.6624C81.1192 24.6556 81.2558 24.6886 81.3746 24.7573L86.3963 27.7541C86.4534 27.7902 86.4969 27.844 86.5199 27.9072C86.5433 27.9703 86.5441 28.0391 86.5233 28.103C86.4726 28.2609 86.4462 28.4256 86.4457 28.5914C86.4385 28.654 86.4385 28.7172 86.4457 28.7798C86.4568 28.8518 86.4428 28.9254 86.4061 28.9887C86.3695 29.052 86.3124 29.1013 86.2442 29.1287L77.9339 32.4535C77.8584 32.4828 77.7754 32.4874 77.6971 32.4667C77.6188 32.446 77.5493 32.401 77.4989 32.3384C77.397 32.2214 77.2778 32.1202 77.1453 32.0383C77.0575 31.975 76.9903 31.8878 76.952 31.7875C76.9137 31.6871 76.9059 31.5778 76.9295 31.4731L76.9366 31.4801ZM93.9108 22.4372C93.472 22.0056 92.8786 21.7623 92.2592 21.7604H81.3287C81.2533 21.6255 81.1682 21.4961 81.074 21.3732C80.7419 20.9714 80.2869 20.6864 79.777 20.5607C79.2672 20.4349 78.7298 20.4752 78.245 20.6754C77.9471 20.7922 77.6775 20.9697 77.4538 21.1963C77.2302 21.423 77.0576 21.6937 76.9473 21.9907C76.7712 22.4365 76.7341 22.924 76.8406 23.3907C76.9471 23.8575 77.1923 24.2823 77.5449 24.6108C77.6615 24.7225 77.7464 24.8626 77.7911 25.0168C77.8358 25.1711 77.8387 25.3342 77.7995 25.4899L76.2754 31.4836C76.2576 31.5614 76.2163 31.6321 76.157 31.6863C76.0976 31.7405 76.023 31.7757 75.943 31.7871C75.6569 31.8393 75.3899 31.9654 75.1691 32.1524C74.9484 32.3394 74.7818 32.5807 74.6863 32.8518C74.5907 33.1229 74.5696 33.4141 74.6251 33.6959C74.6806 33.9777 74.8108 34.2399 75.0023 34.456C75.0856 34.5501 75.1432 34.6635 75.1698 34.7855C75.1964 34.9075 75.1911 35.0343 75.1544 35.1538C74.5956 37.111 72.435 44.6222 72.0778 45.8643C72.0641 45.9135 72.0347 45.957 71.9939 45.9884C71.9532 46.0199 71.9032 46.0375 71.8515 46.0387H71.7631C71.7027 46.0386 71.6438 46.0211 71.5935 45.9882C71.5432 45.9553 71.5038 45.9086 71.4802 45.8538L69.27 39.574C69.2133 39.4098 69.2021 39.2337 69.2375 39.0638C69.2729 38.8939 69.3538 38.7364 69.4716 38.6076C69.7338 38.3104 69.9037 37.9449 69.9609 37.5549C70.0182 37.1649 69.9603 36.7669 69.7943 36.4085C69.6283 36.05 69.3612 35.7464 69.0249 35.5338C68.6886 35.3212 68.2974 35.2086 67.898 35.2096H67.8732L65.1008 25.5527C65.0292 25.31 65.0242 25.053 65.0863 24.8078C65.1484 24.5626 65.2755 24.3381 65.4544 24.1572C65.7374 23.8608 65.9266 23.4893 65.9988 23.0884C66.0711 22.6875 66.0232 22.2745 65.8611 21.9C65.66 21.4276 65.2791 21.0518 64.8002 20.8534C64.435 20.7018 64.0341 20.6542 63.6428 20.7158C63.2516 20.7775 62.8857 20.946 62.5865 21.2022C62.3989 21.3621 62.2399 21.552 62.1162 21.7639H51.366C50.7465 21.7658 50.153 22.0091 49.7145 22.4407C49.4925 22.6518 49.3171 22.9057 49.199 23.1866C49.081 23.4675 49.0229 23.7694 49.0285 24.0735C49.0343 24.2969 49.0639 24.5191 49.1169 24.7363C49.1169 24.7363 49.1169 24.7643 49.1169 24.7747L60.9139 64.1487C61.1213 64.8328 61.5122 65.4488 62.0455 65.9314C62.3951 66.259 62.8088 66.512 63.2612 66.6761C63.7137 66.8396 64.1953 66.9104 64.6765 66.8839H78.9947C79.4733 66.9065 79.9517 66.8337 80.4012 66.6701C80.8507 66.5065 81.2623 66.2552 81.6116 65.9314C82.1385 65.4513 82.5254 64.8405 82.7324 64.1627L94.5293 24.7817C94.5293 24.7817 94.5293 24.7573 94.5293 24.7433C94.5868 24.5268 94.6167 24.3042 94.6179 24.0804C94.6039 23.4667 94.3504 22.882 93.9108 22.4477V22.4372Z" fill="white" stroke="white" stroke-width="1.06489"/>
</g>
</svg>
