<svg width="640" height="351" viewBox="0 0 640 351" fill="none" xmlns="http://www.w3.org/2000/svg">
<path d="M640.532 0.109009H0L6.50499e-05 292.95C9.87447 295.547 36.5342 295.999 63.4385 299.678C102.284 304.989 141.396 309.443 165.995 304.39C221.682 292.95 253.389 273.994 304.013 285.433C366.398 299.53 387.272 313.109 437.768 304.39C547.543 285.433 543.024 355.13 577.119 349.819C604.394 345.57 630.006 309.238 640.532 318.443L640.532 0.109009Z" fill="url(#paint0_diamond_266_336)"/>
<g opacity="0.4">
<path d="M102.36 -51.0057V-9.91689L111.843 4.53369V25.3896L94.7248 36.2302V95.8269L103.281 108.334V143.758" stroke="url(#paint1_linear_266_336)" stroke-width="0.798669" stroke-miterlimit="10"/>
<path d="M101.501 143.672C101.5 144.025 101.604 144.37 101.799 144.663C101.996 144.956 102.274 145.184 102.601 145.319C102.927 145.453 103.285 145.488 103.631 145.419C104.062 145.329 104.445 145.083 104.706 144.728C104.967 144.373 105.087 143.934 105.043 143.496C105 143.057 104.795 142.651 104.47 142.354C104.144 142.057 103.72 141.891 103.28 141.889C102.807 141.895 102.356 142.086 102.023 142.421C101.855 142.585 101.721 142.78 101.63 142.996C101.538 143.211 101.491 143.443 101.491 143.678L101.501 143.672Z" fill="url(#paint2_linear_266_336)"/>
<path d="M91.7262 -51.0057V-9.67729L101.385 5.01822L101.209 23.6805L84.091 34.9417V95.8269L92.6474 108.334V162.942" stroke="url(#paint3_linear_266_336)" stroke-width="0.798669" stroke-miterlimit="10"/>
<path d="M90.8684 162.856C90.8672 163.207 90.9711 163.55 91.1666 163.842C91.4138 164.205 91.7867 164.465 92.2137 164.571C92.6407 164.676 93.0917 164.62 93.48 164.414C93.8683 164.207 94.1665 163.864 94.3174 163.451C94.4682 163.038 94.4611 162.583 94.2973 162.175C94.164 161.848 93.9336 161.569 93.6371 161.376C93.3447 161.179 92.9998 161.073 92.6468 161.073C92.1742 161.078 91.7229 161.27 91.3902 161.605C91.2224 161.77 91.089 161.966 90.9976 162.183C90.9062 162.399 90.8587 162.632 90.8577 162.867L90.8684 162.856Z" fill="url(#paint4_linear_266_336)"/>
<path d="M80.9389 -51.0057V-9.67728L90.5975 5.01823L90.4164 23.6805L73.2983 34.9417V94.1337" stroke="url(#paint5_linear_266_336)" stroke-width="0.798669" stroke-miterlimit="10"/>
<path d="M71.5198 94.0486C71.5187 94.3993 71.6225 94.7424 71.818 95.0336C72.0652 95.3974 72.4382 95.657 72.8652 95.7626C73.2922 95.8682 73.7431 95.8123 74.1314 95.6056C74.5197 95.3989 74.8179 95.056 74.9688 94.6428C75.1197 94.2296 75.1125 93.7753 74.9488 93.367C74.8151 93.0398 74.5848 92.7611 74.2885 92.5684C74.0206 92.3887 73.7089 92.2854 73.3868 92.2693C73.0646 92.2532 72.7442 92.3251 72.4597 92.4771C72.1753 92.6292 71.9376 92.8558 71.772 93.1326C71.6064 93.4094 71.5193 93.726 71.5198 94.0486Z" fill="url(#paint6_linear_266_336)"/>
<path d="M47.2662 36.9916V-17.3605L38.7097 -29.873V-51.0057" stroke="url(#paint7_linear_266_336)" stroke-width="0.798669" stroke-miterlimit="10"/>
<path d="M45.2172 36.8904C45.2161 37.2973 45.3359 37.6954 45.5613 38.0342C45.7868 38.373 46.1077 38.6373 46.4834 38.7935C46.8592 38.9497 47.2729 38.9909 47.6721 38.9117C48.0712 38.8326 48.4379 38.6368 48.7257 38.349C49.0134 38.0613 49.2093 37.6946 49.2884 37.2954C49.3675 36.8962 49.3264 36.4825 49.1702 36.1068C49.014 35.731 48.7497 35.4101 48.4109 35.1846C48.0721 34.9592 47.674 34.8394 47.2671 34.8405C46.7234 34.8405 46.202 35.0565 45.8176 35.4409C45.4331 35.8253 45.2172 36.3467 45.2172 36.8904Z" fill="url(#paint8_linear_266_336)"/>
<path d="M48.0009 -51.0057V-29.873L56.5626 -17.3605V38.935L64.7889 47.156V75.3756L57.0152 83.1706V111.278" stroke="url(#paint9_linear_266_336)" stroke-width="0.798669" stroke-miterlimit="10"/>
<path d="M54.9656 111.193C54.9656 111.599 55.0861 111.995 55.3117 112.333C55.5361 112.671 55.857 112.935 56.2328 113.089C56.6078 113.245 57.0208 113.286 57.4191 113.206C57.8174 113.126 58.1829 112.93 58.4691 112.641C58.7547 112.355 58.9492 111.99 59.0278 111.593C59.1064 111.196 59.0658 110.785 58.911 110.411C58.7564 110.036 58.4934 109.715 58.1558 109.49C57.8181 109.266 57.4211 109.147 57.0155 109.149C56.7453 109.149 56.4778 109.201 56.2275 109.303C55.9784 109.405 55.7521 109.555 55.5619 109.745C55.3717 109.935 55.2215 110.161 55.12 110.411C55.0188 110.659 54.9664 110.925 54.9656 111.193Z" fill="url(#paint10_linear_266_336)"/>
<path d="M75.3166 -51.0057V14.171" stroke="url(#paint11_linear_266_336)" stroke-width="0.798669" stroke-miterlimit="10"/>
<path d="M73.5588 14.0805C73.56 14.4325 73.6636 14.7766 73.8569 15.0708C74.0433 15.3592 74.3097 15.5868 74.6236 15.7257C74.9487 15.86 75.3062 15.8952 75.6513 15.8269C75.9969 15.7572 76.315 15.5889 76.5671 15.3424C76.8136 15.0903 76.9819 14.7722 77.0516 14.4266C77.122 14.0527 77.0711 13.6661 76.9063 13.3233C76.7414 12.9804 76.4712 12.6993 76.1352 12.5209C75.7992 12.3425 75.415 12.2762 75.0386 12.3316C74.6623 12.3871 74.3135 12.5615 74.0433 12.8292C73.8752 12.9926 73.7415 13.1879 73.6501 13.4037C73.5586 13.6195 73.5113 13.8514 73.5108 14.0858L73.5588 14.0805Z" fill="url(#paint12_linear_266_336)"/>
<path d="M9.62726 58.1457V3.7723L18.1837 -8.74018V-51.0057" stroke="url(#paint13_linear_266_336)" stroke-width="0.798669" stroke-miterlimit="10"/>
<path d="M11.6786 58.0232C11.6779 58.4288 11.5575 58.8252 11.3325 59.1626C11.1057 59.5047 10.7815 59.7707 10.4018 59.9264C10.022 60.0821 9.60435 60.1202 9.20273 60.0359C8.79956 59.9577 8.42881 59.7613 8.13783 59.4715C7.8573 59.1781 7.67174 58.807 7.60539 58.4066C7.54621 58.1094 7.55381 57.8028 7.62765 57.509C7.70148 57.2151 7.83971 56.9413 8.03232 56.7075C8.22493 56.4736 8.46712 56.2854 8.74136 56.1566C9.0156 56.0278 9.31505 55.9615 9.61803 55.9626C9.88718 55.9612 10.1539 56.0131 10.4029 56.1153C10.6519 56.2175 10.8782 56.368 11.0688 56.558C11.2594 56.7481 11.4104 56.974 11.5132 57.2227C11.6161 57.4715 11.6687 57.7381 11.668 58.0072L11.6786 58.0232Z" fill="url(#paint14_linear_266_336)"/>
<path d="M1.06641 70.754V3.7723L9.62814 -8.74017V-51.0057" stroke="url(#paint15_linear_266_336)" stroke-width="0.798669" stroke-miterlimit="10"/>
<path d="M120.915 -51.0057V28.1743L101.593 41.2618" stroke="url(#paint16_linear_266_336)" stroke-width="0.798669" stroke-miterlimit="10"/>
<path d="M100.666 39.7336C100.372 39.9302 100.144 40.2103 100.011 40.5378C99.8786 40.8652 99.8469 41.2249 99.9205 41.5706C99.9897 41.9156 100.162 42.2314 100.416 42.4757C100.603 42.6609 100.829 42.8022 101.077 42.8894C101.326 42.9766 101.59 43.0076 101.852 42.9801C102.114 42.9526 102.366 42.8673 102.591 42.7303C102.816 42.5934 103.008 42.4082 103.152 42.1882C103.349 41.8957 103.451 41.5501 103.445 41.1979C103.446 40.7854 103.302 40.3858 103.038 40.0687C102.774 39.7515 102.408 39.5368 102.002 39.4621C101.538 39.3726 101.058 39.4702 100.666 39.7336Z" fill="url(#paint17_linear_266_336)"/>
<path d="M127.916 -51.0057V35.0322L100.527 52.571V82.4625" stroke="url(#paint18_linear_266_336)" stroke-width="0.798669" stroke-miterlimit="10"/>
<path d="M98.7488 82.3772C98.7469 82.7281 98.8508 83.0713 99.0469 83.3622C99.2436 83.655 99.521 83.8844 99.8456 84.0225C100.173 84.1539 100.532 84.189 100.879 84.1236C101.21 84.058 101.516 83.8995 101.761 83.6666C102.006 83.4336 102.18 83.1358 102.263 82.8078C102.345 82.4799 102.332 82.1353 102.226 81.8143C102.12 81.4932 101.925 81.209 101.663 80.9946C101.402 80.7802 101.085 80.6445 100.749 80.6034C100.414 80.5623 100.073 80.6174 99.768 80.7623C99.4625 80.9072 99.2045 81.1359 99.024 81.4219C98.8436 81.7078 98.7481 82.0391 98.7488 82.3772Z" fill="url(#paint19_linear_266_336)"/>
<path d="M135.228 -51.0057V51.9001L120.91 61.3084V94.1337" stroke="url(#paint20_linear_266_336)" stroke-width="0.798669" stroke-miterlimit="10"/>
<path d="M119.132 94.0486C119.131 94.3993 119.235 94.7424 119.43 95.0336C119.677 95.3974 120.05 95.657 120.477 95.7626C120.904 95.8682 121.355 95.8123 121.744 95.6056C122.132 95.3989 122.43 95.056 122.581 94.6428C122.732 94.2296 122.725 93.7753 122.561 93.367C122.427 93.0398 122.197 92.7611 121.901 92.5684C121.633 92.3887 121.321 92.2854 120.999 92.2693C120.677 92.2532 120.356 92.3251 120.072 92.4771C119.787 92.6292 119.55 92.8558 119.384 93.1326C119.219 93.4094 119.131 93.726 119.132 94.0486Z" fill="url(#paint21_linear_266_336)"/>
<path d="M204.008 -51.0057V-17.5735L186.581 -0.146502V59.6152" stroke="url(#paint22_linear_266_336)" stroke-width="0.798669" stroke-miterlimit="10"/>
<path d="M184.809 59.53C184.808 59.8814 184.912 60.2251 185.107 60.5172C185.303 60.8093 185.581 61.0366 185.906 61.1699C186.231 61.3052 186.589 61.341 186.934 61.2728C187.279 61.2047 187.596 61.0356 187.845 60.7871C188.095 60.5385 188.264 60.2216 188.333 59.8765C188.402 59.5315 188.367 59.1737 188.233 58.8485C188.1 58.5225 187.871 58.2442 187.578 58.0498C187.31 57.8687 186.998 57.7642 186.675 57.7473C186.352 57.7305 186.03 57.8021 185.745 57.9543C185.46 58.1066 185.221 58.3337 185.055 58.6114C184.89 58.889 184.803 59.2066 184.804 59.53H184.809Z" fill="url(#paint23_linear_266_336)"/>
<path d="M194.196 -51.0057V-17.5735L176.747 -0.146508V48.8385L165.14 60.4299V108.728" stroke="url(#paint24_linear_266_336)" stroke-width="0.798669" stroke-miterlimit="10"/>
<path d="M163.334 108.648C163.338 109 163.444 109.343 163.64 109.635C163.835 109.928 164.112 110.156 164.437 110.293C164.762 110.428 165.119 110.463 165.464 110.395C165.81 110.325 166.128 110.157 166.38 109.91C166.63 109.661 166.801 109.344 166.87 108.998C166.939 108.651 166.904 108.293 166.769 107.967C166.631 107.642 166.401 107.365 166.108 107.168C165.815 106.972 165.47 106.869 165.118 106.87C164.646 106.87 164.193 107.057 163.859 107.39C163.524 107.724 163.336 108.176 163.334 108.648Z" fill="url(#paint25_linear_266_336)"/>
<path d="M185.469 -51.0057V-20.422L168.462 -3.43702V41.2884L153.357 56.3886L151.994 96.8545" stroke="url(#paint26_linear_266_336)" stroke-width="0.798669" stroke-miterlimit="10"/>
<path d="M150.231 96.7055C150.221 97.0569 150.315 97.4034 150.502 97.7012C150.687 98.0012 150.958 98.2386 151.279 98.3827C151.599 98.5288 151.955 98.577 152.302 98.5211C152.65 98.4624 152.974 98.3033 153.234 98.0632C153.496 97.8242 153.681 97.513 153.766 97.1687C153.826 96.9122 153.828 96.6456 153.773 96.3881C153.717 96.1306 153.605 95.8887 153.445 95.6798C153.284 95.4709 153.079 95.3003 152.845 95.1802C152.61 95.0602 152.352 94.9937 152.089 94.9857C151.855 94.9745 151.621 95.0126 151.402 95.0975C151.182 95.1792 150.981 95.3041 150.811 95.4649C150.639 95.6234 150.501 95.8155 150.406 96.0293C150.311 96.2426 150.257 96.472 150.247 96.7055H150.231Z" fill="url(#paint27_linear_266_336)"/>
<path d="M142.65 -1.4191V73.7037" stroke="url(#paint28_linear_266_336)" stroke-width="0.798669" stroke-miterlimit="10"/>
<path d="M140.876 73.6186C140.875 73.9693 140.979 74.3124 141.174 74.6036C141.371 74.8966 141.65 75.1248 141.976 75.2594C142.302 75.3939 142.66 75.4288 143.006 75.3597C143.352 75.2945 143.669 75.1254 143.917 74.8751C144.166 74.6272 144.337 74.3104 144.406 73.9653C144.475 73.6201 144.44 73.2622 144.305 72.937C144.172 72.6112 143.944 72.333 143.65 72.1384C143.356 71.941 143.009 71.8354 142.655 71.8349C142.421 71.8363 142.19 71.8814 141.973 71.968C141.54 72.1528 141.194 72.4981 141.009 72.9317C140.92 73.1497 140.875 73.3831 140.876 73.6186Z" fill="url(#paint29_linear_266_336)"/>
<path d="M111.148 76.5204V57.4215L129.667 45.8994" stroke="url(#paint30_linear_266_336)" stroke-width="0.798669" stroke-miterlimit="10"/>
<path d="M112.96 76.4299C112.958 76.7821 112.853 77.1262 112.657 77.4189C112.461 77.7116 112.183 77.9399 111.858 78.0751C111.533 78.212 111.175 78.2472 110.83 78.1763C110.484 78.1089 110.165 77.9403 109.914 77.6918C109.666 77.4416 109.497 77.1237 109.429 76.7779C109.361 76.4322 109.396 76.074 109.531 75.7483C109.665 75.4232 109.893 75.1452 110.186 74.9497C110.48 74.7564 110.824 74.6528 111.176 74.6515C111.411 74.6524 111.644 74.7 111.86 74.7914C112.077 74.8827 112.273 75.0162 112.438 75.1839C112.774 75.5166 112.965 75.968 112.97 76.4405L112.96 76.4299Z" fill="url(#paint31_linear_266_336)"/>
<path d="M141.817 -51.0057V-14.6077L151.934 -4.49126V39.6112" stroke="url(#paint32_linear_266_336)" stroke-width="0.798669" stroke-miterlimit="10"/>
<path d="M150.156 39.51C150.155 39.8607 150.258 40.2038 150.454 40.495C150.651 40.7878 150.928 41.0172 151.253 41.1553C151.58 41.287 151.939 41.3221 152.286 41.2564C152.617 41.1908 152.923 41.0323 153.168 40.7993C153.413 40.5664 153.587 40.2686 153.67 39.9406C153.752 39.6127 153.739 39.2681 153.633 38.9471C153.527 38.626 153.332 38.3417 153.07 38.1274C152.809 37.913 152.492 37.7773 152.156 37.7362C151.821 37.695 151.48 37.7502 151.175 37.8951C150.869 38.04 150.611 38.2687 150.431 38.5546C150.251 38.8406 150.155 39.1719 150.156 39.51Z" fill="url(#paint33_linear_266_336)"/>
<path d="M28.8014 12.4884V30.6395" stroke="url(#paint34_linear_266_336)" stroke-width="0.798669" stroke-miterlimit="10"/>
<path d="M27.0174 30.549C27.0184 30.8961 27.1222 31.2352 27.3156 31.5234C27.512 31.8164 27.7908 32.0446 28.1168 32.1792C28.4428 32.3137 28.8014 32.3486 29.1472 32.2795C29.4929 32.2143 29.8105 32.0452 30.0577 31.7949C30.3028 31.5461 30.4689 31.2304 30.5352 30.8875C30.6015 30.5446 30.565 30.1898 30.4304 29.8675C30.2957 29.541 30.068 29.2614 29.7755 29.0635C29.4809 28.871 29.1371 28.7675 28.7852 28.7653C28.3121 28.7653 27.8584 28.9532 27.5239 29.2878C27.1894 29.6223 27.0015 30.0759 27.0015 30.549H27.0174Z" fill="url(#paint35_linear_266_336)"/>
<path d="M25.2437 -51.0057V2.60624L20.1216 7.71772V85.3004" stroke="url(#paint36_linear_266_336)" stroke-width="0.798669" stroke-miterlimit="10"/>
<path d="M18.3377 85.1886C18.3396 85.54 18.4452 85.883 18.6413 86.1747C18.8374 86.4663 19.1153 86.6935 19.4401 86.8277C19.7649 86.9619 20.122 86.9972 20.4668 86.9292C20.8116 86.8611 21.1286 86.6927 21.378 86.4451C21.6257 86.1958 21.7943 85.8788 21.8625 85.534C21.9307 85.1892 21.8955 84.8319 21.7613 84.507C21.6024 84.1275 21.3172 83.8146 20.954 83.6214C20.5908 83.4281 20.1719 83.3663 19.7684 83.4465C19.3648 83.5267 19.0014 83.744 18.7397 84.0615C18.478 84.3789 18.3341 84.7771 18.3324 85.1886H18.3377Z" fill="url(#paint37_linear_266_336)"/>
<path d="M31.0859 -51.0057V-14.4906L37.4753 -4.848V51.0588" stroke="url(#paint38_linear_266_336)" stroke-width="0.798669" stroke-miterlimit="10"/>
<path d="M35.6655 50.9522C35.664 51.3051 35.7682 51.6504 35.9646 51.9436C36.161 52.2368 36.4407 52.4645 36.7677 52.5974C37.0926 52.7316 37.4498 52.7668 37.7947 52.6986C38.1395 52.6304 38.4565 52.4618 38.7058 52.2141C38.9561 51.9653 39.1267 51.6476 39.196 51.3015C39.2652 50.9554 39.2298 50.5966 39.0945 50.2706C38.9543 49.9426 38.7187 49.6643 38.4183 49.472C38.124 49.2787 37.78 49.1751 37.4279 49.1738C36.9558 49.1738 36.5029 49.361 36.1685 49.6943C35.8342 50.0277 35.6456 50.48 35.6442 50.9522H35.6655Z" fill="url(#paint39_linear_266_336)"/>
<path d="M212.969 -51.0057V-37.4816H231.759V66.5157" stroke="url(#paint40_linear_266_336)" stroke-width="0.798669" stroke-miterlimit="10"/>
<path d="M229.981 66.4199C229.982 66.7722 230.088 67.1162 230.284 67.4089C230.48 67.7016 230.758 67.9299 231.083 68.0651C231.408 68.202 231.766 68.2373 232.111 68.1663C232.457 68.099 232.776 67.9303 233.027 67.6818C233.273 67.4317 233.441 67.1153 233.511 66.7713C233.581 66.426 233.547 66.0678 233.413 65.7418C233.28 65.4158 233.053 65.1367 232.761 64.9397C232.466 64.7464 232.122 64.6428 231.77 64.6415C231.537 64.6424 231.305 64.6876 231.089 64.7746C230.872 64.8649 230.674 64.997 230.508 65.1633C230.343 65.3273 230.213 65.5228 230.125 65.7384C230.034 65.9542 229.987 66.1858 229.987 66.4199H229.981Z" fill="url(#paint41_linear_266_336)"/>
<path d="M224.561 82.4251V5.65176L212.591 17.5999V98.079" stroke="url(#paint42_linear_266_336)" stroke-width="0.798669" stroke-miterlimit="10"/>
<path d="M226.371 82.3294C226.373 82.6823 226.269 83.0276 226.072 83.3208C225.876 83.6141 225.596 83.8418 225.269 83.9746C224.945 84.1115 224.587 84.1468 224.242 84.0758C223.895 84.0085 223.576 83.8399 223.326 83.5913C223.078 83.3411 222.909 83.0232 222.841 82.6775C222.772 82.3317 222.808 81.9735 222.943 81.6479C223.077 81.3227 223.305 81.0448 223.597 80.8492C223.892 80.6559 224.236 80.5523 224.588 80.551C225.06 80.551 225.513 80.7382 225.847 81.0716C226.182 81.4049 226.37 81.8573 226.371 82.3294Z" fill="url(#paint43_linear_266_336)"/>
<path d="M210.807 98.0152C210.809 98.3681 210.914 98.7126 211.111 99.0056C211.31 99.2954 211.587 99.5226 211.91 99.6605C212.236 99.7952 212.594 99.8301 212.94 99.7609C213.286 99.6917 213.604 99.5215 213.853 99.2718C214.103 99.0246 214.272 98.707 214.338 98.3613C214.411 98.0166 214.376 97.6575 214.236 97.3337C214.103 97.0077 213.875 96.7294 213.582 96.5351C213.289 96.3379 212.944 96.2322 212.591 96.2316C212.119 96.2377 211.668 96.4289 211.335 96.764C211.167 96.9289 211.034 97.1252 210.942 97.3418C210.851 97.5584 210.803 97.7908 210.802 98.0259L210.807 98.0152Z" fill="url(#paint44_linear_266_336)"/>
<path d="M194.702 77.7716V5.04485L214.264 -14.4906L214.871 -27.7059H224.562V-10.9232L203.967 9.64518V55.1267" stroke="url(#paint45_linear_266_336)" stroke-width="0.798669" stroke-miterlimit="10"/>
<path d="M196.485 77.681C196.484 78.0329 196.379 78.3767 196.184 78.6691C195.988 78.9615 195.71 79.1895 195.385 79.3244C195.06 79.4593 194.702 79.4951 194.357 79.4272C194.012 79.3593 193.694 79.1908 193.445 78.9429C193.258 78.7567 193.116 78.5316 193.027 78.2837C192.938 78.0357 192.905 77.7712 192.93 77.509C192.956 77.2469 193.039 76.9936 193.174 76.7674C193.309 76.5412 193.492 76.3477 193.711 76.2008C194.004 76.0052 194.349 75.9014 194.701 75.9027C194.937 75.9015 195.17 75.9468 195.388 76.0358C195.603 76.1256 195.798 76.2557 195.963 76.4191C196.128 76.5862 196.26 76.7832 196.352 76.9995C196.441 77.2157 196.486 77.4473 196.485 77.681Z" fill="url(#paint46_linear_266_336)"/>
<path d="M202.193 55.0308C202.189 55.3836 202.293 55.7292 202.491 56.0212C202.688 56.314 202.965 56.5433 203.29 56.6814C203.615 56.8157 203.972 56.8509 204.317 56.7826C204.663 56.7129 204.981 56.5446 205.233 56.2981C205.483 56.0493 205.654 55.7317 205.724 55.3855C205.793 55.0394 205.758 54.6804 205.622 54.3544C205.487 54.0284 205.258 53.75 204.964 53.5547C204.67 53.3594 204.324 53.256 203.971 53.2578C203.737 53.254 203.505 53.2993 203.29 53.3909C202.855 53.5716 202.509 53.9158 202.326 54.3493C202.237 54.5654 202.192 54.7971 202.193 55.0308Z" fill="url(#paint47_linear_266_336)"/>
<path d="M480.934 -44.0839V-2.99507L490.411 11.4555V32.3114L473.298 43.152V102.749L481.855 115.256V150.679" stroke="url(#paint48_linear_266_336)" stroke-width="0.798669" stroke-miterlimit="10"/>
<path d="M480.071 150.594C480.071 150.947 480.175 151.292 480.371 151.586C480.567 151.879 480.846 152.108 481.172 152.243C481.498 152.378 481.857 152.414 482.203 152.345C482.549 152.276 482.867 152.106 483.116 151.856C483.363 151.606 483.531 151.29 483.601 150.946C483.67 150.601 483.635 150.243 483.5 149.918C483.365 149.593 483.137 149.315 482.845 149.119C482.552 148.922 482.207 148.817 481.855 148.816C481.38 148.821 480.927 149.012 480.593 149.348C480.256 149.68 480.064 150.132 480.06 150.605L480.071 150.594Z" fill="url(#paint49_linear_266_336)"/>
<path d="M470.301 -44.0839V-2.75547L479.959 11.94L479.784 30.6023L462.665 41.8635V102.749L471.222 115.256V169.863" stroke="url(#paint50_linear_266_336)" stroke-width="0.798669" stroke-miterlimit="10"/>
<path d="M469.438 169.778C469.44 170.13 469.546 170.473 469.742 170.764C469.938 171.056 470.216 171.283 470.54 171.418C470.864 171.557 471.222 171.594 471.568 171.525C471.827 171.475 472.072 171.368 472.284 171.211C472.496 171.055 472.671 170.853 472.796 170.62C472.92 170.388 472.991 170.13 473.004 169.867C473.016 169.603 472.969 169.34 472.867 169.097C472.734 168.771 472.506 168.492 472.212 168.298C471.919 168.101 471.575 167.995 471.222 167.995C470.747 167.999 470.294 168.191 469.96 168.527C469.625 168.863 469.434 169.315 469.427 169.789L469.438 169.778Z" fill="url(#paint51_linear_266_336)"/>
<path d="M459.508 -44.0839V-2.75547L469.167 11.94L468.991 30.6023L451.873 41.8635V101.056" stroke="url(#paint52_linear_266_336)" stroke-width="0.798669" stroke-miterlimit="10"/>
<path d="M450.089 100.97C450.091 101.322 450.197 101.665 450.393 101.956C450.589 102.248 450.867 102.475 451.191 102.61C451.516 102.747 451.874 102.782 452.219 102.711C452.565 102.646 452.883 102.477 453.133 102.229C453.382 101.98 453.552 101.662 453.619 101.316C453.69 100.972 453.655 100.613 453.518 100.289C453.386 99.9619 453.158 99.6832 452.863 99.4901C452.57 99.2929 452.226 99.1873 451.873 99.1866C451.638 99.1871 451.406 99.2344 451.191 99.3259C450.975 99.4173 450.779 99.551 450.616 99.7191C450.449 99.884 450.315 100.08 450.224 100.297C450.133 100.513 450.085 100.746 450.084 100.981L450.089 100.97Z" fill="url(#paint53_linear_266_336)"/>
<path d="M425.842 43.9134V-10.4387L417.285 -22.9511V-44.0839" stroke="url(#paint54_linear_266_336)" stroke-width="0.798669" stroke-miterlimit="10"/>
<path d="M423.791 43.8122C423.791 44.2176 423.911 44.614 424.136 44.9511C424.361 45.2882 424.682 45.5509 425.056 45.7061C425.431 45.8612 425.843 45.9018 426.241 45.8227C426.638 45.7436 427.003 45.5484 427.29 45.2617C427.577 44.975 427.772 44.6097 427.851 44.2121C427.93 43.8145 427.89 43.4023 427.734 43.0277C427.579 42.6531 427.317 42.333 426.979 42.1077C426.642 41.8825 426.246 41.7623 425.841 41.7623C425.297 41.7623 424.776 41.9782 424.391 42.3627C424.007 42.7471 423.791 43.2685 423.791 43.8122Z" fill="url(#paint55_linear_266_336)"/>
<path d="M426.598 -44.0839V-22.9511L435.154 -10.4387V45.8568L443.386 54.0778V82.2974L435.585 90.0924V118.2" stroke="url(#paint56_linear_266_336)" stroke-width="0.798669" stroke-miterlimit="10"/>
<path d="M433.541 118.115C433.541 118.521 433.662 118.917 433.887 119.255C434.113 119.592 434.433 119.855 434.808 120.011C435.18 120.159 435.587 120.194 435.979 120.113C436.372 120.032 436.731 119.838 437.015 119.555C437.298 119.272 437.492 118.912 437.573 118.52C437.654 118.128 437.618 117.721 437.47 117.348C437.312 116.975 437.05 116.655 436.714 116.427C436.318 116.166 435.844 116.048 435.372 116.095C434.9 116.141 434.458 116.349 434.121 116.683C433.931 116.874 433.781 117.1 433.679 117.348C433.575 117.596 433.523 117.862 433.525 118.131L433.541 118.115Z" fill="url(#paint57_linear_266_336)"/>
<path d="M453.889 -44.0839V21.0928" stroke="url(#paint58_linear_266_336)" stroke-width="0.798669" stroke-miterlimit="10"/>
<path d="M452.128 21.0023C452.124 21.3508 452.223 21.6928 452.412 21.9854C452.602 22.2781 452.873 22.5084 453.193 22.6476C453.517 22.7839 453.874 22.8214 454.219 22.7553C454.565 22.6892 454.883 22.5225 455.134 22.2761C455.385 22.0297 455.557 21.7147 455.63 21.3706C455.702 21.0265 455.671 20.6687 455.541 20.3421C455.403 20.0175 455.173 19.7401 454.88 19.5434C454.612 19.3657 454.301 19.2638 453.979 19.2487C453.658 19.2336 453.338 19.3057 453.054 19.4574C452.771 19.6091 452.533 19.8348 452.367 20.1106C452.201 20.3863 452.113 20.7018 452.112 21.0236L452.128 21.0023Z" fill="url(#paint59_linear_266_336)"/>
<path d="M388.198 65.0675V10.6941L396.754 -1.81837V-44.0839" stroke="url(#paint60_linear_266_336)" stroke-width="0.798669" stroke-miterlimit="10"/>
<path d="M390.247 64.945C390.249 65.3502 390.13 65.7468 389.906 66.0844C389.679 66.4204 389.359 66.6831 388.985 66.8405C388.61 66.9965 388.197 67.0373 387.799 66.9576C387.401 66.878 387.035 66.6815 386.749 66.3932C386.457 66.1036 386.26 65.7323 386.185 65.3283C386.114 64.9643 386.144 64.588 386.27 64.2393C386.396 63.8907 386.615 63.5827 386.902 63.348C387.189 63.1134 387.534 62.9607 387.901 62.9063C388.268 62.8518 388.642 62.8976 388.985 63.0388C389.233 63.1428 389.459 63.2928 389.651 63.4808C390.033 63.8659 390.247 64.3865 390.247 64.929V64.945Z" fill="url(#paint61_linear_266_336)"/>
<path d="M379.635 77.6758V10.6941L388.197 -1.81836V-44.0839" stroke="url(#paint62_linear_266_336)" stroke-width="0.798669" stroke-miterlimit="10"/>
<path d="M381.691 77.5746C381.688 77.9793 381.567 78.3743 381.342 78.7105C381.116 79.0466 380.797 79.309 380.423 79.4648C380.048 79.6201 379.635 79.6608 379.236 79.5819C378.833 79.5081 378.461 79.3131 378.171 79.0228C377.955 78.8097 377.789 78.5507 377.685 78.265C377.582 77.9793 377.544 77.674 377.574 77.3716C377.604 77.0693 377.702 76.7775 377.859 76.5178C378.017 76.2581 378.231 76.037 378.485 75.8708C378.822 75.6437 379.219 75.5231 379.625 75.5247C379.894 75.5238 380.161 75.5766 380.409 75.6799C380.658 75.7832 380.884 75.935 381.073 76.1263C381.454 76.5125 381.67 77.032 381.675 77.5746H381.691Z" fill="url(#paint63_linear_266_336)"/>
<path d="M499.484 -44.0839V35.0961L480.162 48.1836" stroke="url(#paint64_linear_266_336)" stroke-width="0.798669" stroke-miterlimit="10"/>
<path d="M479.236 46.6554C479.017 46.803 478.835 46.9972 478.701 47.2241C478.567 47.4509 478.485 47.7047 478.461 47.9671C478.437 48.2296 478.471 48.494 478.562 48.7414C478.653 48.9888 478.798 49.2129 478.986 49.3975C479.236 49.6461 479.555 49.8147 479.901 49.882C480.249 49.9468 480.608 49.9079 480.934 49.7702C481.165 49.6742 481.373 49.5307 481.545 49.349C481.717 49.1674 481.848 48.9517 481.931 48.7159C482.014 48.4801 482.047 48.2295 482.027 47.9804C482.007 47.7312 481.935 47.489 481.815 47.2695C481.695 47.0501 481.531 46.8582 481.332 46.7064C481.134 46.5546 480.905 46.4462 480.662 46.3883C480.419 46.3304 480.166 46.3242 479.921 46.3703C479.675 46.4163 479.442 46.5134 479.236 46.6554Z" fill="url(#paint65_linear_266_336)"/>
<path d="M506.49 -44.0839V41.954L479.096 59.4928V89.3843" stroke="url(#paint66_linear_266_336)" stroke-width="0.798669" stroke-miterlimit="10"/>
<path d="M477.317 89.2991C477.317 89.6505 477.423 89.9938 477.621 90.2841C477.816 90.578 478.094 90.8076 478.42 90.9444C478.745 91.0759 479.102 91.1111 479.447 91.0455C479.793 90.9772 480.111 90.8077 480.36 90.5583C480.61 90.309 480.779 89.9911 480.848 89.6452C480.916 89.3001 480.881 88.9424 480.747 88.6173C480.612 88.2922 480.384 88.0144 480.091 87.8189C479.823 87.6378 479.511 87.5333 479.188 87.5164C478.865 87.4996 478.544 87.5712 478.259 87.7234C477.973 87.8757 477.735 88.1028 477.569 88.3805C477.403 88.6581 477.316 88.9757 477.317 89.2991Z" fill="url(#paint67_linear_266_336)"/>
<path d="M497.7 100.97C497.701 101.233 497.761 101.492 497.874 101.73C497.987 101.967 498.151 102.176 498.355 102.343C498.558 102.509 498.796 102.628 499.051 102.692C499.306 102.756 499.572 102.762 499.83 102.711C500.176 102.644 500.495 102.475 500.746 102.227C500.931 102.04 501.072 101.815 501.16 101.568C501.248 101.32 501.28 101.056 501.254 100.795C501.228 100.533 501.145 100.281 501.01 100.055C500.875 99.8296 500.692 99.6367 500.474 99.4901C500.181 99.2929 499.837 99.1873 499.484 99.1866C499.249 99.1871 499.017 99.2344 498.802 99.3259C498.586 99.4173 498.391 99.551 498.227 99.7191C498.06 99.884 497.926 100.08 497.835 100.297C497.744 100.513 497.696 100.746 497.695 100.981L497.7 100.97Z" fill="url(#paint68_linear_266_336)"/>
<path d="M521.219 5.50266V80.6254" stroke="url(#paint69_linear_266_336)" stroke-width="0.798669" stroke-miterlimit="10"/>
<path d="M489.719 83.4421V64.3433L508.243 52.8212" stroke="url(#paint70_linear_266_336)" stroke-width="0.798669" stroke-miterlimit="10"/>
<path d="M491.53 83.3517C491.529 83.7035 491.424 84.0473 491.228 84.3397C491.032 84.6322 490.755 84.8602 490.43 84.9951C490.105 85.13 489.747 85.1657 489.402 85.0978C489.056 85.0299 488.739 84.8615 488.489 84.6136C488.241 84.3668 488.07 84.052 488 83.7088C487.93 83.3657 487.962 83.0093 488.094 82.6846C488.225 82.3598 488.449 82.0811 488.739 81.8834C489.028 81.6857 489.369 81.5778 489.719 81.5733C490.191 81.5733 490.644 81.7605 490.979 82.0939C491.313 82.4272 491.502 82.8795 491.503 83.3517H491.53Z" fill="url(#paint71_linear_266_336)"/>
<path d="M520.387 -44.0839V-7.68592L530.503 2.43055V46.533" stroke="url(#paint72_linear_266_336)" stroke-width="0.798669" stroke-miterlimit="10"/>
<path d="M528.726 46.4318C528.728 46.7822 528.831 47.1245 529.024 47.4169C529.22 47.7108 529.499 47.9401 529.825 48.0756C530.151 48.2112 530.51 48.2469 530.856 48.1782C531.114 48.1266 531.358 48.0184 531.569 47.8615C531.78 47.7046 531.954 47.5029 532.079 47.2708C532.203 47.0387 532.274 46.782 532.287 46.5191C532.301 46.2563 532.255 45.9937 532.155 45.7503C532.022 45.4243 531.794 45.146 531.5 44.9516C531.232 44.7706 530.92 44.666 530.597 44.6492C530.274 44.6323 529.953 44.7039 529.668 44.8561C529.382 45.0084 529.144 45.2356 528.978 45.5132C528.812 45.7908 528.725 46.1084 528.726 46.4318Z" fill="url(#paint73_linear_266_336)"/>
<path d="M528.396 -44.0839V-15.5501L539.119 -4.83733L538.677 14.9377" stroke="url(#paint74_linear_266_336)" stroke-width="0.798669" stroke-miterlimit="10"/>
<path d="M536.899 14.8098C536.894 15.1615 536.99 15.5072 537.176 15.8055C537.367 16.1034 537.641 16.3386 537.964 16.4817C538.288 16.6205 538.645 16.663 538.992 16.6042C539.338 16.5417 539.658 16.3788 539.913 16.1356C540.177 15.8958 540.362 15.5823 540.445 15.2358C540.501 14.9784 540.499 14.712 540.44 14.4554C540.381 14.1988 540.266 13.9584 540.103 13.7514C539.94 13.5445 539.734 13.3759 539.499 13.2579C539.263 13.1399 539.005 13.0753 538.742 13.0687C538.508 13.0635 538.277 13.1052 538.06 13.1912C537.84 13.2749 537.639 13.4016 537.469 13.5639C537.3 13.7261 537.165 13.9196 537.07 14.1336C536.978 14.3475 536.927 14.577 536.921 14.8098H536.899Z" fill="url(#paint75_linear_266_336)"/>
<path d="M407.371 19.4102V37.5613" stroke="url(#paint76_linear_266_336)" stroke-width="0.798669" stroke-miterlimit="10"/>
<path d="M405.587 37.4709C405.59 37.8223 405.697 38.1649 405.893 38.456C406.09 38.7472 406.368 38.9739 406.693 39.1079C407.018 39.2419 407.375 39.2773 407.72 39.2097C408.065 39.142 408.382 38.9743 408.632 38.7275C408.88 38.4781 409.049 38.1611 409.117 37.8163C409.185 37.4715 409.15 37.1142 409.016 36.7894C408.883 36.4617 408.655 36.1816 408.361 35.9854C408.066 35.7921 407.722 35.6885 407.37 35.6872C407.135 35.6881 406.903 35.7357 406.686 35.8271C406.469 35.9185 406.273 36.0519 406.108 36.2196C405.772 36.554 405.581 37.0073 405.576 37.4815L405.587 37.4709Z" fill="url(#paint77_linear_266_336)"/>
<path d="M445.313 -44.0839V14.2775" stroke="url(#paint78_linear_266_336)" stroke-width="0.798669" stroke-miterlimit="10"/>
<path d="M443.529 14.187C443.53 14.5393 443.635 14.8833 443.832 15.176C444.028 15.4687 444.306 15.697 444.631 15.8323C444.957 15.9671 445.315 16.0025 445.661 15.934C446.006 15.8654 446.324 15.696 446.573 15.4471C446.823 15.1981 446.993 14.8809 447.063 14.5353C447.132 14.1897 447.097 13.8314 446.963 13.5055C446.825 13.1809 446.596 12.9035 446.303 12.7068C445.96 12.4791 445.549 12.377 445.14 12.4178C444.73 12.4586 444.347 12.6397 444.056 12.9304C443.721 13.2635 443.53 13.7146 443.524 14.187H443.529Z" fill="url(#paint79_linear_266_336)"/>
<path d="M403.814 -44.0839V9.52806L398.697 14.6395V92.2222" stroke="url(#paint80_linear_266_336)" stroke-width="0.798669" stroke-miterlimit="10"/>
<path d="M396.914 92.1104C396.912 92.4628 397.016 92.8076 397.212 93.1008C397.408 93.3938 397.687 93.622 398.013 93.7565C398.339 93.8911 398.698 93.926 399.043 93.8569C399.389 93.7873 399.706 93.6168 399.954 93.367C400.205 93.1195 400.375 92.8023 400.444 92.4565C400.514 92.0827 400.463 91.6961 400.298 91.3532C400.134 91.0104 399.863 90.7292 399.527 90.5508C399.191 90.3724 398.807 90.3061 398.431 90.3616C398.054 90.417 397.706 90.5914 397.435 90.8592C397.267 91.0225 397.134 91.2179 397.042 91.4337C396.951 91.6495 396.903 91.8814 396.903 92.1158L396.914 92.1104Z" fill="url(#paint81_linear_266_336)"/>
<path d="M409.66 -44.0839V-7.56878L416.018 2.07381V57.9806" stroke="url(#paint82_linear_266_336)" stroke-width="0.798669" stroke-miterlimit="10"/>
<path d="M414.233 57.8741C414.234 58.2264 414.339 58.5705 414.535 58.8632C414.732 59.1559 415.01 59.3841 415.335 59.5194C415.661 59.6564 416.021 59.6916 416.368 59.6206C416.713 59.552 417.03 59.383 417.279 59.1348C417.528 58.8865 417.698 58.5702 417.768 58.2255C417.834 57.8786 417.799 57.5202 417.667 57.1926C417.531 56.8675 417.301 56.5899 417.008 56.3947C416.714 56.1996 416.369 56.0956 416.017 56.0958C415.782 56.0962 415.55 56.1436 415.334 56.235C415.119 56.3264 414.923 56.4601 414.76 56.6282C414.425 56.9612 414.234 57.4124 414.228 57.8848L414.233 57.8741Z" fill="url(#paint83_linear_266_336)"/>
<path d="M643.329 -46.2137V-5.1248L652.806 9.32578V30.1817L635.688 41.0223V100.619L644.25 113.126V148.55" stroke="url(#paint84_linear_266_336)" stroke-width="0.798669" stroke-miterlimit="10"/>
<path d="M632.696 -46.2137V-4.8852L642.355 9.81031L642.179 28.4725L625.061 39.7338V100.619L633.617 113.126V167.734" stroke="url(#paint85_linear_266_336)" stroke-width="0.798669" stroke-miterlimit="10"/>
<path d="M631.835 167.649C631.837 168 631.943 168.343 632.139 168.634C632.335 168.926 632.612 169.154 632.937 169.288C633.261 169.427 633.619 169.464 633.965 169.395C634.311 169.325 634.63 169.155 634.88 168.905C635.128 168.656 635.297 168.339 635.365 167.994C635.433 167.649 635.398 167.292 635.264 166.967C635.131 166.641 634.902 166.363 634.609 166.168C634.34 165.989 634.028 165.886 633.706 165.87C633.384 165.854 633.063 165.926 632.779 166.078C632.494 166.23 632.256 166.456 632.09 166.733C631.923 167.009 631.835 167.326 631.835 167.649Z" fill="url(#paint86_linear_266_336)"/>
<path d="M621.904 -46.2137V-4.8852L631.562 9.81031L631.387 28.4725L614.268 39.7338V98.9258" stroke="url(#paint87_linear_266_336)" stroke-width="0.798669" stroke-miterlimit="10"/>
<path d="M612.485 98.8404C612.487 99.1918 612.593 99.5347 612.789 99.8264C612.985 100.118 613.263 100.345 613.587 100.48C613.912 100.617 614.27 100.653 614.615 100.582C614.961 100.516 615.279 100.347 615.529 100.099C615.779 99.8502 615.948 99.5324 616.015 99.1865C616.086 98.8416 616.051 98.4833 615.914 98.1589C615.782 97.832 615.554 97.5533 615.259 97.3602C614.917 97.1295 614.505 97.0251 614.094 97.065C613.683 97.1048 613.299 97.2864 613.007 97.5785C612.67 97.9129 612.479 98.3662 612.474 98.8404H612.485Z" fill="url(#paint88_linear_266_336)"/>
<path d="M588.237 41.7837V-12.5684L579.681 -25.0809V-46.2137" stroke="url(#paint89_linear_266_336)" stroke-width="0.798669" stroke-miterlimit="10"/>
<path d="M586.186 41.6825C586.186 42.0879 586.307 42.4843 586.532 42.8214C586.757 43.1585 587.077 43.4212 587.452 43.5764C587.826 43.7315 588.239 43.7721 588.636 43.693C589.034 43.6139 589.399 43.4187 589.686 43.132C589.972 42.8453 590.168 42.48 590.247 42.0824C590.326 41.6848 590.285 41.2726 590.13 40.898C589.975 40.5234 589.712 40.2033 589.375 39.978C589.038 39.7528 588.642 39.6326 588.236 39.6326C587.693 39.6326 587.171 39.8485 586.787 40.233C586.402 40.6174 586.186 41.1388 586.186 41.6825Z" fill="url(#paint90_linear_266_336)"/>
<path d="M588.992 -46.2137V-25.0809L597.549 -12.5684V43.7271L605.78 51.9481V80.1677L597.98 87.9627V116.071" stroke="url(#paint91_linear_266_336)" stroke-width="0.798669" stroke-miterlimit="10"/>
<path d="M595.937 115.985C595.938 116.391 596.058 116.788 596.284 117.125C596.509 117.462 596.83 117.725 597.204 117.881C597.576 118.029 597.984 118.065 598.376 117.984C598.768 117.903 599.128 117.709 599.411 117.426C599.694 117.142 599.888 116.782 599.969 116.39C600.05 115.998 600.014 115.591 599.867 115.219C599.736 114.908 599.531 114.634 599.27 114.421C599.009 114.208 598.699 114.062 598.369 113.996C598.038 113.931 597.697 113.947 597.374 114.044C597.051 114.141 596.757 114.316 596.517 114.553C596.328 114.744 596.178 114.97 596.075 115.219C595.972 115.466 595.919 115.733 595.921 116.001L595.937 115.985Z" fill="url(#paint92_linear_266_336)"/>
<path d="M616.287 -46.2137V18.9631" stroke="url(#paint93_linear_266_336)" stroke-width="0.798669" stroke-miterlimit="10"/>
<path d="M614.525 18.8725C614.524 19.2246 614.627 19.5692 614.823 19.8622C615.018 20.1552 615.296 20.3834 615.622 20.5177C615.947 20.6526 616.306 20.688 616.651 20.6195C616.997 20.5509 617.315 20.3815 617.564 20.1326C617.814 19.8836 617.984 19.5663 618.053 19.2208C618.123 18.8752 618.088 18.5169 617.954 18.1909C617.816 17.8664 617.586 17.5889 617.294 17.3923C617.025 17.2145 616.714 17.1127 616.392 17.0976C616.071 17.0824 615.751 17.1546 615.468 17.3063C615.184 17.458 614.946 17.6837 614.78 17.9594C614.614 18.2352 614.526 18.5507 614.525 18.8725Z" fill="url(#paint94_linear_266_336)"/>
<path d="M550.594 62.9377V8.56432L559.15 -3.94816V-46.2137" stroke="url(#paint95_linear_266_336)" stroke-width="0.798669" stroke-miterlimit="10"/>
<path d="M552.649 62.8152C552.648 63.2208 552.528 63.6172 552.303 63.9546C552.076 64.2906 551.756 64.5533 551.382 64.7107C551.007 64.8667 550.594 64.9075 550.195 64.8278C549.797 64.7482 549.432 64.5517 549.145 64.2634C548.854 63.9739 548.657 63.6025 548.581 63.1986C548.511 62.8345 548.541 62.4582 548.667 62.1095C548.793 61.7609 549.011 61.4529 549.298 61.2182C549.585 60.9836 549.931 60.8309 550.297 60.7765C550.664 60.722 551.039 60.7679 551.382 60.909C551.63 61.0131 551.855 61.163 552.047 61.351C552.236 61.5421 552.386 61.7682 552.489 62.0165C552.595 62.264 552.649 62.5302 552.649 62.7992V62.8152Z" fill="url(#paint96_linear_266_336)"/>
<path d="M542.033 75.546V8.56433L550.594 -3.94816V-46.2137" stroke="url(#paint97_linear_266_336)" stroke-width="0.798669" stroke-miterlimit="10"/>
<path d="M544.086 75.4448C544.085 75.7478 544.017 76.0468 543.886 76.3203C543.756 76.5939 543.567 76.8352 543.332 77.027C543.098 77.2189 542.824 77.3564 542.53 77.4299C542.236 77.5034 541.929 77.511 541.632 77.4521C541.228 77.3783 540.857 77.1833 540.567 76.893C540.278 76.6075 540.081 76.2416 540.002 75.8429C539.923 75.4441 539.966 75.0309 540.125 74.6568C540.282 74.2834 540.545 73.9646 540.883 73.7402C541.22 73.5158 541.615 73.3957 542.02 73.3949C542.29 73.394 542.556 73.4468 542.805 73.5501C543.054 73.6534 543.279 73.8052 543.469 73.9965C543.85 74.3827 544.066 74.9022 544.07 75.4448H544.086Z" fill="url(#paint98_linear_266_336)"/>
<path d="M639.714 87.1693C639.714 87.5207 639.82 87.864 640.017 88.1544C640.213 88.4482 640.491 88.6779 640.816 88.8146C641.142 88.9462 641.499 88.9813 641.844 88.9158C642.191 88.8463 642.509 88.6759 642.76 88.4259C643.008 88.1773 643.177 87.8603 643.244 87.5154C643.313 87.1704 643.278 86.8127 643.143 86.4876C643.009 86.1625 642.781 85.8846 642.488 85.6891C642.22 85.5081 641.908 85.4035 641.585 85.3867C641.262 85.3699 640.94 85.4414 640.655 85.5937C640.37 85.7459 640.131 85.9731 639.966 86.2507C639.8 86.5283 639.713 86.8459 639.714 87.1693Z" fill="url(#paint99_linear_266_336)"/>
<path d="M569.767 17.2805V35.4315" stroke="url(#paint100_linear_266_336)" stroke-width="0.798669" stroke-miterlimit="10"/>
<path d="M567.983 35.3411C567.986 35.6925 568.091 36.0354 568.287 36.3271C568.483 36.6187 568.761 36.8462 569.085 36.9811C569.41 37.1163 569.768 37.1521 570.113 37.084C570.459 37.0158 570.776 36.8467 571.025 36.5982C571.274 36.3496 571.444 36.0328 571.513 35.6877C571.582 35.3426 571.547 34.9848 571.412 34.6596C571.28 34.332 571.051 34.0519 570.757 33.8556C570.463 33.6623 570.119 33.5587 569.767 33.5574C569.532 33.5584 569.299 33.6059 569.083 33.6973C568.866 33.7887 568.67 33.9221 568.505 34.0899C568.169 34.4242 567.977 34.8775 567.973 35.3518L567.983 35.3411Z" fill="url(#paint101_linear_266_336)"/>
<path d="M607.707 -46.2137V12.1477" stroke="url(#paint102_linear_266_336)" stroke-width="0.798669" stroke-miterlimit="10"/>
<path d="M605.925 12.0571C605.926 12.41 606.032 12.7547 606.229 13.0474C606.425 13.3399 606.702 13.5679 607.028 13.7023C607.355 13.8365 607.714 13.8716 608.061 13.8035C608.405 13.7337 608.721 13.5654 608.971 13.319C609.221 13.0687 609.391 12.7501 609.461 12.4032C609.529 12.0581 609.494 11.7007 609.36 11.3756C609.222 11.051 608.992 10.7735 608.7 10.5769C608.407 10.3807 608.062 10.2768 607.709 10.2787C607.475 10.2798 607.243 10.3274 607.027 10.4188C606.812 10.5102 606.616 10.6436 606.453 10.8112C606.117 11.1442 605.926 11.5953 605.92 12.0677L605.925 12.0571Z" fill="url(#paint103_linear_266_336)"/>
<path d="M566.21 -46.2137V7.39827L561.093 12.5097V90.0924" stroke="url(#paint104_linear_266_336)" stroke-width="0.798669" stroke-miterlimit="10"/>
<path d="M559.309 89.9807C559.308 90.3331 559.412 90.6779 559.607 90.971C559.805 91.263 560.084 91.4904 560.409 91.6248C560.735 91.7593 561.093 91.7949 561.439 91.7271C561.784 91.6569 562.101 91.4866 562.35 91.2376C562.599 90.9886 562.769 90.6719 562.839 90.3268C562.91 89.9529 562.859 89.5663 562.694 89.2235C562.529 88.8806 562.259 88.5995 561.923 88.4211C561.587 88.2427 561.203 88.1764 560.826 88.2318C560.45 88.2873 560.101 88.4617 559.831 88.7294C559.663 88.8928 559.529 89.0881 559.438 89.3039C559.346 89.5197 559.299 89.7516 559.299 89.986L559.309 89.9807Z" fill="url(#paint105_linear_266_336)"/>
<path d="M572.056 -46.2137V-9.69851L578.413 -0.0559165V55.8509" stroke="url(#paint106_linear_266_336)" stroke-width="0.798669" stroke-miterlimit="10"/>
<path d="M576.63 55.7444C576.632 56.0967 576.737 56.4408 576.933 56.7335C577.129 57.0262 577.407 57.2544 577.733 57.3897C578.059 57.5267 578.419 57.5619 578.766 57.4909C579.024 57.4401 579.268 57.3324 579.48 57.1757C579.692 57.019 579.866 56.8172 579.991 56.5849C580.115 56.3525 580.186 56.0954 580.199 55.8322C580.212 55.569 580.166 55.3062 580.065 55.0629C579.928 54.7378 579.699 54.4602 579.405 54.265C579.111 54.0699 578.767 53.9659 578.414 53.9661C578.18 53.9665 577.948 54.0139 577.732 54.1053C577.516 54.1967 577.321 54.3304 577.158 54.4985C576.822 54.8315 576.631 55.2827 576.625 55.7551L576.63 55.7444Z" fill="url(#paint107_linear_266_336)"/>
<path d="M404.58 0.109039V65.2858" stroke="url(#paint108_linear_266_336)" stroke-width="0.798669" stroke-miterlimit="10"/>
<path d="M358.981 0.109039V79.2891L378.303 92.3766" stroke="url(#paint109_linear_266_336)" stroke-width="0.798669" stroke-miterlimit="10"/>
<path d="M379.23 90.8485C379.524 91.0451 379.752 91.3252 379.885 91.6526C380.018 91.98 380.049 92.3398 379.976 92.6854C379.907 93.0305 379.734 93.3462 379.481 93.5906C379.23 93.8376 378.911 94.0048 378.565 94.0711C378.22 94.1375 377.862 94.0999 377.537 93.9633C377.213 93.8266 376.936 93.597 376.742 93.3032C376.547 93.0095 376.444 92.6648 376.446 92.3127C376.451 91.9597 376.558 91.6157 376.755 91.3223C377.022 90.9337 377.432 90.6661 377.895 90.5774C378.359 90.4887 378.838 90.5861 379.23 90.8485Z" fill="url(#paint110_linear_266_336)"/>
<path d="M351.98 0.109039V86.147L379.369 103.686V133.577" stroke="url(#paint111_linear_266_336)" stroke-width="0.798669" stroke-miterlimit="10"/>
<path d="M381.148 133.492C381.15 133.843 381.046 134.186 380.85 134.477C380.653 134.77 380.376 134.999 380.051 135.137C379.724 135.269 379.365 135.304 379.018 135.239C378.687 135.173 378.38 135.015 378.135 134.782C377.89 134.549 377.717 134.251 377.634 133.923C377.552 133.595 377.565 133.25 377.671 132.929C377.777 132.608 377.972 132.324 378.233 132.11C378.495 131.895 378.812 131.76 379.147 131.718C379.483 131.677 379.823 131.732 380.129 131.877C380.434 132.022 380.692 132.251 380.873 132.537C381.053 132.823 381.149 133.154 381.148 133.492Z" fill="url(#paint112_linear_266_336)"/>
<path d="M275.888 0.109039V33.5413L293.336 50.9683V110.73" stroke="url(#paint113_linear_266_336)" stroke-width="0.798669" stroke-miterlimit="10"/>
<path d="M295.088 110.645C295.088 110.997 294.983 111.341 294.787 111.633C294.591 111.925 294.312 112.152 293.985 112.285C293.661 112.42 293.303 112.456 292.958 112.388C292.612 112.32 292.295 112.151 292.046 111.902C291.797 111.653 291.627 111.337 291.558 110.991C291.489 110.646 291.524 110.289 291.659 109.963C291.792 109.637 292.02 109.359 292.314 109.165C292.582 108.984 292.894 108.879 293.217 108.862C293.54 108.845 293.861 108.917 294.146 109.069C294.432 109.221 294.67 109.449 294.836 109.726C295.002 110.004 295.089 110.321 295.088 110.645Z" fill="url(#paint114_linear_266_336)"/>
<path d="M294.428 0.109039V30.6927L311.435 47.6778V92.4032L326.54 107.487L327.903 147.953" stroke="url(#paint115_linear_266_336)" stroke-width="0.798669" stroke-miterlimit="10"/>
<path d="M329.666 147.82C329.676 148.172 329.582 148.518 329.395 148.816C329.21 149.116 328.939 149.353 328.617 149.498C328.298 149.644 327.942 149.692 327.595 149.636C327.247 149.577 326.923 149.418 326.663 149.178C326.401 148.939 326.216 148.628 326.131 148.284C326.071 148.027 326.068 147.76 326.124 147.503C326.18 147.245 326.292 147.004 326.452 146.795C326.613 146.586 326.818 146.415 327.052 146.295C327.287 146.175 327.545 146.109 327.808 146.101C328.042 146.089 328.276 146.127 328.495 146.212C328.714 146.294 328.915 146.419 329.086 146.58C329.258 146.738 329.396 146.93 329.491 147.144C329.586 147.357 329.64 147.587 329.65 147.82H329.666Z" fill="url(#paint116_linear_266_336)"/>
<path d="M302.927 0.109039V25.4641" stroke="url(#paint117_linear_266_336)" stroke-width="0.798669" stroke-miterlimit="10"/>
<path d="M304.709 25.363C304.71 25.6266 304.652 25.887 304.539 26.1254C304.427 26.3638 304.263 26.5741 304.059 26.7413C303.855 26.9084 303.616 27.0282 303.361 27.0918C303.105 27.1555 302.838 27.1615 302.58 27.1094C302.235 27.0392 301.918 26.869 301.669 26.6199C301.42 26.3709 301.25 26.0542 301.179 25.7091C301.128 25.4508 301.135 25.1844 301.199 24.929C301.263 24.6736 301.383 24.4356 301.55 24.232C301.717 24.0284 301.927 23.8643 302.165 23.7514C302.402 23.6386 302.662 23.5798 302.926 23.5793C303.4 23.5841 303.853 23.7754 304.188 24.1118C304.355 24.2765 304.489 24.4728 304.58 24.6894C304.672 24.906 304.719 25.1386 304.72 25.3737L304.709 25.363Z" fill="url(#paint118_linear_266_336)"/>
<path d="M312.461 0.109039V34.931" stroke="url(#paint119_linear_266_336)" stroke-width="0.798669" stroke-miterlimit="10"/>
<path d="M314.225 34.8298C314.231 35.1839 314.129 35.5314 313.932 35.8255C313.737 36.1196 313.459 36.3493 313.133 36.4857C312.807 36.6242 312.448 36.6613 312.1 36.5922C311.753 36.5228 311.435 36.3524 311.185 36.1024C310.933 35.8528 310.763 35.5339 310.695 35.1866C310.628 34.8405 310.666 34.4825 310.802 34.1576C310.939 33.8327 311.168 33.5553 311.461 33.3603C311.803 33.132 312.213 33.0296 312.622 33.0703C313.031 33.1111 313.413 33.2927 313.703 33.5839C313.87 33.7462 314.002 33.9398 314.094 34.1537C314.185 34.3675 314.233 34.5973 314.235 34.8298H314.225Z" fill="url(#paint120_linear_266_336)"/>
<path d="M366.984 0.109039V34.931" stroke="url(#paint121_linear_266_336)" stroke-width="0.798669" stroke-miterlimit="10"/>
<path d="M368.768 34.83C368.767 35.1823 368.662 35.5264 368.466 35.819C368.27 36.1117 367.992 36.34 367.666 36.4753C367.341 36.6105 366.984 36.6463 366.638 36.5782C366.293 36.51 365.976 36.3409 365.727 36.0924C365.478 35.8438 365.308 35.527 365.239 35.1819C365.17 34.8368 365.205 34.479 365.34 34.1538C365.472 33.8262 365.7 33.5461 365.994 33.3498C366.289 33.1565 366.633 33.0529 366.985 33.0516C367.22 33.0526 367.452 33.1001 367.669 33.1915C367.886 33.2829 368.082 33.4163 368.247 33.5841C368.582 33.9168 368.773 34.3681 368.779 34.8407L368.768 34.83Z" fill="url(#paint122_linear_266_336)"/>
<path d="M337.248 49.6957V124.819" stroke="url(#paint123_linear_266_336)" stroke-width="0.798669" stroke-miterlimit="10"/>
<path d="M339.02 124.728C339.021 124.992 338.963 125.252 338.85 125.49C338.737 125.729 338.573 125.939 338.37 126.106C338.166 126.273 337.927 126.393 337.671 126.457C337.416 126.521 337.149 126.527 336.89 126.474C336.545 126.409 336.227 126.24 335.98 125.99C335.73 125.742 335.56 125.425 335.49 125.079C335.438 124.821 335.444 124.554 335.508 124.299C335.571 124.043 335.691 123.804 335.858 123.6C336.025 123.397 336.236 123.232 336.474 123.12C336.713 123.007 336.973 122.949 337.237 122.95C337.472 122.951 337.705 122.996 337.923 123.083C338.138 123.175 338.333 123.306 338.498 123.471C338.665 123.635 338.797 123.831 338.887 124.047C338.976 124.263 339.021 124.494 339.02 124.728Z" fill="url(#paint124_linear_266_336)"/>
<path d="M368.746 127.635V108.531L350.228 97.0143" stroke="url(#paint125_linear_266_336)" stroke-width="0.798669" stroke-miterlimit="10"/>
<path d="M366.963 127.545C366.965 127.897 367.07 128.241 367.266 128.534C367.462 128.826 367.74 129.055 368.066 129.19C368.39 129.326 368.748 129.362 369.093 129.291C369.44 129.224 369.758 129.055 370.009 128.807C370.257 128.556 370.426 128.239 370.494 127.893C370.562 127.547 370.527 127.189 370.392 126.863C370.258 126.538 370.03 126.26 369.737 126.064C369.443 125.871 369.099 125.768 368.747 125.766C368.512 125.767 368.279 125.815 368.063 125.906C367.846 125.998 367.65 126.131 367.485 126.299C367.15 126.631 366.958 127.083 366.953 127.555L366.963 127.545Z" fill="url(#paint126_linear_266_336)"/>
<path d="M338.078 0.109039V36.507L327.962 46.6235V90.7313" stroke="url(#paint127_linear_266_336)" stroke-width="0.798669" stroke-miterlimit="10"/>
<path d="M329.745 90.6248C329.744 90.976 329.638 91.3191 329.441 91.6098C329.244 91.9026 328.967 92.132 328.642 92.2701C328.315 92.4018 327.956 92.4369 327.609 92.3712C327.279 92.3047 326.975 92.146 326.732 91.9134C326.489 91.6809 326.316 91.384 326.235 91.0575C326.154 90.7309 326.167 90.3879 326.273 90.0685C326.379 89.749 326.573 89.4662 326.833 89.2528C327.093 89.0394 327.409 88.9042 327.743 88.863C328.077 88.8217 328.416 88.8761 328.72 89.0198C329.024 89.1635 329.282 89.3906 329.462 89.6747C329.642 89.9588 329.739 90.2882 329.739 90.6248H329.745Z" fill="url(#paint128_linear_266_336)"/>
<path d="M330.075 0.109039V28.6428L319.351 39.3556L319.793 59.1307" stroke="url(#paint129_linear_266_336)" stroke-width="0.798669" stroke-miterlimit="10"/>
<path d="M321.567 59.0029C321.577 59.3552 321.481 59.7024 321.29 59.9986C321.101 60.2961 320.829 60.5314 320.507 60.6748C320.183 60.8132 319.827 60.8558 319.479 60.7972C319.132 60.7346 318.81 60.5717 318.553 60.3287C318.287 60.0908 318.101 59.7765 318.021 59.4289C317.952 59.0865 317.987 58.7315 318.119 58.4085C318.252 58.0855 318.477 57.8088 318.766 57.6132C319.005 57.4436 319.283 57.3362 319.574 57.3009C319.865 57.2655 320.16 57.3034 320.433 57.4109C320.651 57.4933 320.851 57.6202 321.018 57.7836C321.19 57.943 321.326 58.1372 321.418 58.3533C321.512 58.5664 321.563 58.7964 321.567 59.0295V59.0029Z" fill="url(#paint130_linear_266_336)"/>
<path d="M320.961 0.109039V18.2548" stroke="url(#paint131_linear_266_336)" stroke-width="0.798669" stroke-miterlimit="10"/>
<path d="M322.744 18.1644C322.743 18.5167 322.638 18.8607 322.441 19.1534C322.245 19.4461 321.967 19.6744 321.642 19.8097C321.315 19.9438 320.956 19.979 320.609 19.9108C320.264 19.8413 319.947 19.6708 319.699 19.421C319.448 19.1735 319.277 18.8562 319.209 18.5105C319.162 18.2669 319.167 18.0162 319.222 17.7745C319.278 17.5328 319.383 17.3053 319.532 17.1067C319.68 16.908 319.869 16.7425 320.085 16.6207C320.301 16.4989 320.54 16.4235 320.787 16.3994C321.034 16.3752 321.283 16.4028 321.518 16.4803C321.754 16.5579 321.971 16.6838 322.155 16.8499C322.339 17.016 322.487 17.2187 322.588 17.445C322.69 17.6714 322.743 17.9164 322.744 18.1644Z" fill="url(#paint132_linear_266_336)"/>
<path d="M421.412 0.109039V18.2548" stroke="url(#paint133_linear_266_336)" stroke-width="0.798669" stroke-miterlimit="10"/>
<path d="M478.831 0.109039V18.2548" stroke="url(#paint134_linear_266_336)" stroke-width="0.798669" stroke-miterlimit="10"/>
<path d="M451.096 63.6032V81.7543" stroke="url(#paint135_linear_266_336)" stroke-width="0.798669" stroke-miterlimit="10"/>
<path d="M413.153 0.109039V58.4704" stroke="url(#paint136_linear_266_336)" stroke-width="0.798669" stroke-miterlimit="10"/>
<path d="M266.928 0.109039V13.6332H248.138V117.631" stroke="url(#paint137_linear_266_336)" stroke-width="0.798669" stroke-miterlimit="10"/>
<path d="M249.915 117.535C249.914 117.887 249.808 118.231 249.612 118.524C249.416 118.816 249.138 119.045 248.813 119.18C248.488 119.317 248.13 119.352 247.785 119.281C247.439 119.214 247.12 119.045 246.869 118.797C246.623 118.546 246.455 118.23 246.385 117.886C246.316 117.54 246.351 117.182 246.485 116.856C246.62 116.53 246.848 116.251 247.141 116.054C247.435 115.861 247.779 115.758 248.131 115.756C248.365 115.757 248.596 115.802 248.813 115.889C249.03 115.98 249.227 116.112 249.393 116.278C249.558 116.442 249.689 116.638 249.776 116.853C249.867 117.069 249.914 117.301 249.915 117.535Z" fill="url(#paint138_linear_266_336)"/>
<path d="M255.337 0.109039V5.15663H240.961V45.0262" stroke="url(#paint139_linear_266_336)" stroke-width="0.798669" stroke-miterlimit="10"/>
<path d="M242.712 44.9357C242.71 45.2861 242.607 45.6284 242.414 45.9208C242.218 46.2147 241.94 46.444 241.614 46.5795C241.287 46.7151 240.928 46.7508 240.582 46.6822C240.236 46.6139 239.919 46.4432 239.672 46.1923C239.422 45.9443 239.251 45.6276 239.182 45.2824C239.113 44.9373 239.148 44.5793 239.283 44.2542C239.416 43.9282 239.644 43.6499 239.938 43.4555C240.206 43.2745 240.518 43.1699 240.841 43.1531C241.164 43.1362 241.485 43.2078 241.771 43.3601C242.056 43.5123 242.294 43.7395 242.46 44.0171C242.626 44.2947 242.713 44.6123 242.712 44.9357Z" fill="url(#paint140_linear_266_336)"/>
<path d="M255.336 133.54V56.7665L267.305 68.7146" stroke="url(#paint141_linear_266_336)" stroke-width="0.798669" stroke-miterlimit="10"/>
<path d="M253.553 133.444C253.551 133.797 253.655 134.142 253.852 134.436C254.048 134.729 254.328 134.957 254.655 135.089C254.979 135.226 255.338 135.262 255.683 135.191C256.029 135.123 256.348 134.955 256.598 134.706C256.847 134.456 257.015 134.138 257.084 133.792C257.152 133.447 257.116 133.088 256.982 132.763C256.847 132.437 256.619 132.16 256.327 131.964C256.033 131.771 255.689 131.667 255.336 131.666C254.864 131.666 254.411 131.853 254.077 132.186C253.743 132.52 253.554 132.972 253.553 133.444Z" fill="url(#paint142_linear_266_336)"/>
<path d="M285.196 128.886V56.1597L265.634 36.6242L265.027 23.4089H255.336V40.1916L275.931 60.76V106.236" stroke="url(#paint143_linear_266_336)" stroke-width="0.798669" stroke-miterlimit="10"/>
<path d="M283.412 128.796C283.411 129.149 283.515 129.494 283.71 129.788C283.906 130.082 284.184 130.312 284.51 130.448C284.836 130.584 285.194 130.62 285.541 130.551C285.887 130.483 286.205 130.314 286.455 130.065C286.705 129.815 286.876 129.497 286.945 129.151C287.014 128.805 286.979 128.446 286.844 128.12C286.71 127.794 286.481 127.515 286.188 127.319C285.894 127.122 285.549 127.018 285.196 127.018C284.961 127.017 284.727 127.062 284.509 127.151C284.295 127.241 284.1 127.371 283.934 127.534C283.768 127.7 283.636 127.897 283.545 128.115C283.456 128.331 283.411 128.562 283.412 128.796Z" fill="url(#paint144_linear_266_336)"/>
<path d="M277.704 106.146C277.706 106.498 277.602 106.843 277.406 107.136C277.209 107.429 276.932 107.658 276.607 107.796C276.282 107.93 275.925 107.966 275.58 107.897C275.234 107.828 274.916 107.659 274.664 107.413C274.414 107.164 274.243 106.846 274.173 106.5C274.104 106.154 274.139 105.795 274.275 105.469C274.41 105.143 274.639 104.865 274.933 104.669C275.227 104.474 275.573 104.371 275.926 104.372C276.16 104.371 276.391 104.417 276.607 104.506C276.822 104.595 277.017 104.726 277.183 104.889C277.349 105.055 277.481 105.252 277.571 105.469C277.661 105.683 277.706 105.913 277.704 106.146Z" fill="url(#paint145_linear_266_336)"/>
</g>
<defs>
<radialGradient id="paint0_diamond_266_336" cx="0" cy="0" r="1" gradientUnits="userSpaceOnUse" gradientTransform="translate(640.534 237.388) rotate(103.28) scale(758.598 3307.34)">
<stop stop-color="#5191F4"/>
<stop offset="1" stop-color="#619CF9" stop-opacity="0.68"/>
</radialGradient>
<linearGradient id="paint1_linear_266_336" x1="103.281" y1="-51.0057" x2="103.281" y2="145.451" gradientUnits="userSpaceOnUse">
<stop stop-color="white"/>
<stop offset="0.63" stop-color="#B9D7FF"/>
<stop offset="0.87" stop-color="#B0D0FF"/>
<stop offset="1" stop-color="white"/>
</linearGradient>
<linearGradient id="paint2_linear_266_336" x1="101.501" y1="143.672" x2="105.063" y2="143.672" gradientUnits="userSpaceOnUse">
<stop stop-color="white"/>
<stop offset="0.63" stop-color="#B9D7FF"/>
<stop offset="0.87" stop-color="#B0D0FF"/>
<stop offset="1" stop-color="white"/>
</linearGradient>
<linearGradient id="paint3_linear_266_336" x1="92.7379" y1="171.557" x2="92.7379" y2="164.635" gradientUnits="userSpaceOnUse">
<stop stop-color="white"/>
<stop offset="0.63" stop-color="#B9D7FF"/>
<stop offset="0.87" stop-color="#B0D0FF"/>
<stop offset="1" stop-color="white"/>
</linearGradient>
<linearGradient id="paint4_linear_266_336" x1="90.8684" y1="162.856" x2="94.4305" y2="162.856" gradientUnits="userSpaceOnUse">
<stop stop-color="white"/>
<stop offset="0.63" stop-color="#B9D7FF"/>
<stop offset="0.87" stop-color="#B0D0FF"/>
<stop offset="1" stop-color="white"/>
</linearGradient>
<linearGradient id="paint5_linear_266_336" x1="81.9505" y1="171.557" x2="81.9505" y2="95.8269" gradientUnits="userSpaceOnUse">
<stop stop-color="white"/>
<stop offset="0.63" stop-color="#B9D7FF"/>
<stop offset="0.87" stop-color="#B0D0FF"/>
<stop offset="1" stop-color="white"/>
</linearGradient>
<linearGradient id="paint6_linear_266_336" x1="71.5198" y1="94.0432" x2="75.0819" y2="94.0432" gradientUnits="userSpaceOnUse">
<stop stop-color="white"/>
<stop offset="0.63" stop-color="#B9D7FF"/>
<stop offset="0.87" stop-color="#B0D0FF"/>
<stop offset="1" stop-color="white"/>
</linearGradient>
<linearGradient id="paint7_linear_266_336" x1="42.9906" y1="171.557" x2="42.9906" y2="38.935" gradientUnits="userSpaceOnUse">
<stop stop-color="white"/>
<stop offset="0.63" stop-color="#B9D7FF"/>
<stop offset="0.87" stop-color="#B0D0FF"/>
<stop offset="1" stop-color="white"/>
</linearGradient>
<linearGradient id="paint8_linear_266_336" x1="45.2172" y1="36.8904" x2="49.3223" y2="36.8904" gradientUnits="userSpaceOnUse">
<stop stop-color="white"/>
<stop offset="0.63" stop-color="#B9D7FF"/>
<stop offset="0.87" stop-color="#B0D0FF"/>
<stop offset="1" stop-color="white"/>
</linearGradient>
<linearGradient id="paint9_linear_266_336" x1="56.4189" y1="171.557" x2="56.4189" y2="113.243" gradientUnits="userSpaceOnUse">
<stop stop-color="white"/>
<stop offset="0.63" stop-color="#B9D7FF"/>
<stop offset="0.87" stop-color="#B0D0FF"/>
<stop offset="1" stop-color="white"/>
</linearGradient>
<linearGradient id="paint10_linear_266_336" x1="54.9656" y1="111.193" x2="59.0707" y2="111.193" gradientUnits="userSpaceOnUse">
<stop stop-color="white"/>
<stop offset="0.63" stop-color="#B9D7FF"/>
<stop offset="0.87" stop-color="#B0D0FF"/>
<stop offset="1" stop-color="white"/>
</linearGradient>
<linearGradient id="paint11_linear_266_336" x1="-nan" y1="-nan" x2="-nan" y2="-nan" gradientUnits="userSpaceOnUse">
<stop stop-color="white"/>
<stop offset="0.63" stop-color="#B9D7FF"/>
<stop offset="0.87" stop-color="#B0D0FF"/>
<stop offset="1" stop-color="white"/>
</linearGradient>
<linearGradient id="paint12_linear_266_336" x1="73.5375" y1="14.0805" x2="77.1048" y2="14.0805" gradientUnits="userSpaceOnUse">
<stop stop-color="white"/>
<stop offset="0.63" stop-color="#B9D7FF"/>
<stop offset="0.87" stop-color="#B0D0FF"/>
<stop offset="1" stop-color="white"/>
</linearGradient>
<linearGradient id="paint13_linear_266_336" x1="13.9028" y1="171.557" x2="13.9028" y2="60.0731" gradientUnits="userSpaceOnUse">
<stop stop-color="white"/>
<stop offset="0.63" stop-color="#B9D7FF"/>
<stop offset="0.87" stop-color="#B0D0FF"/>
<stop offset="1" stop-color="white"/>
</linearGradient>
<linearGradient id="paint14_linear_266_336" x1="7.57344" y1="58.0232" x2="11.6786" y2="58.0232" gradientUnits="userSpaceOnUse">
<stop stop-color="white"/>
<stop offset="0.63" stop-color="#B9D7FF"/>
<stop offset="0.87" stop-color="#B0D0FF"/>
<stop offset="1" stop-color="white"/>
</linearGradient>
<linearGradient id="paint15_linear_266_336" x1="0.667072" y1="9.87413" x2="10.0275" y2="9.87413" gradientUnits="userSpaceOnUse">
<stop stop-color="white"/>
<stop offset="0.63" stop-color="#B9D7FF"/>
<stop offset="0.87" stop-color="#B0D0FF"/>
<stop offset="1" stop-color="white"/>
</linearGradient>
<linearGradient id="paint16_linear_266_336" x1="111.342" y1="171.557" x2="111.342" y2="42.4066" gradientUnits="userSpaceOnUse">
<stop stop-color="white"/>
<stop offset="0.63" stop-color="#B9D7FF"/>
<stop offset="0.87" stop-color="#B0D0FF"/>
<stop offset="1" stop-color="white"/>
</linearGradient>
<linearGradient id="paint17_linear_266_336" x1="99.8832" y1="41.2085" x2="103.451" y2="41.2085" gradientUnits="userSpaceOnUse">
<stop stop-color="white"/>
<stop offset="0.63" stop-color="#B9D7FF"/>
<stop offset="0.87" stop-color="#B0D0FF"/>
<stop offset="1" stop-color="white"/>
</linearGradient>
<linearGradient id="paint18_linear_266_336" x1="114.222" y1="171.557" x2="114.222" y2="84.1557" gradientUnits="userSpaceOnUse">
<stop stop-color="white"/>
<stop offset="0.63" stop-color="#B9D7FF"/>
<stop offset="0.87" stop-color="#B0D0FF"/>
<stop offset="1" stop-color="white"/>
</linearGradient>
<linearGradient id="paint19_linear_266_336" x1="98.7488" y1="82.3772" x2="102.311" y2="82.3772" gradientUnits="userSpaceOnUse">
<stop stop-color="white"/>
<stop offset="0.63" stop-color="#B9D7FF"/>
<stop offset="0.87" stop-color="#B0D0FF"/>
<stop offset="1" stop-color="white"/>
</linearGradient>
<linearGradient id="paint20_linear_266_336" x1="128.072" y1="171.557" x2="128.072" y2="95.8269" gradientUnits="userSpaceOnUse">
<stop stop-color="white"/>
<stop offset="0.63" stop-color="#B9D7FF"/>
<stop offset="0.87" stop-color="#B0D0FF"/>
<stop offset="1" stop-color="white"/>
</linearGradient>
<linearGradient id="paint21_linear_266_336" x1="119.132" y1="94.0432" x2="122.694" y2="94.0432" gradientUnits="userSpaceOnUse">
<stop stop-color="white"/>
<stop offset="0.63" stop-color="#B9D7FF"/>
<stop offset="0.87" stop-color="#B0D0FF"/>
<stop offset="1" stop-color="white"/>
</linearGradient>
<linearGradient id="paint22_linear_266_336" x1="195.308" y1="171.557" x2="195.308" y2="61.3084" gradientUnits="userSpaceOnUse">
<stop stop-color="white"/>
<stop offset="0.63" stop-color="#B9D7FF"/>
<stop offset="0.87" stop-color="#B0D0FF"/>
<stop offset="1" stop-color="white"/>
</linearGradient>
<linearGradient id="paint23_linear_266_336" x1="184.809" y1="59.53" x2="188.371" y2="59.53" gradientUnits="userSpaceOnUse">
<stop stop-color="white"/>
<stop offset="0.63" stop-color="#B9D7FF"/>
<stop offset="0.87" stop-color="#B0D0FF"/>
<stop offset="1" stop-color="white"/>
</linearGradient>
<linearGradient id="paint24_linear_266_336" x1="179.66" y1="171.557" x2="179.66" y2="110.427" gradientUnits="userSpaceOnUse">
<stop stop-color="white"/>
<stop offset="0.63" stop-color="#B9D7FF"/>
<stop offset="0.87" stop-color="#B0D0FF"/>
<stop offset="1" stop-color="white"/>
</linearGradient>
<linearGradient id="paint25_linear_266_336" x1="163.334" y1="108.648" x2="166.902" y2="108.648" gradientUnits="userSpaceOnUse">
<stop stop-color="white"/>
<stop offset="0.63" stop-color="#B9D7FF"/>
<stop offset="0.87" stop-color="#B0D0FF"/>
<stop offset="1" stop-color="white"/>
</linearGradient>
<linearGradient id="paint26_linear_266_336" x1="168.734" y1="171.557" x2="168.734" y2="98.553" gradientUnits="userSpaceOnUse">
<stop stop-color="white"/>
<stop offset="0.63" stop-color="#B9D7FF"/>
<stop offset="0.87" stop-color="#B0D0FF"/>
<stop offset="1" stop-color="white"/>
</linearGradient>
<linearGradient id="paint27_linear_266_336" x1="150.215" y1="96.7641" x2="153.782" y2="96.7641" gradientUnits="userSpaceOnUse">
<stop stop-color="white"/>
<stop offset="0.63" stop-color="#B9D7FF"/>
<stop offset="0.87" stop-color="#B0D0FF"/>
<stop offset="1" stop-color="white"/>
</linearGradient>
<linearGradient id="paint28_linear_266_336" x1="-nan" y1="-nan" x2="-nan" y2="-nan" gradientUnits="userSpaceOnUse">
<stop stop-color="white"/>
<stop offset="0.63" stop-color="#B9D7FF"/>
<stop offset="0.87" stop-color="#B0D0FF"/>
<stop offset="1" stop-color="white"/>
</linearGradient>
<linearGradient id="paint29_linear_266_336" x1="140.876" y1="73.6132" x2="144.438" y2="73.6132" gradientUnits="userSpaceOnUse">
<stop stop-color="white"/>
<stop offset="0.63" stop-color="#B9D7FF"/>
<stop offset="0.87" stop-color="#B0D0FF"/>
<stop offset="1" stop-color="white"/>
</linearGradient>
<linearGradient id="paint30_linear_266_336" x1="120.312" y1="45.6918" x2="120.312" y2="78.2136" gradientUnits="userSpaceOnUse">
<stop stop-color="white"/>
<stop offset="0.63" stop-color="#B9D7FF"/>
<stop offset="0.87" stop-color="#B0D0FF"/>
<stop offset="1" stop-color="white"/>
</linearGradient>
<linearGradient id="paint31_linear_266_336" x1="109.366" y1="76.4299" x2="112.933" y2="76.4299" gradientUnits="userSpaceOnUse">
<stop stop-color="white"/>
<stop offset="0.63" stop-color="#B9D7FF"/>
<stop offset="0.87" stop-color="#B0D0FF"/>
<stop offset="1" stop-color="white"/>
</linearGradient>
<linearGradient id="paint32_linear_266_336" x1="146.875" y1="171.557" x2="146.875" y2="41.3044" gradientUnits="userSpaceOnUse">
<stop stop-color="white"/>
<stop offset="0.63" stop-color="#B9D7FF"/>
<stop offset="0.87" stop-color="#B0D0FF"/>
<stop offset="1" stop-color="white"/>
</linearGradient>
<linearGradient id="paint33_linear_266_336" x1="150.156" y1="39.526" x2="153.718" y2="39.526" gradientUnits="userSpaceOnUse">
<stop stop-color="white"/>
<stop offset="0.63" stop-color="#B9D7FF"/>
<stop offset="0.87" stop-color="#B0D0FF"/>
<stop offset="1" stop-color="white"/>
</linearGradient>
<linearGradient id="paint34_linear_266_336" x1="-nan" y1="-nan" x2="-nan" y2="-nan" gradientUnits="userSpaceOnUse">
<stop stop-color="white"/>
<stop offset="0.63" stop-color="#B9D7FF"/>
<stop offset="0.87" stop-color="#B0D0FF"/>
<stop offset="1" stop-color="white"/>
</linearGradient>
<linearGradient id="paint35_linear_266_336" x1="27.0174" y1="30.549" x2="30.5795" y2="30.549" gradientUnits="userSpaceOnUse">
<stop stop-color="white"/>
<stop offset="0.63" stop-color="#B9D7FF"/>
<stop offset="0.87" stop-color="#B0D0FF"/>
<stop offset="1" stop-color="white"/>
</linearGradient>
<linearGradient id="paint36_linear_266_336" x1="22.6826" y1="171.557" x2="22.6826" y2="86.967" gradientUnits="userSpaceOnUse">
<stop stop-color="white"/>
<stop offset="0.63" stop-color="#B9D7FF"/>
<stop offset="0.87" stop-color="#B0D0FF"/>
<stop offset="1" stop-color="white"/>
</linearGradient>
<linearGradient id="paint37_linear_266_336" x1="18.3377" y1="85.1886" x2="21.9051" y2="85.1886" gradientUnits="userSpaceOnUse">
<stop stop-color="white"/>
<stop offset="0.63" stop-color="#B9D7FF"/>
<stop offset="0.87" stop-color="#B0D0FF"/>
<stop offset="1" stop-color="white"/>
</linearGradient>
<linearGradient id="paint38_linear_266_336" x1="34.2646" y1="171.557" x2="34.2646" y2="52.72" gradientUnits="userSpaceOnUse">
<stop stop-color="white"/>
<stop offset="0.63" stop-color="#B9D7FF"/>
<stop offset="0.87" stop-color="#B0D0FF"/>
<stop offset="1" stop-color="white"/>
</linearGradient>
<linearGradient id="paint39_linear_266_336" x1="35.6655" y1="50.9522" x2="39.2276" y2="50.9522" gradientUnits="userSpaceOnUse">
<stop stop-color="white"/>
<stop offset="0.63" stop-color="#B9D7FF"/>
<stop offset="0.87" stop-color="#B0D0FF"/>
<stop offset="1" stop-color="white"/>
</linearGradient>
<linearGradient id="paint40_linear_266_336" x1="222.366" y1="171.557" x2="222.366" y2="68.2036" gradientUnits="userSpaceOnUse">
<stop stop-color="white"/>
<stop offset="0.63" stop-color="#B9D7FF"/>
<stop offset="0.87" stop-color="#B0D0FF"/>
<stop offset="1" stop-color="white"/>
</linearGradient>
<linearGradient id="paint41_linear_266_336" x1="229.981" y1="66.4199" x2="233.549" y2="66.4199" gradientUnits="userSpaceOnUse">
<stop stop-color="white"/>
<stop offset="0.63" stop-color="#B9D7FF"/>
<stop offset="0.87" stop-color="#B0D0FF"/>
<stop offset="1" stop-color="white"/>
</linearGradient>
<linearGradient id="paint42_linear_266_336" x1="218.576" y1="5.07672" x2="218.576" y2="99.7935" gradientUnits="userSpaceOnUse">
<stop stop-color="white"/>
<stop offset="0.63" stop-color="#B9D7FF"/>
<stop offset="0.87" stop-color="#B0D0FF"/>
<stop offset="1" stop-color="white"/>
</linearGradient>
<linearGradient id="paint43_linear_266_336" x1="222.777" y1="82.3294" x2="226.345" y2="82.3294" gradientUnits="userSpaceOnUse">
<stop stop-color="white"/>
<stop offset="0.63" stop-color="#B9D7FF"/>
<stop offset="0.87" stop-color="#B0D0FF"/>
<stop offset="1" stop-color="white"/>
</linearGradient>
<linearGradient id="paint44_linear_266_336" x1="210.807" y1="98.0152" x2="214.375" y2="98.0152" gradientUnits="userSpaceOnUse">
<stop stop-color="white"/>
<stop offset="0.63" stop-color="#B9D7FF"/>
<stop offset="0.87" stop-color="#B0D0FF"/>
<stop offset="1" stop-color="white"/>
</linearGradient>
<linearGradient id="paint45_linear_266_336" x1="209.632" y1="-27.9402" x2="209.632" y2="79.4648" gradientUnits="userSpaceOnUse">
<stop stop-color="white"/>
<stop offset="0.63" stop-color="#B9D7FF"/>
<stop offset="0.87" stop-color="#B0D0FF"/>
<stop offset="1" stop-color="white"/>
</linearGradient>
<linearGradient id="paint46_linear_266_336" x1="192.923" y1="77.681" x2="196.485" y2="77.681" gradientUnits="userSpaceOnUse">
<stop stop-color="white"/>
<stop offset="0.63" stop-color="#B9D7FF"/>
<stop offset="0.87" stop-color="#B0D0FF"/>
<stop offset="1" stop-color="white"/>
</linearGradient>
<linearGradient id="paint47_linear_266_336" x1="202.193" y1="55.0362" x2="205.755" y2="55.0362" gradientUnits="userSpaceOnUse">
<stop stop-color="white"/>
<stop offset="0.63" stop-color="#B9D7FF"/>
<stop offset="0.87" stop-color="#B0D0FF"/>
<stop offset="1" stop-color="white"/>
</linearGradient>
<linearGradient id="paint48_linear_266_336" x1="481.855" y1="-44.0839" x2="481.855" y2="152.373" gradientUnits="userSpaceOnUse">
<stop stop-color="white"/>
<stop offset="0.63" stop-color="#B9D7FF"/>
<stop offset="0.87" stop-color="#B0D0FF"/>
<stop offset="1" stop-color="white"/>
</linearGradient>
<linearGradient id="paint49_linear_266_336" x1="480.071" y1="150.594" x2="483.638" y2="150.594" gradientUnits="userSpaceOnUse">
<stop stop-color="white"/>
<stop offset="0.63" stop-color="#B9D7FF"/>
<stop offset="0.87" stop-color="#B0D0FF"/>
<stop offset="1" stop-color="white"/>
</linearGradient>
<linearGradient id="paint50_linear_266_336" x1="471.312" y1="-44.0839" x2="471.312" y2="171.557" gradientUnits="userSpaceOnUse">
<stop stop-color="white"/>
<stop offset="0.63" stop-color="#B9D7FF"/>
<stop offset="0.87" stop-color="#B0D0FF"/>
<stop offset="1" stop-color="white"/>
</linearGradient>
<linearGradient id="paint51_linear_266_336" x1="469.438" y1="169.778" x2="473.005" y2="169.778" gradientUnits="userSpaceOnUse">
<stop stop-color="white"/>
<stop offset="0.63" stop-color="#B9D7FF"/>
<stop offset="0.87" stop-color="#B0D0FF"/>
<stop offset="1" stop-color="white"/>
</linearGradient>
<linearGradient id="paint52_linear_266_336" x1="460.52" y1="-44.0839" x2="460.52" y2="102.749" gradientUnits="userSpaceOnUse">
<stop stop-color="white"/>
<stop offset="0.63" stop-color="#B9D7FF"/>
<stop offset="0.87" stop-color="#B0D0FF"/>
<stop offset="1" stop-color="white"/>
</linearGradient>
<linearGradient id="paint53_linear_266_336" x1="450.089" y1="100.965" x2="453.656" y2="100.965" gradientUnits="userSpaceOnUse">
<stop stop-color="white"/>
<stop offset="0.63" stop-color="#B9D7FF"/>
<stop offset="0.87" stop-color="#B0D0FF"/>
<stop offset="1" stop-color="white"/>
</linearGradient>
<linearGradient id="paint54_linear_266_336" x1="421.561" y1="-44.0839" x2="421.561" y2="45.8569" gradientUnits="userSpaceOnUse">
<stop stop-color="white"/>
<stop offset="0.63" stop-color="#B9D7FF"/>
<stop offset="0.87" stop-color="#B0D0FF"/>
<stop offset="1" stop-color="white"/>
</linearGradient>
<linearGradient id="paint55_linear_266_336" x1="423.791" y1="43.8122" x2="427.89" y2="43.8122" gradientUnits="userSpaceOnUse">
<stop stop-color="white"/>
<stop offset="0.63" stop-color="#B9D7FF"/>
<stop offset="0.87" stop-color="#B0D0FF"/>
<stop offset="1" stop-color="white"/>
</linearGradient>
<linearGradient id="paint56_linear_266_336" x1="434.989" y1="-44.0839" x2="434.989" y2="120.165" gradientUnits="userSpaceOnUse">
<stop stop-color="white"/>
<stop offset="0.63" stop-color="#B9D7FF"/>
<stop offset="0.87" stop-color="#B0D0FF"/>
<stop offset="1" stop-color="white"/>
</linearGradient>
<linearGradient id="paint57_linear_266_336" x1="433.541" y1="118.115" x2="437.64" y2="118.115" gradientUnits="userSpaceOnUse">
<stop stop-color="white"/>
<stop offset="0.63" stop-color="#B9D7FF"/>
<stop offset="0.87" stop-color="#B0D0FF"/>
<stop offset="1" stop-color="white"/>
</linearGradient>
<linearGradient id="paint58_linear_266_336" x1="-nan" y1="-nan" x2="-nan" y2="-nan" gradientUnits="userSpaceOnUse">
<stop stop-color="white"/>
<stop offset="0.63" stop-color="#B9D7FF"/>
<stop offset="0.87" stop-color="#B0D0FF"/>
<stop offset="1" stop-color="white"/>
</linearGradient>
<linearGradient id="paint59_linear_266_336" x1="452.112" y1="21.0023" x2="455.674" y2="21.0023" gradientUnits="userSpaceOnUse">
<stop stop-color="white"/>
<stop offset="0.63" stop-color="#B9D7FF"/>
<stop offset="0.87" stop-color="#B0D0FF"/>
<stop offset="1" stop-color="white"/>
</linearGradient>
<linearGradient id="paint60_linear_266_336" x1="392.479" y1="-44.0839" x2="392.479" y2="66.9896" gradientUnits="userSpaceOnUse">
<stop stop-color="white"/>
<stop offset="0.63" stop-color="#B9D7FF"/>
<stop offset="0.87" stop-color="#B0D0FF"/>
<stop offset="1" stop-color="white"/>
</linearGradient>
<linearGradient id="paint61_linear_266_336" x1="386.147" y1="64.945" x2="390.247" y2="64.945" gradientUnits="userSpaceOnUse">
<stop stop-color="white"/>
<stop offset="0.63" stop-color="#B9D7FF"/>
<stop offset="0.87" stop-color="#B0D0FF"/>
<stop offset="1" stop-color="white"/>
</linearGradient>
<linearGradient id="paint62_linear_266_336" x1="383.916" y1="-44.0839" x2="383.916" y2="79.6192" gradientUnits="userSpaceOnUse">
<stop stop-color="white"/>
<stop offset="0.63" stop-color="#B9D7FF"/>
<stop offset="0.87" stop-color="#B0D0FF"/>
<stop offset="1" stop-color="white"/>
</linearGradient>
<linearGradient id="paint63_linear_266_336" x1="377.585" y1="77.5746" x2="381.691" y2="77.5746" gradientUnits="userSpaceOnUse">
<stop stop-color="white"/>
<stop offset="0.63" stop-color="#B9D7FF"/>
<stop offset="0.87" stop-color="#B0D0FF"/>
<stop offset="1" stop-color="white"/>
</linearGradient>
<linearGradient id="paint64_linear_266_336" x1="489.911" y1="-44.0839" x2="489.911" y2="49.3284" gradientUnits="userSpaceOnUse">
<stop stop-color="white"/>
<stop offset="0.63" stop-color="#B9D7FF"/>
<stop offset="0.87" stop-color="#B0D0FF"/>
<stop offset="1" stop-color="white"/>
</linearGradient>
<linearGradient id="paint65_linear_266_336" x1="478.453" y1="48.1303" x2="482.02" y2="48.1303" gradientUnits="userSpaceOnUse">
<stop stop-color="white"/>
<stop offset="0.63" stop-color="#B9D7FF"/>
<stop offset="0.87" stop-color="#B0D0FF"/>
<stop offset="1" stop-color="white"/>
</linearGradient>
<linearGradient id="paint66_linear_266_336" x1="492.796" y1="-44.0839" x2="492.796" y2="91.0775" gradientUnits="userSpaceOnUse">
<stop stop-color="white"/>
<stop offset="0.63" stop-color="#B9D7FF"/>
<stop offset="0.87" stop-color="#B0D0FF"/>
<stop offset="1" stop-color="white"/>
</linearGradient>
<linearGradient id="paint67_linear_266_336" x1="477.317" y1="89.2991" x2="480.885" y2="89.2991" gradientUnits="userSpaceOnUse">
<stop stop-color="white"/>
<stop offset="0.63" stop-color="#B9D7FF"/>
<stop offset="0.87" stop-color="#B0D0FF"/>
<stop offset="1" stop-color="white"/>
</linearGradient>
<linearGradient id="paint68_linear_266_336" x1="497.7" y1="100.965" x2="501.267" y2="100.965" gradientUnits="userSpaceOnUse">
<stop stop-color="white"/>
<stop offset="0.63" stop-color="#B9D7FF"/>
<stop offset="0.87" stop-color="#B0D0FF"/>
<stop offset="1" stop-color="white"/>
</linearGradient>
<linearGradient id="paint69_linear_266_336" x1="-nan" y1="-nan" x2="-nan" y2="-nan" gradientUnits="userSpaceOnUse">
<stop stop-color="white"/>
<stop offset="0.63" stop-color="#B9D7FF"/>
<stop offset="0.87" stop-color="#B0D0FF"/>
<stop offset="1" stop-color="white"/>
</linearGradient>
<linearGradient id="paint70_linear_266_336" x1="498.888" y1="52.6135" x2="498.888" y2="85.1353" gradientUnits="userSpaceOnUse">
<stop stop-color="white"/>
<stop offset="0.63" stop-color="#B9D7FF"/>
<stop offset="0.87" stop-color="#B0D0FF"/>
<stop offset="1" stop-color="white"/>
</linearGradient>
<linearGradient id="paint71_linear_266_336" x1="487.941" y1="83.3517" x2="491.503" y2="83.3517" gradientUnits="userSpaceOnUse">
<stop stop-color="white"/>
<stop offset="0.63" stop-color="#B9D7FF"/>
<stop offset="0.87" stop-color="#B0D0FF"/>
<stop offset="1" stop-color="white"/>
</linearGradient>
<linearGradient id="paint72_linear_266_336" x1="525.45" y1="-44.0839" x2="525.45" y2="48.2262" gradientUnits="userSpaceOnUse">
<stop stop-color="white"/>
<stop offset="0.63" stop-color="#B9D7FF"/>
<stop offset="0.87" stop-color="#B0D0FF"/>
<stop offset="1" stop-color="white"/>
</linearGradient>
<linearGradient id="paint73_linear_266_336" x1="528.726" y1="46.4478" x2="532.294" y2="46.4478" gradientUnits="userSpaceOnUse">
<stop stop-color="white"/>
<stop offset="0.63" stop-color="#B9D7FF"/>
<stop offset="0.87" stop-color="#B0D0FF"/>
<stop offset="1" stop-color="white"/>
</linearGradient>
<linearGradient id="paint74_linear_266_336" x1="533.757" y1="-44.0839" x2="533.757" y2="16.6362" gradientUnits="userSpaceOnUse">
<stop stop-color="white"/>
<stop offset="0.63" stop-color="#B9D7FF"/>
<stop offset="0.87" stop-color="#B0D0FF"/>
<stop offset="1" stop-color="white"/>
</linearGradient>
<linearGradient id="paint75_linear_266_336" x1="536.899" y1="14.8524" x2="540.467" y2="14.8524" gradientUnits="userSpaceOnUse">
<stop stop-color="white"/>
<stop offset="0.63" stop-color="#B9D7FF"/>
<stop offset="0.87" stop-color="#B0D0FF"/>
<stop offset="1" stop-color="white"/>
</linearGradient>
<linearGradient id="paint76_linear_266_336" x1="-nan" y1="-nan" x2="-nan" y2="-nan" gradientUnits="userSpaceOnUse">
<stop stop-color="white"/>
<stop offset="0.63" stop-color="#B9D7FF"/>
<stop offset="0.87" stop-color="#B0D0FF"/>
<stop offset="1" stop-color="white"/>
</linearGradient>
<linearGradient id="paint77_linear_266_336" x1="405.587" y1="37.4709" x2="409.154" y2="37.4709" gradientUnits="userSpaceOnUse">
<stop stop-color="white"/>
<stop offset="0.63" stop-color="#B9D7FF"/>
<stop offset="0.87" stop-color="#B0D0FF"/>
<stop offset="1" stop-color="white"/>
</linearGradient>
<linearGradient id="paint78_linear_266_336" x1="-nan" y1="-nan" x2="-nan" y2="-nan" gradientUnits="userSpaceOnUse">
<stop stop-color="white"/>
<stop offset="0.63" stop-color="#B9D7FF"/>
<stop offset="0.87" stop-color="#B0D0FF"/>
<stop offset="1" stop-color="white"/>
</linearGradient>
<linearGradient id="paint79_linear_266_336" x1="443.529" y1="14.187" x2="447.096" y2="14.187" gradientUnits="userSpaceOnUse">
<stop stop-color="white"/>
<stop offset="0.63" stop-color="#B9D7FF"/>
<stop offset="0.87" stop-color="#B0D0FF"/>
<stop offset="1" stop-color="white"/>
</linearGradient>
<linearGradient id="paint80_linear_266_336" x1="401.253" y1="-44.0839" x2="401.253" y2="93.8888" gradientUnits="userSpaceOnUse">
<stop stop-color="white"/>
<stop offset="0.63" stop-color="#B9D7FF"/>
<stop offset="0.87" stop-color="#B0D0FF"/>
<stop offset="1" stop-color="white"/>
</linearGradient>
<linearGradient id="paint81_linear_266_336" x1="396.914" y1="92.1104" x2="400.476" y2="92.1104" gradientUnits="userSpaceOnUse">
<stop stop-color="white"/>
<stop offset="0.63" stop-color="#B9D7FF"/>
<stop offset="0.87" stop-color="#B0D0FF"/>
<stop offset="1" stop-color="white"/>
</linearGradient>
<linearGradient id="paint82_linear_266_336" x1="412.839" y1="-44.0839" x2="412.839" y2="59.6419" gradientUnits="userSpaceOnUse">
<stop stop-color="white"/>
<stop offset="0.63" stop-color="#B9D7FF"/>
<stop offset="0.87" stop-color="#B0D0FF"/>
<stop offset="1" stop-color="white"/>
</linearGradient>
<linearGradient id="paint83_linear_266_336" x1="414.233" y1="57.8741" x2="417.8" y2="57.8741" gradientUnits="userSpaceOnUse">
<stop stop-color="white"/>
<stop offset="0.63" stop-color="#B9D7FF"/>
<stop offset="0.87" stop-color="#B0D0FF"/>
<stop offset="1" stop-color="white"/>
</linearGradient>
<linearGradient id="paint84_linear_266_336" x1="644.25" y1="-46.2137" x2="644.25" y2="150.243" gradientUnits="userSpaceOnUse">
<stop stop-color="white"/>
<stop offset="0.63" stop-color="#B9D7FF"/>
<stop offset="0.87" stop-color="#B0D0FF"/>
<stop offset="1" stop-color="white"/>
</linearGradient>
<linearGradient id="paint85_linear_266_336" x1="633.708" y1="-46.2137" x2="633.708" y2="169.427" gradientUnits="userSpaceOnUse">
<stop stop-color="white"/>
<stop offset="0.63" stop-color="#B9D7FF"/>
<stop offset="0.87" stop-color="#B0D0FF"/>
<stop offset="1" stop-color="white"/>
</linearGradient>
<linearGradient id="paint86_linear_266_336" x1="631.835" y1="167.648" x2="635.402" y2="167.648" gradientUnits="userSpaceOnUse">
<stop stop-color="white"/>
<stop offset="0.63" stop-color="#B9D7FF"/>
<stop offset="0.87" stop-color="#B0D0FF"/>
<stop offset="1" stop-color="white"/>
</linearGradient>
<linearGradient id="paint87_linear_266_336" x1="622.915" y1="-46.2137" x2="622.915" y2="100.619" gradientUnits="userSpaceOnUse">
<stop stop-color="white"/>
<stop offset="0.63" stop-color="#B9D7FF"/>
<stop offset="0.87" stop-color="#B0D0FF"/>
<stop offset="1" stop-color="white"/>
</linearGradient>
<linearGradient id="paint88_linear_266_336" x1="612.485" y1="98.8351" x2="616.052" y2="98.8351" gradientUnits="userSpaceOnUse">
<stop stop-color="white"/>
<stop offset="0.63" stop-color="#B9D7FF"/>
<stop offset="0.87" stop-color="#B0D0FF"/>
<stop offset="1" stop-color="white"/>
</linearGradient>
<linearGradient id="paint89_linear_266_336" x1="583.962" y1="-46.2137" x2="583.962" y2="43.7271" gradientUnits="userSpaceOnUse">
<stop stop-color="white"/>
<stop offset="0.63" stop-color="#B9D7FF"/>
<stop offset="0.87" stop-color="#B0D0FF"/>
<stop offset="1" stop-color="white"/>
</linearGradient>
<linearGradient id="paint90_linear_266_336" x1="586.186" y1="41.6825" x2="590.286" y2="41.6825" gradientUnits="userSpaceOnUse">
<stop stop-color="white"/>
<stop offset="0.63" stop-color="#B9D7FF"/>
<stop offset="0.87" stop-color="#B0D0FF"/>
<stop offset="1" stop-color="white"/>
</linearGradient>
<linearGradient id="paint91_linear_266_336" x1="597.389" y1="-46.2137" x2="597.389" y2="118.035" gradientUnits="userSpaceOnUse">
<stop stop-color="white"/>
<stop offset="0.63" stop-color="#B9D7FF"/>
<stop offset="0.87" stop-color="#B0D0FF"/>
<stop offset="1" stop-color="white"/>
</linearGradient>
<linearGradient id="paint92_linear_266_336" x1="595.937" y1="115.985" x2="600.037" y2="115.985" gradientUnits="userSpaceOnUse">
<stop stop-color="white"/>
<stop offset="0.63" stop-color="#B9D7FF"/>
<stop offset="0.87" stop-color="#B0D0FF"/>
<stop offset="1" stop-color="white"/>
</linearGradient>
<linearGradient id="paint93_linear_266_336" x1="-nan" y1="-nan" x2="-nan" y2="-nan" gradientUnits="userSpaceOnUse">
<stop stop-color="white"/>
<stop offset="0.63" stop-color="#B9D7FF"/>
<stop offset="0.87" stop-color="#B0D0FF"/>
<stop offset="1" stop-color="white"/>
</linearGradient>
<linearGradient id="paint94_linear_266_336" x1="614.509" y1="18.8725" x2="618.071" y2="18.8725" gradientUnits="userSpaceOnUse">
<stop stop-color="white"/>
<stop offset="0.63" stop-color="#B9D7FF"/>
<stop offset="0.87" stop-color="#B0D0FF"/>
<stop offset="1" stop-color="white"/>
</linearGradient>
<linearGradient id="paint95_linear_266_336" x1="554.874" y1="-46.2137" x2="554.874" y2="64.8652" gradientUnits="userSpaceOnUse">
<stop stop-color="white"/>
<stop offset="0.63" stop-color="#B9D7FF"/>
<stop offset="0.87" stop-color="#B0D0FF"/>
<stop offset="1" stop-color="white"/>
</linearGradient>
<linearGradient id="paint96_linear_266_336" x1="548.544" y1="62.8152" x2="552.649" y2="62.8152" gradientUnits="userSpaceOnUse">
<stop stop-color="white"/>
<stop offset="0.63" stop-color="#B9D7FF"/>
<stop offset="0.87" stop-color="#B0D0FF"/>
<stop offset="1" stop-color="white"/>
</linearGradient>
<linearGradient id="paint97_linear_266_336" x1="546.314" y1="-46.2137" x2="546.314" y2="77.4894" gradientUnits="userSpaceOnUse">
<stop stop-color="white"/>
<stop offset="0.63" stop-color="#B9D7FF"/>
<stop offset="0.87" stop-color="#B0D0FF"/>
<stop offset="1" stop-color="white"/>
</linearGradient>
<linearGradient id="paint98_linear_266_336" x1="539.981" y1="75.4448" x2="544.086" y2="75.4448" gradientUnits="userSpaceOnUse">
<stop stop-color="white"/>
<stop offset="0.63" stop-color="#B9D7FF"/>
<stop offset="0.87" stop-color="#B0D0FF"/>
<stop offset="1" stop-color="white"/>
</linearGradient>
<linearGradient id="paint99_linear_266_336" x1="639.714" y1="87.1693" x2="643.281" y2="87.1693" gradientUnits="userSpaceOnUse">
<stop stop-color="white"/>
<stop offset="0.63" stop-color="#B9D7FF"/>
<stop offset="0.87" stop-color="#B0D0FF"/>
<stop offset="1" stop-color="white"/>
</linearGradient>
<linearGradient id="paint100_linear_266_336" x1="-nan" y1="-nan" x2="-nan" y2="-nan" gradientUnits="userSpaceOnUse">
<stop stop-color="white"/>
<stop offset="0.63" stop-color="#B9D7FF"/>
<stop offset="0.87" stop-color="#B0D0FF"/>
<stop offset="1" stop-color="white"/>
</linearGradient>
<linearGradient id="paint101_linear_266_336" x1="567.983" y1="35.3411" x2="571.551" y2="35.3411" gradientUnits="userSpaceOnUse">
<stop stop-color="white"/>
<stop offset="0.63" stop-color="#B9D7FF"/>
<stop offset="0.87" stop-color="#B0D0FF"/>
<stop offset="1" stop-color="white"/>
</linearGradient>
<linearGradient id="paint102_linear_266_336" x1="-nan" y1="-nan" x2="-nan" y2="-nan" gradientUnits="userSpaceOnUse">
<stop stop-color="white"/>
<stop offset="0.63" stop-color="#B9D7FF"/>
<stop offset="0.87" stop-color="#B0D0FF"/>
<stop offset="1" stop-color="white"/>
</linearGradient>
<linearGradient id="paint103_linear_266_336" x1="605.925" y1="12.0571" x2="609.493" y2="12.0571" gradientUnits="userSpaceOnUse">
<stop stop-color="white"/>
<stop offset="0.63" stop-color="#B9D7FF"/>
<stop offset="0.87" stop-color="#B0D0FF"/>
<stop offset="1" stop-color="white"/>
</linearGradient>
<linearGradient id="paint104_linear_266_336" x1="563.654" y1="-46.2137" x2="563.654" y2="91.759" gradientUnits="userSpaceOnUse">
<stop stop-color="white"/>
<stop offset="0.63" stop-color="#B9D7FF"/>
<stop offset="0.87" stop-color="#B0D0FF"/>
<stop offset="1" stop-color="white"/>
</linearGradient>
<linearGradient id="paint105_linear_266_336" x1="559.309" y1="89.9807" x2="562.871" y2="89.9807" gradientUnits="userSpaceOnUse">
<stop stop-color="white"/>
<stop offset="0.63" stop-color="#B9D7FF"/>
<stop offset="0.87" stop-color="#B0D0FF"/>
<stop offset="1" stop-color="white"/>
</linearGradient>
<linearGradient id="paint106_linear_266_336" x1="575.235" y1="-46.2137" x2="575.235" y2="57.5121" gradientUnits="userSpaceOnUse">
<stop stop-color="white"/>
<stop offset="0.63" stop-color="#B9D7FF"/>
<stop offset="0.87" stop-color="#B0D0FF"/>
<stop offset="1" stop-color="white"/>
</linearGradient>
<linearGradient id="paint107_linear_266_336" x1="576.63" y1="55.7444" x2="580.198" y2="55.7444" gradientUnits="userSpaceOnUse">
<stop stop-color="white"/>
<stop offset="0.63" stop-color="#B9D7FF"/>
<stop offset="0.87" stop-color="#B0D0FF"/>
<stop offset="1" stop-color="white"/>
</linearGradient>
<linearGradient id="paint108_linear_266_336" x1="-nan" y1="-nan" x2="-nan" y2="-nan" gradientUnits="userSpaceOnUse">
<stop stop-color="white"/>
<stop offset="0.63" stop-color="#B9D7FF"/>
<stop offset="0.87" stop-color="#B0D0FF"/>
<stop offset="1" stop-color="white"/>
</linearGradient>
<linearGradient id="paint109_linear_266_336" x1="368.554" y1="0.109039" x2="368.554" y2="93.5214" gradientUnits="userSpaceOnUse">
<stop stop-color="white"/>
<stop offset="0.63" stop-color="#B9D7FF"/>
<stop offset="0.87" stop-color="#B0D0FF"/>
<stop offset="1" stop-color="white"/>
</linearGradient>
<linearGradient id="paint110_linear_266_336" x1="376.446" y1="92.3233" x2="380.013" y2="92.3233" gradientUnits="userSpaceOnUse">
<stop stop-color="white"/>
<stop offset="0.63" stop-color="#B9D7FF"/>
<stop offset="0.87" stop-color="#B0D0FF"/>
<stop offset="1" stop-color="white"/>
</linearGradient>
<linearGradient id="paint111_linear_266_336" x1="365.675" y1="0.109039" x2="365.675" y2="135.27" gradientUnits="userSpaceOnUse">
<stop stop-color="white"/>
<stop offset="0.63" stop-color="#B9D7FF"/>
<stop offset="0.87" stop-color="#B0D0FF"/>
<stop offset="1" stop-color="white"/>
</linearGradient>
<linearGradient id="paint112_linear_266_336" x1="377.586" y1="133.492" x2="381.148" y2="133.492" gradientUnits="userSpaceOnUse">
<stop stop-color="white"/>
<stop offset="0.63" stop-color="#B9D7FF"/>
<stop offset="0.87" stop-color="#B0D0FF"/>
<stop offset="1" stop-color="white"/>
</linearGradient>
<linearGradient id="paint113_linear_266_336" x1="284.588" y1="0.109039" x2="284.588" y2="112.423" gradientUnits="userSpaceOnUse">
<stop stop-color="white"/>
<stop offset="0.63" stop-color="#B9D7FF"/>
<stop offset="0.87" stop-color="#B0D0FF"/>
<stop offset="1" stop-color="white"/>
</linearGradient>
<linearGradient id="paint114_linear_266_336" x1="291.526" y1="110.645" x2="295.088" y2="110.645" gradientUnits="userSpaceOnUse">
<stop stop-color="white"/>
<stop offset="0.63" stop-color="#B9D7FF"/>
<stop offset="0.87" stop-color="#B0D0FF"/>
<stop offset="1" stop-color="white"/>
</linearGradient>
<linearGradient id="paint115_linear_266_336" x1="311.163" y1="0.109039" x2="311.163" y2="149.668" gradientUnits="userSpaceOnUse">
<stop stop-color="white"/>
<stop offset="0.63" stop-color="#B9D7FF"/>
<stop offset="0.87" stop-color="#B0D0FF"/>
<stop offset="1" stop-color="white"/>
</linearGradient>
<linearGradient id="paint116_linear_266_336" x1="326.115" y1="147.879" x2="329.682" y2="147.879" gradientUnits="userSpaceOnUse">
<stop stop-color="white"/>
<stop offset="0.63" stop-color="#B9D7FF"/>
<stop offset="0.87" stop-color="#B0D0FF"/>
<stop offset="1" stop-color="white"/>
</linearGradient>
<linearGradient id="paint117_linear_266_336" x1="-nan" y1="-nan" x2="-nan" y2="-nan" gradientUnits="userSpaceOnUse">
<stop stop-color="white"/>
<stop offset="0.63" stop-color="#B9D7FF"/>
<stop offset="0.87" stop-color="#B0D0FF"/>
<stop offset="1" stop-color="white"/>
</linearGradient>
<linearGradient id="paint118_linear_266_336" x1="301.147" y1="25.363" x2="304.709" y2="25.363" gradientUnits="userSpaceOnUse">
<stop stop-color="white"/>
<stop offset="0.63" stop-color="#B9D7FF"/>
<stop offset="0.87" stop-color="#B0D0FF"/>
<stop offset="1" stop-color="white"/>
</linearGradient>
<linearGradient id="paint119_linear_266_336" x1="-nan" y1="-nan" x2="-nan" y2="-nan" gradientUnits="userSpaceOnUse">
<stop stop-color="white"/>
<stop offset="0.63" stop-color="#B9D7FF"/>
<stop offset="0.87" stop-color="#B0D0FF"/>
<stop offset="1" stop-color="white"/>
</linearGradient>
<linearGradient id="paint120_linear_266_336" x1="310.679" y1="34.8458" x2="314.246" y2="34.8458" gradientUnits="userSpaceOnUse">
<stop stop-color="white"/>
<stop offset="0.63" stop-color="#B9D7FF"/>
<stop offset="0.87" stop-color="#B0D0FF"/>
<stop offset="1" stop-color="white"/>
</linearGradient>
<linearGradient id="paint121_linear_266_336" x1="-nan" y1="-nan" x2="-nan" y2="-nan" gradientUnits="userSpaceOnUse">
<stop stop-color="white"/>
<stop offset="0.63" stop-color="#B9D7FF"/>
<stop offset="0.87" stop-color="#B0D0FF"/>
<stop offset="1" stop-color="white"/>
</linearGradient>
<linearGradient id="paint122_linear_266_336" x1="365.201" y1="34.83" x2="368.768" y2="34.83" gradientUnits="userSpaceOnUse">
<stop stop-color="white"/>
<stop offset="0.63" stop-color="#B9D7FF"/>
<stop offset="0.87" stop-color="#B0D0FF"/>
<stop offset="1" stop-color="white"/>
</linearGradient>
<linearGradient id="paint123_linear_266_336" x1="-nan" y1="-nan" x2="-nan" y2="-nan" gradientUnits="userSpaceOnUse">
<stop stop-color="white"/>
<stop offset="0.63" stop-color="#B9D7FF"/>
<stop offset="0.87" stop-color="#B0D0FF"/>
<stop offset="1" stop-color="white"/>
</linearGradient>
<linearGradient id="paint124_linear_266_336" x1="335.458" y1="124.728" x2="339.02" y2="124.728" gradientUnits="userSpaceOnUse">
<stop stop-color="white"/>
<stop offset="0.63" stop-color="#B9D7FF"/>
<stop offset="0.87" stop-color="#B0D0FF"/>
<stop offset="1" stop-color="white"/>
</linearGradient>
<linearGradient id="paint125_linear_266_336" x1="359.583" y1="96.8066" x2="359.583" y2="129.328" gradientUnits="userSpaceOnUse">
<stop stop-color="white"/>
<stop offset="0.63" stop-color="#B9D7FF"/>
<stop offset="0.87" stop-color="#B0D0FF"/>
<stop offset="1" stop-color="white"/>
</linearGradient>
<linearGradient id="paint126_linear_266_336" x1="366.963" y1="127.545" x2="370.531" y2="127.545" gradientUnits="userSpaceOnUse">
<stop stop-color="white"/>
<stop offset="0.63" stop-color="#B9D7FF"/>
<stop offset="0.87" stop-color="#B0D0FF"/>
<stop offset="1" stop-color="white"/>
</linearGradient>
<linearGradient id="paint127_linear_266_336" x1="333.02" y1="0.109039" x2="333.02" y2="92.4192" gradientUnits="userSpaceOnUse">
<stop stop-color="white"/>
<stop offset="0.63" stop-color="#B9D7FF"/>
<stop offset="0.87" stop-color="#B0D0FF"/>
<stop offset="1" stop-color="white"/>
</linearGradient>
<linearGradient id="paint128_linear_266_336" x1="326.177" y1="90.6408" x2="329.745" y2="90.6408" gradientUnits="userSpaceOnUse">
<stop stop-color="white"/>
<stop offset="0.63" stop-color="#B9D7FF"/>
<stop offset="0.87" stop-color="#B0D0FF"/>
<stop offset="1" stop-color="white"/>
</linearGradient>
<linearGradient id="paint129_linear_266_336" x1="324.708" y1="0.109039" x2="324.708" y2="60.8292" gradientUnits="userSpaceOnUse">
<stop stop-color="white"/>
<stop offset="0.63" stop-color="#B9D7FF"/>
<stop offset="0.87" stop-color="#B0D0FF"/>
<stop offset="1" stop-color="white"/>
</linearGradient>
<linearGradient id="paint130_linear_266_336" x1="318.005" y1="59.0455" x2="321.567" y2="59.0455" gradientUnits="userSpaceOnUse">
<stop stop-color="white"/>
<stop offset="0.63" stop-color="#B9D7FF"/>
<stop offset="0.87" stop-color="#B0D0FF"/>
<stop offset="1" stop-color="white"/>
</linearGradient>
<linearGradient id="paint131_linear_266_336" x1="-nan" y1="-nan" x2="-nan" y2="-nan" gradientUnits="userSpaceOnUse">
<stop stop-color="white"/>
<stop offset="0.63" stop-color="#B9D7FF"/>
<stop offset="0.87" stop-color="#B0D0FF"/>
<stop offset="1" stop-color="white"/>
</linearGradient>
<linearGradient id="paint132_linear_266_336" x1="319.177" y1="18.1644" x2="322.744" y2="18.1644" gradientUnits="userSpaceOnUse">
<stop stop-color="white"/>
<stop offset="0.63" stop-color="#B9D7FF"/>
<stop offset="0.87" stop-color="#B0D0FF"/>
<stop offset="1" stop-color="white"/>
</linearGradient>
<linearGradient id="paint133_linear_266_336" x1="-nan" y1="-nan" x2="-nan" y2="-nan" gradientUnits="userSpaceOnUse">
<stop stop-color="white"/>
<stop offset="0.63" stop-color="#B9D7FF"/>
<stop offset="0.87" stop-color="#B0D0FF"/>
<stop offset="1" stop-color="white"/>
</linearGradient>
<linearGradient id="paint134_linear_266_336" x1="-nan" y1="-nan" x2="-nan" y2="-nan" gradientUnits="userSpaceOnUse">
<stop stop-color="white"/>
<stop offset="0.63" stop-color="#B9D7FF"/>
<stop offset="0.87" stop-color="#B0D0FF"/>
<stop offset="1" stop-color="white"/>
</linearGradient>
<linearGradient id="paint135_linear_266_336" x1="-nan" y1="-nan" x2="-nan" y2="-nan" gradientUnits="userSpaceOnUse">
<stop stop-color="white"/>
<stop offset="0.63" stop-color="#B9D7FF"/>
<stop offset="0.87" stop-color="#B0D0FF"/>
<stop offset="1" stop-color="white"/>
</linearGradient>
<linearGradient id="paint136_linear_266_336" x1="-nan" y1="-nan" x2="-nan" y2="-nan" gradientUnits="userSpaceOnUse">
<stop stop-color="white"/>
<stop offset="0.63" stop-color="#B9D7FF"/>
<stop offset="0.87" stop-color="#B0D0FF"/>
<stop offset="1" stop-color="white"/>
</linearGradient>
<linearGradient id="paint137_linear_266_336" x1="257.531" y1="0.109039" x2="257.531" y2="119.318" gradientUnits="userSpaceOnUse">
<stop stop-color="white"/>
<stop offset="0.63" stop-color="#B9D7FF"/>
<stop offset="0.87" stop-color="#B0D0FF"/>
<stop offset="1" stop-color="white"/>
</linearGradient>
<linearGradient id="paint138_linear_266_336" x1="246.348" y1="117.535" x2="249.915" y2="117.535" gradientUnits="userSpaceOnUse">
<stop stop-color="white"/>
<stop offset="0.63" stop-color="#B9D7FF"/>
<stop offset="0.87" stop-color="#B0D0FF"/>
<stop offset="1" stop-color="white"/>
</linearGradient>
<linearGradient id="paint139_linear_266_336" x1="248.138" y1="0.109039" x2="248.138" y2="46.7194" gradientUnits="userSpaceOnUse">
<stop stop-color="white"/>
<stop offset="0.63" stop-color="#B9D7FF"/>
<stop offset="0.87" stop-color="#B0D0FF"/>
<stop offset="1" stop-color="white"/>
</linearGradient>
<linearGradient id="paint140_linear_266_336" x1="239.145" y1="44.9357" x2="242.712" y2="44.9357" gradientUnits="userSpaceOnUse">
<stop stop-color="white"/>
<stop offset="0.63" stop-color="#B9D7FF"/>
<stop offset="0.87" stop-color="#B0D0FF"/>
<stop offset="1" stop-color="white"/>
</linearGradient>
<linearGradient id="paint141_linear_266_336" x1="261.321" y1="56.1915" x2="261.321" y2="150.908" gradientUnits="userSpaceOnUse">
<stop stop-color="white"/>
<stop offset="0.63" stop-color="#B9D7FF"/>
<stop offset="0.87" stop-color="#B0D0FF"/>
<stop offset="1" stop-color="white"/>
</linearGradient>
<linearGradient id="paint142_linear_266_336" x1="253.553" y1="133.444" x2="257.12" y2="133.444" gradientUnits="userSpaceOnUse">
<stop stop-color="white"/>
<stop offset="0.63" stop-color="#B9D7FF"/>
<stop offset="0.87" stop-color="#B0D0FF"/>
<stop offset="1" stop-color="white"/>
</linearGradient>
<linearGradient id="paint143_linear_266_336" x1="270.266" y1="23.1747" x2="270.266" y2="130.574" gradientUnits="userSpaceOnUse">
<stop stop-color="white"/>
<stop offset="0.63" stop-color="#B9D7FF"/>
<stop offset="0.87" stop-color="#B0D0FF"/>
<stop offset="1" stop-color="white"/>
</linearGradient>
<linearGradient id="paint144_linear_266_336" x1="283.412" y1="128.796" x2="286.974" y2="128.796" gradientUnits="userSpaceOnUse">
<stop stop-color="white"/>
<stop offset="0.63" stop-color="#B9D7FF"/>
<stop offset="0.87" stop-color="#B0D0FF"/>
<stop offset="1" stop-color="white"/>
</linearGradient>
<linearGradient id="paint145_linear_266_336" x1="274.142" y1="106.151" x2="277.704" y2="106.151" gradientUnits="userSpaceOnUse">
<stop stop-color="white"/>
<stop offset="0.63" stop-color="#B9D7FF"/>
<stop offset="0.87" stop-color="#B0D0FF"/>
<stop offset="1" stop-color="white"/>
</linearGradient>
</defs>
</svg>
