<svg width="640" height="201" viewBox="0 0 640 201" fill="none" xmlns="http://www.w3.org/2000/svg">
<path d="M640.532 0.109009H0L6.50499e-05 167.447C9.87447 168.931 36.5342 169.189 63.4385 171.291C102.284 174.326 141.396 176.871 165.995 173.984C221.682 167.447 253.389 156.615 304.013 163.151C366.398 171.207 387.272 178.966 437.768 173.984C547.543 163.151 543.024 202.978 577.119 199.943C604.394 197.516 630.006 176.754 640.532 182.014L640.532 0.109009Z" fill="url(#paint0_diamond_266_336)"/>
<g opacity="0.4">
<path d="M102.36 -51.0057V-23.3134L111.843 -13.5743V0.481824L94.7248 7.78798V47.9539L103.281 56.3832V80.2574" stroke="url(#paint1_linear_266_336)" stroke-width="0.798669" stroke-miterlimit="10"/>
<path d="M101.501 80.1999C101.5 80.4375 101.604 80.6698 101.799 80.8674C101.996 81.0649 102.274 81.2187 102.601 81.3094C102.927 81.4001 103.285 81.4236 103.631 81.377C104.062 81.3166 104.445 81.1508 104.706 80.9115C104.967 80.6722 105.087 80.3763 105.043 80.0808C105 79.7854 104.795 79.5113 104.47 79.3113C104.144 79.1113 103.72 78.9997 103.28 78.9978C102.807 79.002 102.356 79.1308 102.023 79.3567C101.855 79.4667 101.721 79.5984 101.63 79.7438C101.538 79.8893 101.491 80.0456 101.491 80.2035L101.501 80.1999Z" fill="url(#paint2_linear_266_336)"/>
<path d="M91.7262 -51.0057V-23.1519L101.385 -13.2477L101.209 -0.67008L84.091 6.91956V47.9539L92.6474 56.3832V93.1867" stroke="url(#paint3_linear_266_336)" stroke-width="0.798669" stroke-miterlimit="10"/>
<path d="M90.8684 93.1293C90.8672 93.3657 90.9711 93.5969 91.1666 93.7932C91.4138 94.0384 91.7867 94.2134 92.2137 94.2845C92.6407 94.3557 93.0917 94.318 93.48 94.1787C93.8683 94.0394 94.1665 93.8083 94.3174 93.5298C94.4682 93.2513 94.4611 92.9451 94.2973 92.67C94.164 92.4493 93.9336 92.2615 93.6371 92.1317C93.3447 91.9984 92.9998 91.9272 92.6468 91.9272C92.1742 91.9309 91.7229 92.0598 91.3902 92.286C91.2224 92.397 91.089 92.5293 90.9976 92.6753C90.9062 92.8213 90.8587 92.978 90.8577 93.1365L90.8684 93.1293Z" fill="url(#paint4_linear_266_336)"/>
<path d="M80.9389 -51.0057V-23.1519L90.5975 -13.2477L90.4164 -0.670072L73.2983 6.91957V46.8127" stroke="url(#paint5_linear_266_336)" stroke-width="0.798669" stroke-miterlimit="10"/>
<path d="M71.5198 46.7554C71.5187 46.9917 71.6225 47.223 71.818 47.4192C72.0652 47.6644 72.4382 47.8394 72.8652 47.9106C73.2922 47.9817 73.7431 47.944 74.1314 47.8047C74.5197 47.6654 74.8179 47.4344 74.9688 47.1559C75.1197 46.8774 75.1125 46.5712 74.9488 46.296C74.8151 46.0755 74.5848 45.8877 74.2885 45.7578C74.0206 45.6367 73.7089 45.567 73.3868 45.5562C73.0646 45.5454 72.7442 45.5938 72.4597 45.6963C72.1753 45.7988 71.9376 45.9515 71.772 46.138C71.6064 46.3246 71.5193 46.538 71.5198 46.7554V46.7554Z" fill="url(#paint6_linear_266_336)"/>
<path d="M47.2662 8.30114V-28.3301L38.7097 -36.763V-51.0057" stroke="url(#paint7_linear_266_336)" stroke-width="0.798669" stroke-miterlimit="10"/>
<path d="M45.2172 8.23292C45.2161 8.50718 45.3359 8.77548 45.5613 9.00382C45.7868 9.23215 46.1077 9.41025 46.4834 9.51553C46.8592 9.62082 47.2729 9.64855 47.6721 9.59522C48.0712 9.54189 48.4379 9.40989 48.7257 9.21596C49.0134 9.02202 49.2093 8.77488 49.2884 8.50586C49.3675 8.23683 49.3264 7.95802 49.1702 7.70477C49.014 7.45152 48.7497 7.23523 48.4109 7.0833C48.0721 6.93137 47.674 6.85064 47.2671 6.85135C46.7234 6.85135 46.202 6.99691 45.8176 7.25601C45.4331 7.5151 45.2172 7.86651 45.2172 8.23292V8.23292Z" fill="url(#paint8_linear_266_336)"/>
<path d="M48.0009 -51.0057V-36.763L56.5626 -28.3301V9.61093L64.7889 15.1515V34.1705L57.0152 39.4241V58.3676" stroke="url(#paint9_linear_266_336)" stroke-width="0.798669" stroke-miterlimit="10"/>
<path d="M54.9656 58.3102C54.9656 58.5836 55.0861 58.8509 55.3117 59.0782C55.5361 59.3063 55.857 59.4838 56.2328 59.5877C56.6078 59.6929 57.0208 59.7203 57.4191 59.6667C57.8174 59.613 58.1829 59.4806 58.4691 59.2863C58.7547 59.0931 58.9492 58.8472 59.0278 58.5796C59.1064 58.312 59.0658 58.0347 58.911 57.7827C58.7564 57.53 58.4934 57.3141 58.1558 57.1626C57.8181 57.0111 57.4211 56.9309 57.0155 56.9322C56.7453 56.9324 56.4778 56.9677 56.2275 57.0363C55.9784 57.1047 55.7521 57.206 55.5619 57.3341C55.3717 57.4623 55.2215 57.6148 55.12 57.7827C55.0188 57.9502 54.9664 58.1293 54.9656 58.3102Z" fill="url(#paint10_linear_266_336)"/>
<path d="M9.62726 22.5582V-14.0874L18.1837 -22.5204V-51.0057" stroke="url(#paint11_linear_266_336)" stroke-width="0.798669" stroke-miterlimit="10"/>
<path d="M11.6786 22.4756C11.6779 22.749 11.5575 23.0161 11.3325 23.2436C11.1057 23.4741 10.7815 23.6534 10.4018 23.7583C10.022 23.8632 9.60435 23.8889 9.20273 23.8321C8.79956 23.7795 8.42881 23.647 8.13783 23.4517C7.8573 23.254 7.67174 23.0039 7.60539 22.734C7.54621 22.5337 7.55381 22.3271 7.62765 22.1291C7.70148 21.931 7.83971 21.7465 8.03232 21.5889C8.22493 21.4312 8.46712 21.3044 8.74136 21.2176C9.0156 21.1308 9.31505 21.0862 9.61803 21.0869C9.88718 21.086 10.1539 21.1209 10.4029 21.1898C10.6519 21.2587 10.8782 21.3601 11.0688 21.4882C11.2594 21.6163 11.4104 21.7685 11.5132 21.9362C11.6161 22.1038 11.6687 22.2835 11.668 22.4649L11.6786 22.4756Z" fill="url(#paint12_linear_266_336)"/>
<path d="M1.06641 31.0557V-14.0874L9.62814 -22.5204V-51.0057" stroke="url(#paint13_linear_266_336)" stroke-width="0.798669" stroke-miterlimit="10"/>
<path d="M120.915 -51.0057V2.3586L101.593 11.1791" stroke="url(#paint14_linear_266_336)" stroke-width="0.798669" stroke-miterlimit="10"/>
<path d="M100.666 10.1492C100.372 10.2817 100.144 10.4704 100.011 10.6911C99.8786 10.9118 99.8469 11.1542 99.9205 11.3872C99.9897 11.6197 100.162 11.8325 100.416 11.9972C100.603 12.122 100.829 12.2172 101.077 12.276C101.326 12.3348 101.59 12.3557 101.852 12.3371C102.114 12.3186 102.366 12.2611 102.591 12.1688C102.816 12.0765 103.008 11.9517 103.152 11.8034C103.349 11.6063 103.451 11.3734 103.445 11.136C103.446 10.858 103.302 10.5887 103.038 10.3749C102.774 10.1612 102.408 10.0165 102.002 9.96614C101.538 9.90583 101.058 9.97162 100.666 10.1492Z" fill="url(#paint15_linear_266_336)"/>
<path d="M127.916 -51.0057V6.98057L100.527 18.801V38.9468" stroke="url(#paint16_linear_266_336)" stroke-width="0.798669" stroke-miterlimit="10"/>
<path d="M98.7488 38.8893C98.7469 39.1258 98.8508 39.3571 99.0469 39.5532C99.2436 39.7505 99.521 39.9051 99.8456 39.9982C100.173 40.0867 100.532 40.1104 100.879 40.0663C101.21 40.0221 101.516 39.9153 101.761 39.7583C102.006 39.6013 102.18 39.4006 102.263 39.1795C102.345 38.9585 102.332 38.7263 102.226 38.5099C102.12 38.2936 101.925 38.102 101.663 37.9575C101.402 37.813 101.085 37.7216 100.749 37.6938C100.414 37.6661 100.073 37.7033 99.768 37.8009C99.4625 37.8986 99.2045 38.0527 99.024 38.2455C98.8436 38.4382 98.7481 38.6614 98.7488 38.8893V38.8893Z" fill="url(#paint17_linear_266_336)"/>
<path d="M135.228 -51.0057V18.3489L120.91 24.6897V46.8127" stroke="url(#paint18_linear_266_336)" stroke-width="0.798669" stroke-miterlimit="10"/>
<path d="M119.132 46.7554C119.131 46.9917 119.235 47.223 119.43 47.4192C119.677 47.6644 120.05 47.8394 120.477 47.9106C120.904 47.9817 121.355 47.944 121.744 47.8047C122.132 47.6654 122.43 47.4344 122.581 47.1559C122.732 46.8774 122.725 46.5712 122.561 46.296C122.427 46.0755 122.197 45.8877 121.901 45.7578C121.633 45.6367 121.321 45.567 120.999 45.5562C120.677 45.5454 120.356 45.5938 120.072 45.6963C119.787 45.7988 119.55 45.9515 119.384 46.138C119.219 46.3246 119.131 46.538 119.132 46.7554V46.7554Z" fill="url(#paint19_linear_266_336)"/>
<path d="M204.008 -51.0057V-28.4736L186.581 -16.7285V23.5486" stroke="url(#paint20_linear_266_336)" stroke-width="0.798669" stroke-miterlimit="10"/>
<path d="M184.809 23.4912C184.808 23.728 184.912 23.9596 185.107 24.1565C185.303 24.3534 185.581 24.5065 185.906 24.5964C186.231 24.6876 186.589 24.7117 186.934 24.6657C187.279 24.6198 187.596 24.5059 187.845 24.3384C188.095 24.1708 188.264 23.9573 188.333 23.7247C188.402 23.4921 188.367 23.251 188.233 23.0318C188.1 22.8121 187.871 22.6245 187.578 22.4936C187.31 22.3715 186.998 22.301 186.675 22.2897C186.352 22.2784 186.03 22.3266 185.745 22.4292C185.46 22.5318 185.221 22.6849 185.055 22.872C184.89 23.0591 184.803 23.2732 184.804 23.4912H184.809Z" fill="url(#paint21_linear_266_336)"/>
<path d="M194.196 -51.0057V-28.4737L176.747 -16.7285V16.2855L165.14 24.0976V56.6488" stroke="url(#paint22_linear_266_336)" stroke-width="0.798669" stroke-miterlimit="10"/>
<path d="M163.334 56.595C163.338 56.8321 163.444 57.0634 163.64 57.2604C163.835 57.4574 164.112 57.6115 164.437 57.7038C164.762 57.7943 165.119 57.8181 165.464 57.772C165.81 57.725 166.128 57.6116 166.38 57.4455C166.63 57.2778 166.801 57.0637 166.87 56.8304C166.939 56.5972 166.904 56.3553 166.769 56.1357C166.631 55.9169 166.401 55.7299 166.108 55.5974C165.815 55.4656 165.47 55.3956 165.118 55.3964C164.646 55.3964 164.193 55.5226 163.859 55.7473C163.524 55.9719 163.336 56.2768 163.334 56.595V56.595Z" fill="url(#paint23_linear_266_336)"/>
<path d="M185.469 -51.0057V-30.3935L168.462 -18.9462V11.197L153.357 21.374L151.994 48.6465" stroke="url(#paint24_linear_266_336)" stroke-width="0.798669" stroke-miterlimit="10"/>
<path d="M150.231 48.546C150.221 48.7829 150.315 49.0164 150.502 49.2171C150.687 49.4193 150.958 49.5793 151.279 49.6764C151.599 49.7749 151.955 49.8074 152.302 49.7697C152.65 49.7302 152.974 49.6229 153.234 49.4611C153.496 49.3 153.681 49.0902 153.766 48.8582C153.826 48.6854 153.828 48.5057 153.773 48.3321C153.717 48.1586 153.605 47.9955 153.445 47.8547C153.284 47.714 153.079 47.599 152.845 47.5181C152.61 47.4372 152.352 47.3924 152.089 47.387C151.855 47.3794 151.621 47.4051 151.402 47.4623C151.182 47.5174 150.981 47.6016 150.811 47.7099C150.639 47.8168 150.501 47.9462 150.406 48.0903C150.311 48.234 150.257 48.3887 150.247 48.546H150.231Z" fill="url(#paint25_linear_266_336)"/>
<path d="M142.65 -17.5862V33.0437" stroke="url(#paint26_linear_266_336)" stroke-width="0.798669" stroke-miterlimit="10"/>
<path d="M140.876 32.9863C140.875 33.2227 140.979 33.4539 141.174 33.6502C141.371 33.8477 141.65 34.0015 141.976 34.0922C142.302 34.1829 142.66 34.2064 143.006 34.1598C143.352 34.1158 143.669 34.0019 143.917 33.8332C144.166 33.6661 144.337 33.4526 144.406 33.22C144.475 32.9874 144.44 32.7461 144.305 32.527C144.172 32.3074 143.944 32.1199 143.65 31.9887C143.356 31.8557 143.009 31.7846 142.655 31.7842C142.421 31.7851 142.19 31.8156 141.973 31.8739C141.54 31.9985 141.194 32.2312 141.009 32.5234C140.92 32.6703 140.875 32.8276 140.876 32.9863Z" fill="url(#paint27_linear_266_336)"/>
<path d="M111.148 34.942V22.0701L129.667 14.3047" stroke="url(#paint28_linear_266_336)" stroke-width="0.798669" stroke-miterlimit="10"/>
<path d="M112.96 34.881C112.958 35.1184 112.853 35.3503 112.657 35.5476C112.461 35.7449 112.183 35.8987 111.858 35.9899C111.533 36.0821 111.175 36.1059 110.83 36.058C110.484 36.0127 110.165 35.899 109.914 35.7315C109.666 35.5629 109.497 35.3486 109.429 35.1156C109.361 34.8826 109.396 34.6412 109.531 34.4217C109.665 34.2026 109.893 34.0152 110.186 33.8834C110.48 33.7531 110.824 33.6833 111.176 33.6825C111.411 33.6831 111.644 33.7151 111.86 33.7767C112.077 33.8383 112.273 33.9283 112.438 34.0413C112.774 34.2655 112.965 34.5697 112.97 34.8882L112.96 34.881Z" fill="url(#paint29_linear_266_336)"/>
<path d="M141.817 -51.0057V-26.4749L151.934 -19.6567V10.0667" stroke="url(#paint30_linear_266_336)" stroke-width="0.798669" stroke-miterlimit="10"/>
<path d="M150.156 9.99842C150.155 10.2348 150.258 10.466 150.454 10.6623C150.651 10.8596 150.928 11.0142 151.253 11.1073C151.58 11.196 151.939 11.2197 152.286 11.1754C152.617 11.1312 152.923 11.0244 153.168 10.8674C153.413 10.7104 153.587 10.5097 153.67 10.2886C153.752 10.0676 153.739 9.83539 153.633 9.61902C153.527 9.40265 153.332 9.21106 153.07 9.06657C152.809 8.92208 152.492 8.83065 152.156 8.80293C151.821 8.77522 151.48 8.81235 151.175 8.91002C150.869 9.00768 150.611 9.16185 150.431 9.35455C150.251 9.54725 150.155 9.77055 150.156 9.99842V9.99842Z" fill="url(#paint31_linear_266_336)"/>
<path d="M28.8014 -8.21307V4.02007" stroke="url(#paint32_linear_266_336)" stroke-width="0.798669" stroke-miterlimit="10"/>
<path d="M27.0174 3.95907C27.0184 4.19301 27.1222 4.42152 27.3156 4.61576C27.512 4.81323 27.7908 4.96703 28.1168 5.05773C28.4428 5.14843 28.8014 5.17195 29.1472 5.12533C29.4929 5.08138 29.8105 4.96747 30.0577 4.79877C30.3028 4.63106 30.4689 4.4183 30.5352 4.1872C30.6015 3.95609 30.565 3.71694 30.4304 3.49974C30.2957 3.27973 30.068 3.09129 29.7755 2.95788C29.4809 2.82817 29.1371 2.7584 28.7852 2.75693C28.3121 2.75693 27.8584 2.88358 27.5239 3.10903C27.1894 3.33447 27.0015 3.64024 27.0015 3.95907H27.0174Z" fill="url(#paint33_linear_266_336)"/>
<path d="M25.2437 -51.0057V-14.8733L20.1216 -11.4284V40.8594" stroke="url(#paint34_linear_266_336)" stroke-width="0.798669" stroke-miterlimit="10"/>
<path d="M18.3377 40.7841C18.3396 41.0209 18.4452 41.2521 18.6413 41.4486C18.8374 41.6452 19.1153 41.7983 19.4401 41.8888C19.7649 41.9792 20.122 42.003 20.4668 41.9572C20.8116 41.9113 21.1286 41.7978 21.378 41.6309C21.6257 41.4629 21.7943 41.2493 21.8625 41.0169C21.9307 40.7845 21.8955 40.5437 21.7613 40.3247C21.6024 40.069 21.3172 39.8581 20.954 39.7278C20.5908 39.5976 20.1719 39.5559 19.7684 39.61C19.3648 39.664 19.0014 39.8105 18.7397 40.0244C18.478 40.2384 18.3341 40.5068 18.3324 40.7841H18.3377Z" fill="url(#paint35_linear_266_336)"/>
<path d="M31.0859 -51.0057V-26.3959L37.4753 -19.8972V17.7819" stroke="url(#paint36_linear_266_336)" stroke-width="0.798669" stroke-miterlimit="10"/>
<path d="M35.6655 17.71C35.664 17.9479 35.7682 18.1806 35.9646 18.3782C36.161 18.5758 36.4407 18.7293 36.7677 18.8189C37.0926 18.9093 37.4498 18.933 37.7947 18.887C38.1395 18.8411 38.4565 18.7275 38.7058 18.5605C38.9561 18.3928 39.1267 18.1787 39.196 17.9455C39.2652 17.7122 39.2298 17.4704 39.0945 17.2507C38.9543 17.0296 38.7187 16.8421 38.4183 16.7124C38.124 16.5822 37.78 16.5123 37.4279 16.5115C36.9558 16.5115 36.5029 16.6376 36.1685 16.8623C35.8342 17.087 35.6456 17.3918 35.6442 17.71H35.6655Z" fill="url(#paint37_linear_266_336)"/>
<path d="M212.969 -51.0057V-41.891H231.759V28.1993" stroke="url(#paint38_linear_266_336)" stroke-width="0.798669" stroke-miterlimit="10"/>
<path d="M229.981 28.1347C229.982 28.3721 230.088 28.604 230.284 28.8013C230.48 28.9985 230.758 29.1524 231.083 29.2435C231.408 29.3358 231.766 29.3595 232.111 29.3117C232.457 29.2663 232.776 29.1527 233.027 28.9852C233.273 28.8166 233.441 28.6034 233.511 28.3715C233.581 28.1388 233.547 27.8974 233.413 27.6777C233.28 27.458 233.053 27.2699 232.761 27.1371C232.466 27.0068 232.122 26.937 231.77 26.9361C231.537 26.9367 231.305 26.9672 231.089 27.0258C230.872 27.0867 230.674 27.1757 230.508 27.2878C230.343 27.3983 230.213 27.5301 230.125 27.6754C230.034 27.8208 229.987 27.9769 229.987 28.1347H229.981Z" fill="url(#paint39_linear_266_336)"/>
<path d="M224.561 38.9216V-12.8207L212.591 -4.76818V49.4717" stroke="url(#paint40_linear_266_336)" stroke-width="0.798669" stroke-miterlimit="10"/>
<path d="M226.371 38.8571C226.373 39.095 226.269 39.3277 226.072 39.5253C225.876 39.7229 225.596 39.8764 225.269 39.9659C224.945 40.0582 224.587 40.0819 224.242 40.0341C223.895 39.9887 223.576 39.8751 223.326 39.7076C223.078 39.539 222.909 39.3247 222.841 39.0917C222.772 38.8587 222.808 38.6173 222.943 38.3978C223.077 38.1786 223.305 37.9913 223.597 37.8595C223.892 37.7292 224.236 37.6594 224.588 37.6585C225.06 37.6585 225.513 37.7847 225.847 38.0094C226.182 38.234 226.37 38.5389 226.371 38.8571V38.8571Z" fill="url(#paint41_linear_266_336)"/>
<path d="M210.807 49.4288C210.809 49.6666 210.914 49.8988 211.111 50.0962C211.31 50.2915 211.587 50.4446 211.91 50.5376C212.236 50.6284 212.594 50.6519 212.94 50.6053C213.286 50.5587 213.604 50.4439 213.853 50.2756C214.103 50.1091 214.272 49.895 214.338 49.662C214.411 49.4297 214.376 49.1876 214.236 48.9694C214.103 48.7497 213.875 48.5622 213.582 48.4312C213.289 48.2983 212.944 48.2271 212.591 48.2266C212.119 48.2308 211.668 48.3596 211.335 48.5855C211.167 48.6966 211.034 48.8289 210.942 48.9749C210.851 49.1208 210.803 49.2775 210.802 49.4359L210.807 49.4288Z" fill="url(#paint42_linear_266_336)"/>
<path d="M194.702 35.7853V-13.2298L214.264 -26.3959L214.871 -35.3025H224.562V-23.9916L203.967 -10.1293V20.5235" stroke="url(#paint43_linear_266_336)" stroke-width="0.798669" stroke-miterlimit="10"/>
<path d="M196.485 35.7243C196.484 35.9614 196.379 36.1931 196.184 36.3902C195.988 36.5873 195.71 36.7409 195.385 36.8318C195.06 36.9228 194.702 36.9469 194.357 36.9011C194.012 36.8554 193.694 36.7418 193.445 36.5747C193.258 36.4492 193.116 36.2975 193.027 36.1304C192.938 35.9633 192.905 35.785 192.93 35.6083C192.956 35.4316 193.039 35.261 193.174 35.1085C193.309 34.9561 193.492 34.8257 193.711 34.7267C194.004 34.5948 194.349 34.5249 194.701 34.5257C194.937 34.5249 195.17 34.5554 195.388 34.6154C195.603 34.6759 195.798 34.7637 195.963 34.8738C196.128 34.9864 196.26 35.1191 196.352 35.2649C196.441 35.4106 196.486 35.5667 196.485 35.7243V35.7243Z" fill="url(#paint44_linear_266_336)"/>
<path d="M202.193 20.4589C202.189 20.6967 202.293 20.9296 202.491 21.1264C202.688 21.3237 202.965 21.4783 203.29 21.5713C203.615 21.6619 203.972 21.6856 204.317 21.6395C204.663 21.5925 204.981 21.4791 205.233 21.313C205.483 21.1453 205.654 20.9312 205.724 20.698C205.793 20.4647 205.758 20.2228 205.622 20.003C205.487 19.7833 205.258 19.5956 204.964 19.464C204.67 19.3324 204.324 19.2628 203.971 19.2639C203.737 19.2614 203.505 19.2919 203.29 19.3537C202.855 19.4755 202.509 19.7074 202.326 19.9996C202.237 20.1453 202.192 20.3014 202.193 20.4589V20.4589Z" fill="url(#paint45_linear_266_336)"/>
<path d="M480.934 -46.3407V-18.6484L490.411 -8.90923V5.14686L473.298 12.453V52.6189L481.855 61.0483V84.9224" stroke="url(#paint46_linear_266_336)" stroke-width="0.798669" stroke-miterlimit="10"/>
<path d="M480.071 84.865C480.071 85.1029 480.175 85.3355 480.371 85.5333C480.567 85.7312 480.846 85.8854 481.172 85.9764C481.498 86.0675 481.857 86.0913 482.203 86.0448C482.549 85.9984 482.867 85.8838 483.116 85.7155C483.363 85.5469 483.531 85.3337 483.601 85.1018C483.67 84.8693 483.635 84.6282 483.5 84.4091C483.365 84.19 483.137 84.0027 482.845 83.871C482.552 83.7381 482.207 83.6669 481.855 83.6664C481.38 83.6701 480.927 83.7989 480.593 84.0253C480.256 84.2489 480.064 84.5535 480.06 84.8722L480.071 84.865Z" fill="url(#paint47_linear_266_336)"/>
<path d="M470.301 -46.3407V-18.4869L479.959 -8.58268L479.784 3.99496L462.665 11.5846V52.6189L471.222 61.0483V97.8517" stroke="url(#paint48_linear_266_336)" stroke-width="0.798669" stroke-miterlimit="10"/>
<path d="M469.438 97.7943C469.44 98.0311 469.546 98.2622 469.742 98.4588C469.938 98.6554 470.216 98.8087 470.54 98.8996C470.864 98.993 471.222 99.018 471.568 98.9713C471.827 98.9377 472.072 98.8655 472.284 98.7601C472.496 98.6546 472.671 98.5185 472.796 98.3617C472.92 98.2049 472.991 98.0314 473.004 97.8538C473.016 97.6762 472.969 97.4989 472.867 97.335C472.734 97.1153 472.506 96.9277 472.212 96.7967C471.919 96.6638 471.575 96.5926 471.222 96.5922C470.747 96.5954 470.294 96.7243 469.96 96.951C469.625 97.1772 469.434 97.4822 469.427 97.8015L469.438 97.7943Z" fill="url(#paint49_linear_266_336)"/>
<path d="M459.508 -46.3407V-18.4869L469.167 -8.58267L468.991 3.99497L451.873 11.5846V51.4778" stroke="url(#paint50_linear_266_336)" stroke-width="0.798669" stroke-miterlimit="10"/>
<path d="M450.089 51.4204C450.091 51.6572 450.197 51.8883 450.393 52.0848C450.589 52.2814 450.867 52.4347 451.191 52.5256C451.516 52.6179 451.874 52.6416 452.219 52.5938C452.565 52.5494 452.883 52.4361 453.133 52.2685C453.382 52.1009 453.552 51.8867 453.619 51.6536C453.69 51.4212 453.655 51.1797 453.518 50.961C453.386 50.7408 453.158 50.5529 452.863 50.4228C452.57 50.2899 452.226 50.2187 451.873 50.2182C451.638 50.2185 451.406 50.2504 451.191 50.3121C450.975 50.3737 450.779 50.4638 450.616 50.5771C450.449 50.6882 450.315 50.8205 450.224 50.9665C450.133 51.1125 450.085 51.2691 450.084 51.4275L450.089 51.4204Z" fill="url(#paint51_linear_266_336)"/>
<path d="M425.842 12.9662V-23.6651L417.285 -32.098V-46.3407" stroke="url(#paint52_linear_266_336)" stroke-width="0.798669" stroke-miterlimit="10"/>
<path d="M423.791 12.898C423.791 13.1712 423.911 13.4383 424.136 13.6655C424.361 13.8927 424.682 14.0698 425.056 14.1744C425.431 14.2789 425.843 14.3063 426.241 14.253C426.638 14.1997 427.003 14.0681 427.29 13.8749C427.577 13.6817 427.772 13.4355 427.851 13.1675C427.93 12.8995 427.89 12.6217 427.734 12.3693C427.579 12.1168 427.317 11.901 426.979 11.7492C426.642 11.5974 426.246 11.5164 425.841 11.5164C425.297 11.5164 424.776 11.6619 424.391 11.921C424.007 12.1801 423.791 12.5315 423.791 12.898Z" fill="url(#paint53_linear_266_336)"/>
<path d="M426.598 -46.3407V-32.098L435.154 -23.6651V14.276L443.386 19.8166V38.8355L435.585 44.0891V63.0327" stroke="url(#paint54_linear_266_336)" stroke-width="0.798669" stroke-miterlimit="10"/>
<path d="M433.541 62.9753C433.541 63.2488 433.662 63.516 433.887 63.7433C434.113 63.9707 434.433 64.1479 434.808 64.2528C435.18 64.3525 435.587 64.3766 435.979 64.322C436.372 64.2675 436.731 64.1367 437.015 63.9459C437.298 63.755 437.492 63.5125 437.573 63.2482C437.654 62.9839 437.618 62.7093 437.47 62.4586C437.312 62.2067 437.05 61.9911 436.714 61.8377C436.318 61.6614 435.844 61.5823 435.372 61.6136C434.9 61.645 434.458 61.785 434.121 62.01C433.931 62.1385 433.781 62.2909 433.679 62.4586C433.575 62.6256 433.523 62.805 433.525 62.9861L433.541 62.9753Z" fill="url(#paint55_linear_266_336)"/>
<path d="M388.198 27.2232V-9.42238L396.754 -17.8553V-46.3407" stroke="url(#paint56_linear_266_336)" stroke-width="0.798669" stroke-miterlimit="10"/>
<path d="M390.247 27.1406C390.249 27.4137 390.13 27.681 389.906 27.9086C389.679 28.135 389.359 28.3121 388.985 28.4181C388.61 28.5233 388.197 28.5508 387.799 28.4971C387.401 28.4434 387.035 28.311 386.749 28.1167C386.457 27.9215 386.26 27.6713 386.185 27.399C386.114 27.1536 386.144 26.9 386.27 26.6651C386.396 26.4301 386.615 26.2225 386.902 26.0644C387.189 25.9062 387.534 25.8033 387.901 25.7666C388.268 25.7299 388.642 25.7608 388.985 25.856C389.233 25.9261 389.459 26.0271 389.651 26.1538C390.033 26.4134 390.247 26.7642 390.247 27.1299V27.1406Z" fill="url(#paint57_linear_266_336)"/>
<path d="M379.635 35.7207V-9.42238L388.197 -17.8553V-46.3407" stroke="url(#paint58_linear_266_336)" stroke-width="0.798669" stroke-miterlimit="10"/>
<path d="M381.691 35.6525C381.688 35.9253 381.567 36.1915 381.342 36.4181C381.116 36.6446 380.797 36.8214 380.423 36.9264C380.048 37.0311 379.635 37.0585 379.236 37.0054C378.833 36.9556 378.461 36.8242 378.171 36.6286C377.955 36.4849 377.789 36.3104 377.685 36.1178C377.582 35.9252 377.544 35.7195 377.574 35.5157C377.604 35.312 377.702 35.1153 377.859 34.9403C378.017 34.7652 378.231 34.6162 378.485 34.5042C378.822 34.3512 379.219 34.2699 379.625 34.2709C379.894 34.2704 380.161 34.3059 380.409 34.3756C380.658 34.4452 380.884 34.5475 381.073 34.6764C381.454 34.9367 381.67 35.2868 381.675 35.6525H381.691Z" fill="url(#paint59_linear_266_336)"/>
<path d="M499.484 -46.3407V7.02364L480.162 15.8441" stroke="url(#paint60_linear_266_336)" stroke-width="0.798669" stroke-miterlimit="10"/>
<path d="M479.236 14.8142C479.017 14.9136 478.835 15.0445 478.701 15.1974C478.567 15.3503 478.485 15.5214 478.461 15.6982C478.437 15.8751 478.471 16.0533 478.562 16.22C478.653 16.3867 478.798 16.5378 478.986 16.6622C479.236 16.8298 479.555 16.9434 479.901 16.9888C480.249 17.0324 480.608 17.0062 480.934 16.9134C481.165 16.8487 481.373 16.752 481.545 16.6296C481.717 16.5072 481.848 16.3618 481.931 16.2029C482.014 16.044 482.047 15.8751 482.027 15.7071C482.007 15.5392 481.935 15.376 481.815 15.2281C481.695 15.0801 481.531 14.9508 481.332 14.8485C481.134 14.7462 480.905 14.6732 480.662 14.6341C480.419 14.5951 480.166 14.591 479.921 14.622C479.675 14.653 479.442 14.7185 479.236 14.8142V14.8142Z" fill="url(#paint61_linear_266_336)"/>
<path d="M506.49 -46.3407V11.6456L479.096 23.4661V43.6118" stroke="url(#paint62_linear_266_336)" stroke-width="0.798669" stroke-miterlimit="10"/>
<path d="M477.317 43.5544C477.317 43.7912 477.423 44.0226 477.621 44.2183C477.816 44.4163 478.094 44.5711 478.42 44.6633C478.745 44.7519 479.102 44.7756 479.447 44.7314C479.793 44.6854 480.111 44.5711 480.36 44.4031C480.61 44.235 480.779 44.0208 480.848 43.7877C480.916 43.5551 480.881 43.314 480.747 43.0949C480.612 42.8758 480.384 42.6886 480.091 42.5568C479.823 42.4348 479.511 42.3643 479.188 42.353C478.865 42.3416 478.544 42.3899 478.259 42.4925C477.973 42.5951 477.735 42.7482 477.569 42.9353C477.403 43.1224 477.316 43.3365 477.317 43.5544V43.5544Z" fill="url(#paint63_linear_266_336)"/>
<path d="M497.7 51.4204C497.701 51.5975 497.761 51.7723 497.874 51.9322C497.987 52.0921 498.151 52.2331 498.355 52.3452C498.558 52.4574 498.796 52.5378 499.051 52.5808C499.306 52.6237 499.572 52.6282 499.83 52.5938C500.176 52.5484 500.495 52.4348 500.746 52.2673C500.931 52.1415 501.072 51.9898 501.16 51.8229C501.248 51.6561 501.28 51.4781 501.254 51.3019C501.228 51.1257 501.145 50.9555 501.01 50.8035C500.875 50.6515 500.692 50.5215 500.474 50.4228C500.181 50.2899 499.837 50.2187 499.484 50.2182C499.249 50.2185 499.017 50.2504 498.802 50.3121C498.586 50.3737 498.391 50.4638 498.227 50.5771C498.06 50.6882 497.926 50.8205 497.835 50.9665C497.744 51.1125 497.696 51.2691 497.695 51.4275L497.7 51.4204Z" fill="url(#paint64_linear_266_336)"/>
<path d="M521.219 -12.9212V37.7087" stroke="url(#paint65_linear_266_336)" stroke-width="0.798669" stroke-miterlimit="10"/>
<path d="M489.719 39.607V26.7351L508.243 18.9697" stroke="url(#paint66_linear_266_336)" stroke-width="0.798669" stroke-miterlimit="10"/>
<path d="M491.53 39.5461C491.529 39.7832 491.424 40.0149 491.228 40.212C491.032 40.4091 490.755 40.5627 490.43 40.6536C490.105 40.7446 489.747 40.7686 489.402 40.7229C489.056 40.6771 488.739 40.5636 488.489 40.3965C488.241 40.2302 488.07 40.0181 488 39.7868C487.93 39.5555 487.962 39.3153 488.094 39.0965C488.225 38.8776 488.449 38.6898 488.739 38.5565C489.028 38.4233 489.369 38.3506 489.719 38.3475C490.191 38.3475 490.644 38.4737 490.979 38.6983C491.313 38.923 491.502 39.2279 491.503 39.5461H491.53Z" fill="url(#paint67_linear_266_336)"/>
<path d="M520.387 -46.3407V-21.8098L530.503 -14.9917V14.7317" stroke="url(#paint68_linear_266_336)" stroke-width="0.798669" stroke-miterlimit="10"/>
<path d="M528.726 14.6635C528.728 14.8996 528.831 15.1303 529.024 15.3274C529.22 15.5255 529.499 15.68 529.825 15.7713C530.151 15.8627 530.51 15.8868 530.856 15.8405C531.114 15.8057 531.358 15.7328 531.569 15.627C531.78 15.5213 531.954 15.3853 532.079 15.2289C532.203 15.0725 532.274 14.8995 532.287 14.7223C532.301 14.5452 532.255 14.3682 532.155 14.2042C532.022 13.9845 531.794 13.7969 531.5 13.6659C531.232 13.5439 530.92 13.4734 530.597 13.462C530.274 13.4507 529.953 13.4989 529.668 13.6015C529.382 13.7041 529.144 13.8572 528.978 14.0444C528.812 14.2315 528.725 14.4455 528.726 14.6635V14.6635Z" fill="url(#paint69_linear_266_336)"/>
<path d="M407.371 -3.54807V8.68507" stroke="url(#paint70_linear_266_336)" stroke-width="0.798669" stroke-miterlimit="10"/>
<path d="M405.587 8.62414C405.59 8.86096 405.697 9.09188 405.893 9.28809C406.09 9.48429 406.368 9.63709 406.693 9.72742C407.018 9.81775 407.375 9.8416 407.72 9.796C408.065 9.75041 408.382 9.63738 408.632 9.47102C408.88 9.30298 409.049 9.08935 409.117 8.85696C409.185 8.62456 409.15 8.38377 409.016 8.16481C408.883 7.94402 408.655 7.75522 408.361 7.62295C408.066 7.49268 407.722 7.42286 407.37 7.422C407.135 7.42263 406.903 7.45467 406.686 7.51626C406.469 7.57786 406.273 7.66779 406.108 7.78085C405.772 8.00618 405.581 8.31169 405.576 8.63132L405.587 8.62414Z" fill="url(#paint71_linear_266_336)"/>
<path d="M403.814 -46.3407V-10.2083L398.697 -6.76332V45.5245" stroke="url(#paint72_linear_266_336)" stroke-width="0.798669" stroke-miterlimit="10"/>
<path d="M396.914 45.4491C396.912 45.6867 397.016 45.919 397.212 46.1166C397.408 46.3141 397.687 46.4679 398.013 46.5586C398.339 46.6493 398.698 46.6728 399.043 46.6262C399.389 46.5793 399.706 46.4644 399.954 46.296C400.205 46.1292 400.375 45.9154 400.444 45.6824C400.514 45.4304 400.463 45.1699 400.298 44.9388C400.134 44.7078 399.863 44.5183 399.527 44.398C399.191 44.2778 398.807 44.2331 398.431 44.2705C398.054 44.3079 397.706 44.4254 397.435 44.6059C397.267 44.7159 397.134 44.8476 397.042 44.993C396.951 45.1385 396.903 45.2948 396.903 45.4527L396.914 45.4491Z" fill="url(#paint73_linear_266_336)"/>
<path d="M409.66 -46.3407V-21.7309L416.018 -15.2321V22.4469" stroke="url(#paint74_linear_266_336)" stroke-width="0.798669" stroke-miterlimit="10"/>
<path d="M414.233 22.3752C414.234 22.6126 414.339 22.8445 414.535 23.0417C414.732 23.239 415.01 23.3928 415.335 23.484C415.661 23.5763 416.021 23.6001 416.368 23.5522C416.713 23.506 417.03 23.3921 417.279 23.2248C417.528 23.0575 417.698 22.8443 417.768 22.612C417.834 22.3782 417.799 22.1367 417.667 21.9158C417.531 21.6967 417.301 21.5096 417.008 21.3781C416.714 21.2466 416.369 21.1765 416.017 21.1766C415.782 21.1769 415.55 21.2088 415.334 21.2704C415.119 21.3321 414.923 21.4222 414.76 21.5355C414.425 21.7599 414.234 22.064 414.228 22.3823L414.233 22.3752Z" fill="url(#paint75_linear_266_336)"/>
<path d="M643.329 -47.7761V-20.0837L652.806 -10.3446V3.7115L635.688 11.0176V51.1835L644.25 59.6129V83.4871" stroke="url(#paint76_linear_266_336)" stroke-width="0.798669" stroke-miterlimit="10"/>
<path d="M632.696 -47.7761V-19.9223L642.355 -10.018L642.179 2.5596L625.061 10.1492V51.1835L633.617 59.6129V96.4164" stroke="url(#paint77_linear_266_336)" stroke-width="0.798669" stroke-miterlimit="10"/>
<path d="M631.835 96.3589C631.837 96.5958 631.943 96.8269 632.139 97.0234C632.335 97.22 632.612 97.3733 632.937 97.4642C633.261 97.5576 633.619 97.5827 633.965 97.536C634.311 97.4892 634.63 97.3743 634.88 97.2058C635.128 97.0378 635.297 96.8241 635.365 96.5917C635.433 96.3594 635.398 96.1186 635.264 95.8996C635.131 95.6799 634.902 95.4923 634.609 95.3613C634.34 95.2406 634.028 95.1712 633.706 95.1605C633.384 95.1498 633.063 95.1982 632.779 95.3006C632.494 95.4029 632.256 95.5554 632.09 95.7418C631.923 95.9282 631.835 96.1415 631.835 96.3589V96.3589Z" fill="url(#paint78_linear_266_336)"/>
<path d="M621.904 -47.7761V-19.9222L631.562 -10.018L631.387 2.5596L614.268 10.1492V50.0424" stroke="url(#paint79_linear_266_336)" stroke-width="0.798669" stroke-miterlimit="10"/>
<path d="M612.485 49.9849C612.487 50.2217 612.593 50.4528 612.789 50.6494C612.985 50.8459 613.263 50.9992 613.587 51.0902C613.912 51.1824 614.27 51.2062 614.615 51.1583C614.961 51.1139 615.279 51.0006 615.529 50.833C615.779 50.6654 615.948 50.4513 616.015 50.2182C616.086 49.9857 616.051 49.7442 615.914 49.5256C615.782 49.3053 615.554 49.1174 615.259 48.9873C614.917 48.8318 614.505 48.7615 614.094 48.7883C613.683 48.8152 613.299 48.9375 613.007 49.1344C612.67 49.3598 612.479 49.6653 612.474 49.9849H612.485Z" fill="url(#paint80_linear_266_336)"/>
<path d="M588.237 11.5308V-25.1004L579.681 -33.5334V-47.7761" stroke="url(#paint81_linear_266_336)" stroke-width="0.798669" stroke-miterlimit="10"/>
<path d="M586.186 11.4626C586.186 11.7359 586.307 12.003 586.532 12.2302C586.757 12.4574 587.077 12.6345 587.452 12.739C587.826 12.8436 588.239 12.8709 588.636 12.8176C589.034 12.7643 589.399 12.6328 589.686 12.4395C589.972 12.2463 590.168 12.0001 590.247 11.7322C590.326 11.4642 590.285 11.1864 590.13 10.9339C589.975 10.6815 589.712 10.4657 589.375 10.3139C589.038 10.1621 588.642 10.0811 588.236 10.0811C587.693 10.0811 587.171 10.2266 586.787 10.4857C586.402 10.7448 586.186 11.0962 586.186 11.4626V11.4626Z" fill="url(#paint82_linear_266_336)"/>
<path d="M588.992 -47.7761V-33.5334L597.549 -25.1004V12.8406L605.78 18.3812V37.4002L597.98 42.6537V61.5973" stroke="url(#paint83_linear_266_336)" stroke-width="0.798669" stroke-miterlimit="10"/>
<path d="M595.937 61.5399C595.938 61.8134 596.058 62.0806 596.284 62.308C596.509 62.5353 596.83 62.7126 597.204 62.8174C597.576 62.9171 597.984 62.9412 598.376 62.8867C598.768 62.8321 599.128 62.7014 599.411 62.5105C599.694 62.3197 599.888 62.0771 599.969 61.8128C600.05 61.5485 600.014 61.274 599.867 61.0232C599.736 60.8138 599.531 60.6292 599.27 60.4856C599.009 60.342 598.699 60.2437 598.369 60.1995C598.038 60.1552 597.697 60.1662 597.374 60.2316C597.051 60.2971 596.757 60.4148 596.517 60.5746C596.328 60.7032 596.178 60.8556 596.075 61.0232C595.972 61.1902 595.919 61.3696 595.921 61.5507L595.937 61.5399Z" fill="url(#paint84_linear_266_336)"/>
<path d="M550.594 25.7878V-10.8578L559.15 -19.2907V-47.7761" stroke="url(#paint85_linear_266_336)" stroke-width="0.798669" stroke-miterlimit="10"/>
<path d="M552.649 25.7052C552.648 25.9786 552.528 26.2457 552.303 26.4732C552.076 26.6996 551.756 26.8767 551.382 26.9828C551.007 27.0879 550.594 27.1154 550.195 27.0617C549.797 27.008 549.432 26.8756 549.145 26.6813C548.854 26.4861 548.657 26.2359 548.581 25.9636C548.511 25.7182 548.541 25.4646 548.667 25.2297C548.793 24.9947 549.011 24.7871 549.298 24.629C549.585 24.4708 549.931 24.3679 550.297 24.3312C550.664 24.2945 551.039 24.3254 551.382 24.4206C551.63 24.4907 551.855 24.5917 552.047 24.7184C552.236 24.8472 552.386 24.9996 552.489 25.167C552.595 25.3338 552.649 25.5132 552.649 25.6945V25.7052Z" fill="url(#paint86_linear_266_336)"/>
<path d="M542.033 34.2854V-10.8578L550.594 -19.2907V-47.7761" stroke="url(#paint87_linear_266_336)" stroke-width="0.798669" stroke-miterlimit="10"/>
<path d="M544.086 34.2171C544.085 34.4213 544.017 34.6228 543.886 34.8072C543.756 34.9915 543.567 35.1542 543.332 35.2835C543.098 35.4128 542.824 35.5055 542.53 35.555C542.236 35.6045 541.929 35.6097 541.632 35.57C541.228 35.5202 540.857 35.3888 540.567 35.1932C540.278 35.0007 540.081 34.7541 540.002 34.4854C539.923 34.2167 539.966 33.9382 540.125 33.686C540.282 33.4344 540.545 33.2195 540.883 33.0683C541.22 32.917 541.615 32.8361 542.02 32.8355C542.29 32.835 542.556 32.8705 542.805 32.9402C543.054 33.0098 543.279 33.1121 543.469 33.241C543.85 33.5013 544.066 33.8514 544.07 34.2171H544.086Z" fill="url(#paint88_linear_266_336)"/>
<path d="M639.714 42.119C639.714 42.3558 639.82 42.5872 640.017 42.7829C640.213 42.9809 640.491 43.1357 640.816 43.2279C641.142 43.3165 641.499 43.3402 641.844 43.296C642.191 43.2492 642.509 43.1344 642.76 42.9659C643.008 42.7984 643.177 42.5847 643.244 42.3523C643.313 42.1197 643.278 41.8786 643.143 41.6595C643.009 41.4404 642.781 41.2532 642.488 41.1214C642.22 40.9994 641.908 40.9289 641.585 40.9176C641.262 40.9062 640.94 40.9545 640.655 41.0571C640.37 41.1597 640.131 41.3128 639.966 41.4999C639.8 41.687 639.713 41.9011 639.714 42.119V42.119Z" fill="url(#paint89_linear_266_336)"/>
<path d="M569.767 -4.98343V7.24971" stroke="url(#paint90_linear_266_336)" stroke-width="0.798669" stroke-miterlimit="10"/>
<path d="M567.983 7.18877C567.986 7.42559 568.091 7.6567 568.287 7.85325C568.483 8.04981 568.761 8.20311 569.085 8.29403C569.41 8.38517 569.768 8.40931 570.113 8.36337C570.459 8.31744 570.776 8.2035 571.025 8.03599C571.274 7.86847 571.444 7.65491 571.513 7.42233C571.582 7.18975 571.547 6.94862 571.412 6.72945C571.28 6.50865 571.051 6.31986 570.757 6.18759C570.463 6.05731 570.119 5.98749 569.767 5.98663C569.532 5.98726 569.299 6.0193 569.083 6.0809C568.866 6.14249 568.67 6.23242 568.505 6.34548C568.169 6.57082 567.977 6.87633 567.973 7.19595L567.983 7.18877Z" fill="url(#paint91_linear_266_336)"/>
<path d="M566.21 -47.7761V-11.6437L561.093 -8.19871V44.0891" stroke="url(#paint92_linear_266_336)" stroke-width="0.798669" stroke-miterlimit="10"/>
<path d="M559.309 44.0138C559.308 44.2513 559.412 44.4837 559.607 44.6812C559.805 44.878 560.084 45.0313 560.409 45.1219C560.735 45.2125 561.093 45.2365 561.439 45.1908C561.784 45.1435 562.101 45.0287 562.35 44.8609C562.599 44.6931 562.769 44.4796 562.839 44.247C562.91 43.9951 562.859 43.7345 562.694 43.5035C562.529 43.2724 562.259 43.0829 561.923 42.9627C561.587 42.8424 561.203 42.7977 560.826 42.8351C560.45 42.8725 560.101 42.99 559.831 43.1705C559.663 43.2806 559.529 43.4122 559.438 43.5577C559.346 43.7031 559.299 43.8594 559.299 44.0174L559.309 44.0138Z" fill="url(#paint93_linear_266_336)"/>
<path d="M572.056 -47.7761V-23.1662L578.413 -16.6675V21.0116" stroke="url(#paint94_linear_266_336)" stroke-width="0.798669" stroke-miterlimit="10"/>
<path d="M576.63 20.9398C576.632 21.1773 576.737 21.4091 576.933 21.6064C577.129 21.8037 577.407 21.9575 577.733 22.0487C578.059 22.141 578.419 22.1647 578.766 22.1168C579.024 22.0826 579.268 22.0101 579.48 21.9045C579.692 21.7989 579.866 21.6628 579.991 21.5062C580.115 21.3496 580.186 21.1764 580.199 20.999C580.212 20.8216 580.166 20.6445 580.065 20.4805C579.928 20.2614 579.699 20.0743 579.405 19.9428C579.111 19.8113 578.767 19.7412 578.414 19.7413C578.18 19.7416 577.948 19.7735 577.732 19.8351C577.516 19.8967 577.321 19.9868 577.158 20.1001C576.822 20.3246 576.631 20.6286 576.625 20.947L576.63 20.9398Z" fill="url(#paint95_linear_266_336)"/>
<path d="M404.58 -16.5563V27.3703" stroke="url(#paint96_linear_266_336)" stroke-width="0.798669" stroke-miterlimit="10"/>
<path d="M358.981 -16.5563V36.808L378.303 45.6285" stroke="url(#paint97_linear_266_336)" stroke-width="0.798669" stroke-miterlimit="10"/>
<path d="M379.23 44.5986C379.524 44.7311 379.752 44.9199 379.885 45.1406C380.018 45.3613 380.049 45.6037 379.976 45.8367C379.907 46.0692 379.734 46.282 379.481 46.4467C379.23 46.6132 378.911 46.7259 378.565 46.7706C378.22 46.8153 377.862 46.79 377.537 46.6979C377.213 46.6058 376.936 46.451 376.742 46.253C376.547 46.0551 376.444 45.8228 376.446 45.5855C376.451 45.3475 376.558 45.1157 376.755 44.918C377.022 44.6561 377.432 44.4757 377.895 44.4159C378.359 44.3562 378.838 44.4218 379.23 44.5986V44.5986Z" fill="url(#paint98_linear_266_336)"/>
<path d="M351.98 -16.5563V41.43L379.369 53.2505V73.3962" stroke="url(#paint99_linear_266_336)" stroke-width="0.798669" stroke-miterlimit="10"/>
<path d="M381.148 73.3389C381.15 73.5754 381.046 73.8067 380.85 74.0028C380.653 74.2001 380.376 74.3547 380.051 74.4478C379.724 74.5365 379.365 74.5602 379.018 74.5159C378.687 74.4717 378.38 74.3649 378.135 74.2079C377.89 74.0509 377.717 73.8501 377.634 73.6291C377.552 73.4081 377.565 73.1759 377.671 72.9595C377.777 72.7431 377.972 72.5515 378.233 72.4071C378.495 72.2626 378.812 72.1711 379.147 72.1434C379.483 72.1157 379.823 72.1528 380.129 72.2505C380.434 72.3482 380.692 72.5023 380.873 72.695C381.053 72.8877 381.149 73.111 381.148 73.3389Z" fill="url(#paint100_linear_266_336)"/>
<path d="M275.888 -16.5563V5.97578L293.336 17.7209V57.998" stroke="url(#paint101_linear_266_336)" stroke-width="0.798669" stroke-miterlimit="10"/>
<path d="M295.088 57.9407C295.088 58.1779 294.983 58.4098 294.787 58.6068C294.591 58.8037 294.312 58.9566 293.985 59.0459C293.661 59.137 293.303 59.1612 292.958 59.1152C292.612 59.0693 292.295 58.9554 292.046 58.7879C291.797 58.6203 291.627 58.4068 291.558 58.1742C291.489 57.9416 291.524 57.7005 291.659 57.4813C291.792 57.2616 292.02 57.074 292.314 56.9431C292.582 56.821 292.894 56.7505 293.217 56.7392C293.54 56.7279 293.861 56.7761 294.146 56.8787C294.432 56.9813 294.67 57.1344 294.836 57.3215C295.002 57.5086 295.089 57.7227 295.088 57.9407V57.9407Z" fill="url(#paint102_linear_266_336)"/>
<path d="M294.428 -16.5563V4.05594L311.435 15.5032V45.6465L326.54 55.8126L327.903 83.0851" stroke="url(#paint103_linear_266_336)" stroke-width="0.798669" stroke-miterlimit="10"/>
<path d="M329.666 82.9955C329.676 83.2324 329.582 83.4659 329.395 83.6666C329.21 83.8687 328.939 84.0288 328.617 84.1259C328.298 84.2244 327.942 84.2568 327.595 84.2192C327.247 84.1796 326.923 84.0724 326.663 83.9106C326.401 83.7495 326.216 83.5397 326.131 83.3077C326.071 83.1348 326.068 82.9551 326.124 82.7816C326.18 82.608 326.292 82.445 326.452 82.3042C326.613 82.1634 326.818 82.0484 327.052 81.9675C327.287 81.8866 327.545 81.8418 327.808 81.8364C328.042 81.8289 328.276 81.8546 328.495 81.9118C328.714 81.9668 328.915 82.051 329.086 82.1594C329.258 82.2662 329.396 82.3957 329.491 82.5398C329.586 82.6835 329.64 82.8381 329.65 82.9955H329.666Z" fill="url(#paint104_linear_266_336)"/>
<path d="M302.927 -16.5563V0.532055" stroke="url(#paint105_linear_266_336)" stroke-width="0.798669" stroke-miterlimit="10"/>
<path d="M304.709 0.463892C304.71 0.641551 304.652 0.817058 304.539 0.977711C304.427 1.13837 304.263 1.28015 304.059 1.3928C303.855 1.50545 303.616 1.58615 303.361 1.62906C303.105 1.67197 302.838 1.67602 302.58 1.64091C302.235 1.59357 301.918 1.47884 301.669 1.31102C301.42 1.1432 301.25 0.929707 301.179 0.697143C301.128 0.523063 301.135 0.343519 301.199 0.1714C301.263 -0.000719887 301.383 -0.161146 301.55 -0.298364C301.717 -0.435582 301.927 -0.546189 302.165 -0.622243C302.402 -0.698298 302.662 -0.737915 302.926 -0.738251C303.4 -0.735013 303.853 -0.606106 304.188 -0.379402C304.355 -0.268398 304.489 -0.136079 304.58 0.0099013C304.672 0.155882 304.719 0.312627 304.72 0.471069L304.709 0.463892Z" fill="url(#paint106_linear_266_336)"/>
<path d="M312.461 -16.5563V6.91238" stroke="url(#paint107_linear_266_336)" stroke-width="0.798669" stroke-miterlimit="10"/>
<path d="M314.225 6.84419C314.231 7.0828 314.129 7.31702 313.932 7.51524C313.737 7.71342 313.459 7.86824 313.133 7.96021C312.807 8.05351 312.448 8.07852 312.1 8.03198C311.753 7.98519 311.435 7.87033 311.185 7.70184C310.933 7.53367 310.763 7.3187 310.695 7.08462C310.628 6.85137 310.666 6.61013 310.802 6.39116C310.939 6.17219 311.168 5.98524 311.461 5.85377C311.803 5.69995 312.213 5.63088 312.622 5.65837C313.031 5.68586 313.413 5.8082 313.703 6.00449C313.87 6.11386 314.002 6.24436 314.094 6.38848C314.185 6.5326 314.233 6.68748 314.235 6.84419H314.225Z" fill="url(#paint108_linear_266_336)"/>
<path d="M366.984 -16.5563V6.91238" stroke="url(#paint109_linear_266_336)" stroke-width="0.798669" stroke-miterlimit="10"/>
<path d="M368.768 6.84431C368.767 7.08174 368.662 7.31362 368.466 7.51088C368.27 7.70814 367.992 7.86199 367.666 7.95315C367.341 8.04429 366.984 8.06842 366.638 8.02249C366.293 7.97656 365.976 7.86262 365.727 7.69511C365.478 7.52759 365.308 7.31403 365.239 7.08145C365.17 6.84887 365.205 6.60774 365.34 6.38857C365.472 6.16777 365.7 5.97898 365.994 5.84671C366.289 5.71643 366.633 5.64661 366.985 5.64575C367.22 5.64638 367.452 5.67842 367.669 5.74002C367.886 5.80161 368.082 5.89154 368.247 6.0046C368.582 6.22883 368.773 6.53302 368.779 6.85148L368.768 6.84431Z" fill="url(#paint110_linear_266_336)"/>
<path d="M337.248 16.8632V67.4931" stroke="url(#paint111_linear_266_336)" stroke-width="0.798669" stroke-miterlimit="10"/>
<path d="M339.02 67.4322C339.021 67.6099 338.963 67.7854 338.85 67.946C338.737 68.1067 338.573 68.2485 338.37 68.3611C338.166 68.4738 337.927 68.5545 337.671 68.5974C337.416 68.6403 337.149 68.6443 336.89 68.6092C336.545 68.5653 336.227 68.4514 335.98 68.2827C335.73 68.1153 335.56 67.9018 335.49 67.669C335.438 67.4949 335.444 67.3151 335.508 67.1427C335.571 66.9703 335.691 66.8096 335.858 66.6722C336.025 66.5348 336.236 66.4242 336.474 66.3484C336.713 66.2725 336.973 66.2333 337.237 66.2336C337.472 66.2346 337.705 66.2651 337.923 66.3234C338.138 66.3852 338.333 66.4741 338.498 66.5853C338.665 66.6957 338.797 66.8275 338.887 66.9729C338.976 67.1186 339.021 67.2747 339.02 67.4322Z" fill="url(#paint112_linear_266_336)"/>
<path d="M368.746 69.3915V56.516L350.228 48.7541" stroke="url(#paint113_linear_266_336)" stroke-width="0.798669" stroke-miterlimit="10"/>
<path d="M366.963 69.3305C366.965 69.5679 367.07 69.7998 367.266 69.9971C367.462 70.1943 367.74 70.3482 368.066 70.4393C368.39 70.5313 368.748 70.5551 369.093 70.5075C369.44 70.4621 369.758 70.3485 370.009 70.181C370.257 70.0124 370.426 69.7981 370.494 69.5651C370.562 69.3321 370.527 69.0907 370.392 68.8712C370.258 68.652 370.03 68.4647 369.737 68.3329C369.443 68.2026 369.099 68.1328 368.747 68.1319C368.512 68.1326 368.279 68.1646 368.063 68.2262C367.846 68.2878 367.65 68.3777 367.485 68.4908C367.15 68.715 366.958 69.0192 366.953 69.3377L366.963 69.3305Z" fill="url(#paint114_linear_266_336)"/>
<path d="M338.078 -16.5563V7.97457L327.962 14.7927V44.5197" stroke="url(#paint115_linear_266_336)" stroke-width="0.798669" stroke-miterlimit="10"/>
<path d="M329.745 44.4479C329.744 44.6846 329.638 44.9158 329.441 45.1117C329.244 45.309 328.967 45.4636 328.642 45.5567C328.315 45.6455 327.956 45.6691 327.609 45.6249C327.279 45.5801 326.975 45.4731 326.732 45.3163C326.489 45.1596 326.316 44.9596 326.235 44.7394C326.154 44.5193 326.167 44.2882 326.273 44.0729C326.379 43.8576 326.573 43.667 326.833 43.5232C327.093 43.3793 327.409 43.2882 327.743 43.2604C328.077 43.2326 328.416 43.2693 328.72 43.3661C329.024 43.463 329.282 43.616 329.462 43.8075C329.642 43.999 329.739 44.221 329.739 44.4479H329.745Z" fill="url(#paint116_linear_266_336)"/>
<path d="M330.075 -16.5563V2.67438L319.351 9.89441L319.793 23.222" stroke="url(#paint117_linear_266_336)" stroke-width="0.798669" stroke-miterlimit="10"/>
<path d="M321.567 23.1359C321.577 23.3733 321.481 23.6073 321.29 23.807C321.101 24.0075 320.829 24.1661 320.507 24.2627C320.183 24.356 319.827 24.3847 319.479 24.3452C319.132 24.303 318.81 24.1933 318.553 24.0295C318.287 23.8691 318.101 23.6573 318.021 23.423C317.952 23.1922 317.987 22.953 318.119 22.7353C318.252 22.5176 318.477 22.3312 318.766 22.1993C319.005 22.085 319.283 22.0126 319.574 21.9888C319.865 21.965 320.16 21.9905 320.433 22.063C320.651 22.1185 320.851 22.2041 321.018 22.3142C321.19 22.4216 321.326 22.5525 321.418 22.6981C321.512 22.8418 321.563 22.9968 321.567 23.1539V23.1359Z" fill="url(#paint118_linear_266_336)"/>
<path d="M451.096 26.2363V38.4695" stroke="url(#paint119_linear_266_336)" stroke-width="0.798669" stroke-miterlimit="10"/>
<path d="M413.153 -16.5563V22.7771" stroke="url(#paint120_linear_266_336)" stroke-width="0.798669" stroke-miterlimit="10"/>
<path d="M266.928 -16.5563V-7.44156H248.138V62.6487" stroke="url(#paint121_linear_266_336)" stroke-width="0.798669" stroke-miterlimit="10"/>
<path d="M249.915 62.5841C249.914 62.8215 249.808 63.0534 249.612 63.2507C249.416 63.4479 249.138 63.6018 248.813 63.6929C248.488 63.7852 248.13 63.8089 247.785 63.7611C247.439 63.7157 247.12 63.6021 246.869 63.4346C246.623 63.266 246.455 63.0528 246.385 62.8209C246.316 62.5878 246.351 62.3462 246.485 62.1264C246.62 61.9067 246.848 61.7188 247.141 61.5865C247.435 61.4562 247.779 61.3864 248.131 61.3855C248.365 61.3861 248.596 61.4166 248.813 61.4752C249.03 61.5361 249.227 61.6251 249.393 61.7372C249.558 61.8477 249.689 61.9795 249.776 62.1248C249.867 62.2702 249.914 62.4263 249.915 62.5841Z" fill="url(#paint122_linear_266_336)"/>
<path d="M255.337 -16.5563V-13.1544H240.961V13.7161" stroke="url(#paint123_linear_266_336)" stroke-width="0.798669" stroke-miterlimit="10"/>
<path d="M242.712 13.6552C242.71 13.8913 242.607 14.122 242.414 14.3191C242.218 14.5172 241.94 14.6717 241.614 14.7631C241.287 14.8544 240.928 14.8785 240.582 14.8322C240.236 14.7862 239.919 14.6712 239.672 14.5021C239.422 14.3349 239.251 14.1215 239.182 13.8889C239.113 13.6562 239.148 13.415 239.283 13.1959C239.416 12.9762 239.644 12.7886 239.938 12.6576C240.206 12.5356 240.518 12.4651 240.841 12.4537C241.164 12.4424 241.485 12.4906 241.771 12.5932C242.056 12.6958 242.294 12.8489 242.46 13.0361C242.626 13.2232 242.713 13.4372 242.712 13.6552V13.6552Z" fill="url(#paint124_linear_266_336)"/>
<path d="M255.336 73.371V21.6287L267.305 29.6812" stroke="url(#paint125_linear_266_336)" stroke-width="0.798669" stroke-miterlimit="10"/>
<path d="M253.553 73.3065C253.551 73.5444 253.655 73.7771 253.852 73.9747C254.048 74.1723 254.328 74.3258 254.655 74.4153C254.979 74.5076 255.338 74.5313 255.683 74.4835C256.029 74.4381 256.348 74.3245 256.598 74.157C256.847 73.9884 257.015 73.7741 257.084 73.5411C257.152 73.3081 257.116 73.0667 256.982 72.8472C256.847 72.628 256.619 72.4407 256.327 72.3089C256.033 72.1786 255.689 72.1088 255.336 72.1079C254.864 72.1079 254.411 72.2341 254.077 72.4588C253.743 72.6834 253.554 72.9883 253.553 73.3065V73.3065Z" fill="url(#paint126_linear_266_336)"/>
<path d="M285.196 70.2348V21.2197L265.634 8.05356L265.027 -0.853058H255.336V10.4578L275.931 24.3202V54.9694" stroke="url(#paint127_linear_266_336)" stroke-width="0.798669" stroke-miterlimit="10"/>
<path d="M283.412 70.1738C283.411 70.4118 283.515 70.6445 283.71 70.8427C283.906 71.0409 284.184 71.1955 284.51 71.287C284.836 71.3786 285.194 71.4029 285.541 71.3569C285.887 71.3109 286.205 71.1967 286.455 71.0287C286.705 70.8608 286.876 70.6466 286.945 70.4133C287.014 70.18 286.979 69.9381 286.844 69.7182C286.71 69.4984 286.481 69.3104 286.188 69.1781C285.894 69.0459 285.549 68.9753 285.196 68.9753C284.961 68.9745 284.727 69.005 284.509 69.065C284.295 69.1255 284.1 69.2132 283.934 69.3234C283.768 69.4353 283.636 69.5682 283.545 69.7145C283.456 69.8602 283.411 70.0163 283.412 70.1738V70.1738Z" fill="url(#paint128_linear_266_336)"/>
<path d="M277.704 54.9082C277.706 55.1458 277.602 55.3783 277.406 55.5757C277.209 55.773 276.932 55.9276 276.607 56.0207C276.282 56.1112 275.925 56.1349 275.58 56.0888C275.234 56.0419 274.916 55.9284 274.664 55.7623C274.414 55.5947 274.243 55.3806 274.173 55.1473C274.104 54.914 274.139 54.6721 274.275 54.4523C274.41 54.2326 274.639 54.045 274.933 53.9134C275.227 53.7817 275.573 53.7121 275.926 53.7133C276.16 53.7125 276.391 53.743 276.607 53.803C276.822 53.8635 277.017 53.9512 277.183 54.0613C277.349 54.1733 277.481 54.3062 277.571 54.4525C277.661 54.5968 277.706 54.7518 277.704 54.9082V54.9082Z" fill="url(#paint129_linear_266_336)"/>
</g>
<defs>
<radialGradient id="paint0_diamond_266_336" cx="0" cy="0" r="1" gradientUnits="userSpaceOnUse" gradientTransform="translate(640.534 135.697) rotate(112.442) scale(456.463 3140.85)">
<stop stop-color="#5191F4"/>
<stop offset="1" stop-color="#619CF9" stop-opacity="0.68"/>
</radialGradient>
<linearGradient id="paint1_linear_266_336" x1="103.281" y1="-51.0057" x2="103.281" y2="81.3985" gradientUnits="userSpaceOnUse">
<stop stop-color="white"/>
<stop offset="0.63" stop-color="#B9D7FF"/>
<stop offset="0.87" stop-color="#B0D0FF"/>
<stop offset="1" stop-color="white"/>
</linearGradient>
<linearGradient id="paint2_linear_266_336" x1="101.501" y1="80.1999" x2="105.063" y2="80.1999" gradientUnits="userSpaceOnUse">
<stop stop-color="white"/>
<stop offset="0.63" stop-color="#B9D7FF"/>
<stop offset="0.87" stop-color="#B0D0FF"/>
<stop offset="1" stop-color="white"/>
</linearGradient>
<linearGradient id="paint3_linear_266_336" x1="92.7379" y1="98.9929" x2="92.7379" y2="94.3278" gradientUnits="userSpaceOnUse">
<stop stop-color="white"/>
<stop offset="0.63" stop-color="#B9D7FF"/>
<stop offset="0.87" stop-color="#B0D0FF"/>
<stop offset="1" stop-color="white"/>
</linearGradient>
<linearGradient id="paint4_linear_266_336" x1="90.8684" y1="93.1293" x2="94.4305" y2="93.1293" gradientUnits="userSpaceOnUse">
<stop stop-color="white"/>
<stop offset="0.63" stop-color="#B9D7FF"/>
<stop offset="0.87" stop-color="#B0D0FF"/>
<stop offset="1" stop-color="white"/>
</linearGradient>
<linearGradient id="paint5_linear_266_336" x1="81.9505" y1="98.9929" x2="81.9505" y2="47.9539" gradientUnits="userSpaceOnUse">
<stop stop-color="white"/>
<stop offset="0.63" stop-color="#B9D7FF"/>
<stop offset="0.87" stop-color="#B0D0FF"/>
<stop offset="1" stop-color="white"/>
</linearGradient>
<linearGradient id="paint6_linear_266_336" x1="71.5198" y1="46.7518" x2="75.0819" y2="46.7518" gradientUnits="userSpaceOnUse">
<stop stop-color="white"/>
<stop offset="0.63" stop-color="#B9D7FF"/>
<stop offset="0.87" stop-color="#B0D0FF"/>
<stop offset="1" stop-color="white"/>
</linearGradient>
<linearGradient id="paint7_linear_266_336" x1="42.9906" y1="98.9929" x2="42.9906" y2="9.61093" gradientUnits="userSpaceOnUse">
<stop stop-color="white"/>
<stop offset="0.63" stop-color="#B9D7FF"/>
<stop offset="0.87" stop-color="#B0D0FF"/>
<stop offset="1" stop-color="white"/>
</linearGradient>
<linearGradient id="paint8_linear_266_336" x1="45.2172" y1="8.23292" x2="49.3223" y2="8.23292" gradientUnits="userSpaceOnUse">
<stop stop-color="white"/>
<stop offset="0.63" stop-color="#B9D7FF"/>
<stop offset="0.87" stop-color="#B0D0FF"/>
<stop offset="1" stop-color="white"/>
</linearGradient>
<linearGradient id="paint9_linear_266_336" x1="56.4189" y1="98.9929" x2="56.4189" y2="59.6918" gradientUnits="userSpaceOnUse">
<stop stop-color="white"/>
<stop offset="0.63" stop-color="#B9D7FF"/>
<stop offset="0.87" stop-color="#B0D0FF"/>
<stop offset="1" stop-color="white"/>
</linearGradient>
<linearGradient id="paint10_linear_266_336" x1="54.9656" y1="58.3102" x2="59.0707" y2="58.3102" gradientUnits="userSpaceOnUse">
<stop stop-color="white"/>
<stop offset="0.63" stop-color="#B9D7FF"/>
<stop offset="0.87" stop-color="#B0D0FF"/>
<stop offset="1" stop-color="white"/>
</linearGradient>
<linearGradient id="paint11_linear_266_336" x1="13.9028" y1="98.9929" x2="13.9028" y2="23.8572" gradientUnits="userSpaceOnUse">
<stop stop-color="white"/>
<stop offset="0.63" stop-color="#B9D7FF"/>
<stop offset="0.87" stop-color="#B0D0FF"/>
<stop offset="1" stop-color="white"/>
</linearGradient>
<linearGradient id="paint12_linear_266_336" x1="7.57344" y1="22.4756" x2="11.6786" y2="22.4756" gradientUnits="userSpaceOnUse">
<stop stop-color="white"/>
<stop offset="0.63" stop-color="#B9D7FF"/>
<stop offset="0.87" stop-color="#B0D0FF"/>
<stop offset="1" stop-color="white"/>
</linearGradient>
<linearGradient id="paint13_linear_266_336" x1="0.667072" y1="-9.97501" x2="10.0275" y2="-9.97501" gradientUnits="userSpaceOnUse">
<stop stop-color="white"/>
<stop offset="0.63" stop-color="#B9D7FF"/>
<stop offset="0.87" stop-color="#B0D0FF"/>
<stop offset="1" stop-color="white"/>
</linearGradient>
<linearGradient id="paint14_linear_266_336" x1="111.342" y1="98.9929" x2="111.342" y2="11.9506" gradientUnits="userSpaceOnUse">
<stop stop-color="white"/>
<stop offset="0.63" stop-color="#B9D7FF"/>
<stop offset="0.87" stop-color="#B0D0FF"/>
<stop offset="1" stop-color="white"/>
</linearGradient>
<linearGradient id="paint15_linear_266_336" x1="99.8832" y1="11.1432" x2="103.451" y2="11.1432" gradientUnits="userSpaceOnUse">
<stop stop-color="white"/>
<stop offset="0.63" stop-color="#B9D7FF"/>
<stop offset="0.87" stop-color="#B0D0FF"/>
<stop offset="1" stop-color="white"/>
</linearGradient>
<linearGradient id="paint16_linear_266_336" x1="114.222" y1="98.9929" x2="114.222" y2="40.0879" gradientUnits="userSpaceOnUse">
<stop stop-color="white"/>
<stop offset="0.63" stop-color="#B9D7FF"/>
<stop offset="0.87" stop-color="#B0D0FF"/>
<stop offset="1" stop-color="white"/>
</linearGradient>
<linearGradient id="paint17_linear_266_336" x1="98.7488" y1="38.8893" x2="102.311" y2="38.8893" gradientUnits="userSpaceOnUse">
<stop stop-color="white"/>
<stop offset="0.63" stop-color="#B9D7FF"/>
<stop offset="0.87" stop-color="#B0D0FF"/>
<stop offset="1" stop-color="white"/>
</linearGradient>
<linearGradient id="paint18_linear_266_336" x1="128.072" y1="98.9929" x2="128.072" y2="47.9539" gradientUnits="userSpaceOnUse">
<stop stop-color="white"/>
<stop offset="0.63" stop-color="#B9D7FF"/>
<stop offset="0.87" stop-color="#B0D0FF"/>
<stop offset="1" stop-color="white"/>
</linearGradient>
<linearGradient id="paint19_linear_266_336" x1="119.132" y1="46.7518" x2="122.694" y2="46.7518" gradientUnits="userSpaceOnUse">
<stop stop-color="white"/>
<stop offset="0.63" stop-color="#B9D7FF"/>
<stop offset="0.87" stop-color="#B0D0FF"/>
<stop offset="1" stop-color="white"/>
</linearGradient>
<linearGradient id="paint20_linear_266_336" x1="195.308" y1="98.9929" x2="195.308" y2="24.6897" gradientUnits="userSpaceOnUse">
<stop stop-color="white"/>
<stop offset="0.63" stop-color="#B9D7FF"/>
<stop offset="0.87" stop-color="#B0D0FF"/>
<stop offset="1" stop-color="white"/>
</linearGradient>
<linearGradient id="paint21_linear_266_336" x1="184.809" y1="23.4912" x2="188.371" y2="23.4912" gradientUnits="userSpaceOnUse">
<stop stop-color="white"/>
<stop offset="0.63" stop-color="#B9D7FF"/>
<stop offset="0.87" stop-color="#B0D0FF"/>
<stop offset="1" stop-color="white"/>
</linearGradient>
<linearGradient id="paint22_linear_266_336" x1="179.66" y1="98.9929" x2="179.66" y2="57.7935" gradientUnits="userSpaceOnUse">
<stop stop-color="white"/>
<stop offset="0.63" stop-color="#B9D7FF"/>
<stop offset="0.87" stop-color="#B0D0FF"/>
<stop offset="1" stop-color="white"/>
</linearGradient>
<linearGradient id="paint23_linear_266_336" x1="163.334" y1="56.595" x2="166.902" y2="56.595" gradientUnits="userSpaceOnUse">
<stop stop-color="white"/>
<stop offset="0.63" stop-color="#B9D7FF"/>
<stop offset="0.87" stop-color="#B0D0FF"/>
<stop offset="1" stop-color="white"/>
</linearGradient>
<linearGradient id="paint24_linear_266_336" x1="168.734" y1="98.9929" x2="168.734" y2="49.7912" gradientUnits="userSpaceOnUse">
<stop stop-color="white"/>
<stop offset="0.63" stop-color="#B9D7FF"/>
<stop offset="0.87" stop-color="#B0D0FF"/>
<stop offset="1" stop-color="white"/>
</linearGradient>
<linearGradient id="paint25_linear_266_336" x1="150.215" y1="48.5855" x2="153.782" y2="48.5855" gradientUnits="userSpaceOnUse">
<stop stop-color="white"/>
<stop offset="0.63" stop-color="#B9D7FF"/>
<stop offset="0.87" stop-color="#B0D0FF"/>
<stop offset="1" stop-color="white"/>
</linearGradient>
<linearGradient id="paint26_linear_266_336" x1="-nan" y1="-nan" x2="-nan" y2="-nan" gradientUnits="userSpaceOnUse">
<stop stop-color="white"/>
<stop offset="0.63" stop-color="#B9D7FF"/>
<stop offset="0.87" stop-color="#B0D0FF"/>
<stop offset="1" stop-color="white"/>
</linearGradient>
<linearGradient id="paint27_linear_266_336" x1="140.876" y1="32.9827" x2="144.438" y2="32.9827" gradientUnits="userSpaceOnUse">
<stop stop-color="white"/>
<stop offset="0.63" stop-color="#B9D7FF"/>
<stop offset="0.87" stop-color="#B0D0FF"/>
<stop offset="1" stop-color="white"/>
</linearGradient>
<linearGradient id="paint28_linear_266_336" x1="120.312" y1="14.1647" x2="120.312" y2="36.0832" gradientUnits="userSpaceOnUse">
<stop stop-color="white"/>
<stop offset="0.63" stop-color="#B9D7FF"/>
<stop offset="0.87" stop-color="#B0D0FF"/>
<stop offset="1" stop-color="white"/>
</linearGradient>
<linearGradient id="paint29_linear_266_336" x1="109.366" y1="34.881" x2="112.933" y2="34.881" gradientUnits="userSpaceOnUse">
<stop stop-color="white"/>
<stop offset="0.63" stop-color="#B9D7FF"/>
<stop offset="0.87" stop-color="#B0D0FF"/>
<stop offset="1" stop-color="white"/>
</linearGradient>
<linearGradient id="paint30_linear_266_336" x1="146.875" y1="98.9929" x2="146.875" y2="11.2078" gradientUnits="userSpaceOnUse">
<stop stop-color="white"/>
<stop offset="0.63" stop-color="#B9D7FF"/>
<stop offset="0.87" stop-color="#B0D0FF"/>
<stop offset="1" stop-color="white"/>
</linearGradient>
<linearGradient id="paint31_linear_266_336" x1="150.156" y1="10.0092" x2="153.718" y2="10.0092" gradientUnits="userSpaceOnUse">
<stop stop-color="white"/>
<stop offset="0.63" stop-color="#B9D7FF"/>
<stop offset="0.87" stop-color="#B0D0FF"/>
<stop offset="1" stop-color="white"/>
</linearGradient>
<linearGradient id="paint32_linear_266_336" x1="-nan" y1="-nan" x2="-nan" y2="-nan" gradientUnits="userSpaceOnUse">
<stop stop-color="white"/>
<stop offset="0.63" stop-color="#B9D7FF"/>
<stop offset="0.87" stop-color="#B0D0FF"/>
<stop offset="1" stop-color="white"/>
</linearGradient>
<linearGradient id="paint33_linear_266_336" x1="27.0174" y1="3.95907" x2="30.5795" y2="3.95907" gradientUnits="userSpaceOnUse">
<stop stop-color="white"/>
<stop offset="0.63" stop-color="#B9D7FF"/>
<stop offset="0.87" stop-color="#B0D0FF"/>
<stop offset="1" stop-color="white"/>
</linearGradient>
<linearGradient id="paint34_linear_266_336" x1="22.6826" y1="98.9929" x2="22.6826" y2="41.9826" gradientUnits="userSpaceOnUse">
<stop stop-color="white"/>
<stop offset="0.63" stop-color="#B9D7FF"/>
<stop offset="0.87" stop-color="#B0D0FF"/>
<stop offset="1" stop-color="white"/>
</linearGradient>
<linearGradient id="paint35_linear_266_336" x1="18.3377" y1="40.7841" x2="21.9051" y2="40.7841" gradientUnits="userSpaceOnUse">
<stop stop-color="white"/>
<stop offset="0.63" stop-color="#B9D7FF"/>
<stop offset="0.87" stop-color="#B0D0FF"/>
<stop offset="1" stop-color="white"/>
</linearGradient>
<linearGradient id="paint36_linear_266_336" x1="34.2646" y1="98.9929" x2="34.2646" y2="18.9015" gradientUnits="userSpaceOnUse">
<stop stop-color="white"/>
<stop offset="0.63" stop-color="#B9D7FF"/>
<stop offset="0.87" stop-color="#B0D0FF"/>
<stop offset="1" stop-color="white"/>
</linearGradient>
<linearGradient id="paint37_linear_266_336" x1="35.6655" y1="17.71" x2="39.2276" y2="17.71" gradientUnits="userSpaceOnUse">
<stop stop-color="white"/>
<stop offset="0.63" stop-color="#B9D7FF"/>
<stop offset="0.87" stop-color="#B0D0FF"/>
<stop offset="1" stop-color="white"/>
</linearGradient>
<linearGradient id="paint38_linear_266_336" x1="222.366" y1="98.9929" x2="222.366" y2="29.3368" gradientUnits="userSpaceOnUse">
<stop stop-color="white"/>
<stop offset="0.63" stop-color="#B9D7FF"/>
<stop offset="0.87" stop-color="#B0D0FF"/>
<stop offset="1" stop-color="white"/>
</linearGradient>
<linearGradient id="paint39_linear_266_336" x1="229.981" y1="28.1347" x2="233.549" y2="28.1347" gradientUnits="userSpaceOnUse">
<stop stop-color="white"/>
<stop offset="0.63" stop-color="#B9D7FF"/>
<stop offset="0.87" stop-color="#B0D0FF"/>
<stop offset="1" stop-color="white"/>
</linearGradient>
<linearGradient id="paint40_linear_266_336" x1="218.576" y1="-13.2083" x2="218.576" y2="50.6272" gradientUnits="userSpaceOnUse">
<stop stop-color="white"/>
<stop offset="0.63" stop-color="#B9D7FF"/>
<stop offset="0.87" stop-color="#B0D0FF"/>
<stop offset="1" stop-color="white"/>
</linearGradient>
<linearGradient id="paint41_linear_266_336" x1="222.777" y1="38.8571" x2="226.345" y2="38.8571" gradientUnits="userSpaceOnUse">
<stop stop-color="white"/>
<stop offset="0.63" stop-color="#B9D7FF"/>
<stop offset="0.87" stop-color="#B0D0FF"/>
<stop offset="1" stop-color="white"/>
</linearGradient>
<linearGradient id="paint42_linear_266_336" x1="210.807" y1="49.4288" x2="214.375" y2="49.4288" gradientUnits="userSpaceOnUse">
<stop stop-color="white"/>
<stop offset="0.63" stop-color="#B9D7FF"/>
<stop offset="0.87" stop-color="#B0D0FF"/>
<stop offset="1" stop-color="white"/>
</linearGradient>
<linearGradient id="paint43_linear_266_336" x1="209.632" y1="-35.4604" x2="209.632" y2="36.9265" gradientUnits="userSpaceOnUse">
<stop stop-color="white"/>
<stop offset="0.63" stop-color="#B9D7FF"/>
<stop offset="0.87" stop-color="#B0D0FF"/>
<stop offset="1" stop-color="white"/>
</linearGradient>
<linearGradient id="paint44_linear_266_336" x1="192.923" y1="35.7243" x2="196.485" y2="35.7243" gradientUnits="userSpaceOnUse">
<stop stop-color="white"/>
<stop offset="0.63" stop-color="#B9D7FF"/>
<stop offset="0.87" stop-color="#B0D0FF"/>
<stop offset="1" stop-color="white"/>
</linearGradient>
<linearGradient id="paint45_linear_266_336" x1="202.193" y1="20.4625" x2="205.755" y2="20.4625" gradientUnits="userSpaceOnUse">
<stop stop-color="white"/>
<stop offset="0.63" stop-color="#B9D7FF"/>
<stop offset="0.87" stop-color="#B0D0FF"/>
<stop offset="1" stop-color="white"/>
</linearGradient>
<linearGradient id="paint46_linear_266_336" x1="481.855" y1="-46.3407" x2="481.855" y2="86.0636" gradientUnits="userSpaceOnUse">
<stop stop-color="white"/>
<stop offset="0.63" stop-color="#B9D7FF"/>
<stop offset="0.87" stop-color="#B0D0FF"/>
<stop offset="1" stop-color="white"/>
</linearGradient>
<linearGradient id="paint47_linear_266_336" x1="480.071" y1="84.865" x2="483.638" y2="84.865" gradientUnits="userSpaceOnUse">
<stop stop-color="white"/>
<stop offset="0.63" stop-color="#B9D7FF"/>
<stop offset="0.87" stop-color="#B0D0FF"/>
<stop offset="1" stop-color="white"/>
</linearGradient>
<linearGradient id="paint48_linear_266_336" x1="471.312" y1="-46.3407" x2="471.312" y2="98.9929" gradientUnits="userSpaceOnUse">
<stop stop-color="white"/>
<stop offset="0.63" stop-color="#B9D7FF"/>
<stop offset="0.87" stop-color="#B0D0FF"/>
<stop offset="1" stop-color="white"/>
</linearGradient>
<linearGradient id="paint49_linear_266_336" x1="469.438" y1="97.7943" x2="473.005" y2="97.7943" gradientUnits="userSpaceOnUse">
<stop stop-color="white"/>
<stop offset="0.63" stop-color="#B9D7FF"/>
<stop offset="0.87" stop-color="#B0D0FF"/>
<stop offset="1" stop-color="white"/>
</linearGradient>
<linearGradient id="paint50_linear_266_336" x1="460.52" y1="-46.3407" x2="460.52" y2="52.6189" gradientUnits="userSpaceOnUse">
<stop stop-color="white"/>
<stop offset="0.63" stop-color="#B9D7FF"/>
<stop offset="0.87" stop-color="#B0D0FF"/>
<stop offset="1" stop-color="white"/>
</linearGradient>
<linearGradient id="paint51_linear_266_336" x1="450.089" y1="51.4168" x2="453.656" y2="51.4168" gradientUnits="userSpaceOnUse">
<stop stop-color="white"/>
<stop offset="0.63" stop-color="#B9D7FF"/>
<stop offset="0.87" stop-color="#B0D0FF"/>
<stop offset="1" stop-color="white"/>
</linearGradient>
<linearGradient id="paint52_linear_266_336" x1="421.561" y1="-46.3407" x2="421.561" y2="14.276" gradientUnits="userSpaceOnUse">
<stop stop-color="white"/>
<stop offset="0.63" stop-color="#B9D7FF"/>
<stop offset="0.87" stop-color="#B0D0FF"/>
<stop offset="1" stop-color="white"/>
</linearGradient>
<linearGradient id="paint53_linear_266_336" x1="423.791" y1="12.898" x2="427.89" y2="12.898" gradientUnits="userSpaceOnUse">
<stop stop-color="white"/>
<stop offset="0.63" stop-color="#B9D7FF"/>
<stop offset="0.87" stop-color="#B0D0FF"/>
<stop offset="1" stop-color="white"/>
</linearGradient>
<linearGradient id="paint54_linear_266_336" x1="434.989" y1="-46.3407" x2="434.989" y2="64.3568" gradientUnits="userSpaceOnUse">
<stop stop-color="white"/>
<stop offset="0.63" stop-color="#B9D7FF"/>
<stop offset="0.87" stop-color="#B0D0FF"/>
<stop offset="1" stop-color="white"/>
</linearGradient>
<linearGradient id="paint55_linear_266_336" x1="433.541" y1="62.9753" x2="437.64" y2="62.9753" gradientUnits="userSpaceOnUse">
<stop stop-color="white"/>
<stop offset="0.63" stop-color="#B9D7FF"/>
<stop offset="0.87" stop-color="#B0D0FF"/>
<stop offset="1" stop-color="white"/>
</linearGradient>
<linearGradient id="paint56_linear_266_336" x1="392.479" y1="-46.3407" x2="392.479" y2="28.5187" gradientUnits="userSpaceOnUse">
<stop stop-color="white"/>
<stop offset="0.63" stop-color="#B9D7FF"/>
<stop offset="0.87" stop-color="#B0D0FF"/>
<stop offset="1" stop-color="white"/>
</linearGradient>
<linearGradient id="paint57_linear_266_336" x1="386.147" y1="27.1406" x2="390.247" y2="27.1406" gradientUnits="userSpaceOnUse">
<stop stop-color="white"/>
<stop offset="0.63" stop-color="#B9D7FF"/>
<stop offset="0.87" stop-color="#B0D0FF"/>
<stop offset="1" stop-color="white"/>
</linearGradient>
<linearGradient id="paint58_linear_266_336" x1="383.916" y1="-46.3407" x2="383.916" y2="37.0305" gradientUnits="userSpaceOnUse">
<stop stop-color="white"/>
<stop offset="0.63" stop-color="#B9D7FF"/>
<stop offset="0.87" stop-color="#B0D0FF"/>
<stop offset="1" stop-color="white"/>
</linearGradient>
<linearGradient id="paint59_linear_266_336" x1="377.585" y1="35.6525" x2="381.691" y2="35.6525" gradientUnits="userSpaceOnUse">
<stop stop-color="white"/>
<stop offset="0.63" stop-color="#B9D7FF"/>
<stop offset="0.87" stop-color="#B0D0FF"/>
<stop offset="1" stop-color="white"/>
</linearGradient>
<linearGradient id="paint60_linear_266_336" x1="489.911" y1="-46.3407" x2="489.911" y2="16.6157" gradientUnits="userSpaceOnUse">
<stop stop-color="white"/>
<stop offset="0.63" stop-color="#B9D7FF"/>
<stop offset="0.87" stop-color="#B0D0FF"/>
<stop offset="1" stop-color="white"/>
</linearGradient>
<linearGradient id="paint61_linear_266_336" x1="478.453" y1="15.8082" x2="482.02" y2="15.8082" gradientUnits="userSpaceOnUse">
<stop stop-color="white"/>
<stop offset="0.63" stop-color="#B9D7FF"/>
<stop offset="0.87" stop-color="#B0D0FF"/>
<stop offset="1" stop-color="white"/>
</linearGradient>
<linearGradient id="paint62_linear_266_336" x1="492.796" y1="-46.3407" x2="492.796" y2="44.753" gradientUnits="userSpaceOnUse">
<stop stop-color="white"/>
<stop offset="0.63" stop-color="#B9D7FF"/>
<stop offset="0.87" stop-color="#B0D0FF"/>
<stop offset="1" stop-color="white"/>
</linearGradient>
<linearGradient id="paint63_linear_266_336" x1="477.317" y1="43.5544" x2="480.885" y2="43.5544" gradientUnits="userSpaceOnUse">
<stop stop-color="white"/>
<stop offset="0.63" stop-color="#B9D7FF"/>
<stop offset="0.87" stop-color="#B0D0FF"/>
<stop offset="1" stop-color="white"/>
</linearGradient>
<linearGradient id="paint64_linear_266_336" x1="497.7" y1="51.4168" x2="501.267" y2="51.4168" gradientUnits="userSpaceOnUse">
<stop stop-color="white"/>
<stop offset="0.63" stop-color="#B9D7FF"/>
<stop offset="0.87" stop-color="#B0D0FF"/>
<stop offset="1" stop-color="white"/>
</linearGradient>
<linearGradient id="paint65_linear_266_336" x1="-nan" y1="-nan" x2="-nan" y2="-nan" gradientUnits="userSpaceOnUse">
<stop stop-color="white"/>
<stop offset="0.63" stop-color="#B9D7FF"/>
<stop offset="0.87" stop-color="#B0D0FF"/>
<stop offset="1" stop-color="white"/>
</linearGradient>
<linearGradient id="paint66_linear_266_336" x1="498.888" y1="18.8297" x2="498.888" y2="40.7482" gradientUnits="userSpaceOnUse">
<stop stop-color="white"/>
<stop offset="0.63" stop-color="#B9D7FF"/>
<stop offset="0.87" stop-color="#B0D0FF"/>
<stop offset="1" stop-color="white"/>
</linearGradient>
<linearGradient id="paint67_linear_266_336" x1="487.941" y1="39.5461" x2="491.503" y2="39.5461" gradientUnits="userSpaceOnUse">
<stop stop-color="white"/>
<stop offset="0.63" stop-color="#B9D7FF"/>
<stop offset="0.87" stop-color="#B0D0FF"/>
<stop offset="1" stop-color="white"/>
</linearGradient>
<linearGradient id="paint68_linear_266_336" x1="525.45" y1="-46.3407" x2="525.45" y2="15.8728" gradientUnits="userSpaceOnUse">
<stop stop-color="white"/>
<stop offset="0.63" stop-color="#B9D7FF"/>
<stop offset="0.87" stop-color="#B0D0FF"/>
<stop offset="1" stop-color="white"/>
</linearGradient>
<linearGradient id="paint69_linear_266_336" x1="528.726" y1="14.6743" x2="532.294" y2="14.6743" gradientUnits="userSpaceOnUse">
<stop stop-color="white"/>
<stop offset="0.63" stop-color="#B9D7FF"/>
<stop offset="0.87" stop-color="#B0D0FF"/>
<stop offset="1" stop-color="white"/>
</linearGradient>
<linearGradient id="paint70_linear_266_336" x1="-nan" y1="-nan" x2="-nan" y2="-nan" gradientUnits="userSpaceOnUse">
<stop stop-color="white"/>
<stop offset="0.63" stop-color="#B9D7FF"/>
<stop offset="0.87" stop-color="#B0D0FF"/>
<stop offset="1" stop-color="white"/>
</linearGradient>
<linearGradient id="paint71_linear_266_336" x1="405.587" y1="8.62414" x2="409.154" y2="8.62414" gradientUnits="userSpaceOnUse">
<stop stop-color="white"/>
<stop offset="0.63" stop-color="#B9D7FF"/>
<stop offset="0.87" stop-color="#B0D0FF"/>
<stop offset="1" stop-color="white"/>
</linearGradient>
<linearGradient id="paint72_linear_266_336" x1="401.253" y1="-46.3407" x2="401.253" y2="46.6477" gradientUnits="userSpaceOnUse">
<stop stop-color="white"/>
<stop offset="0.63" stop-color="#B9D7FF"/>
<stop offset="0.87" stop-color="#B0D0FF"/>
<stop offset="1" stop-color="white"/>
</linearGradient>
<linearGradient id="paint73_linear_266_336" x1="396.914" y1="45.4491" x2="400.476" y2="45.4491" gradientUnits="userSpaceOnUse">
<stop stop-color="white"/>
<stop offset="0.63" stop-color="#B9D7FF"/>
<stop offset="0.87" stop-color="#B0D0FF"/>
<stop offset="1" stop-color="white"/>
</linearGradient>
<linearGradient id="paint74_linear_266_336" x1="412.839" y1="-46.3407" x2="412.839" y2="23.5666" gradientUnits="userSpaceOnUse">
<stop stop-color="white"/>
<stop offset="0.63" stop-color="#B9D7FF"/>
<stop offset="0.87" stop-color="#B0D0FF"/>
<stop offset="1" stop-color="white"/>
</linearGradient>
<linearGradient id="paint75_linear_266_336" x1="414.233" y1="22.3752" x2="417.8" y2="22.3752" gradientUnits="userSpaceOnUse">
<stop stop-color="white"/>
<stop offset="0.63" stop-color="#B9D7FF"/>
<stop offset="0.87" stop-color="#B0D0FF"/>
<stop offset="1" stop-color="white"/>
</linearGradient>
<linearGradient id="paint76_linear_266_336" x1="644.25" y1="-47.7761" x2="644.25" y2="84.6282" gradientUnits="userSpaceOnUse">
<stop stop-color="white"/>
<stop offset="0.63" stop-color="#B9D7FF"/>
<stop offset="0.87" stop-color="#B0D0FF"/>
<stop offset="1" stop-color="white"/>
</linearGradient>
<linearGradient id="paint77_linear_266_336" x1="633.708" y1="-47.7761" x2="633.708" y2="97.5575" gradientUnits="userSpaceOnUse">
<stop stop-color="white"/>
<stop offset="0.63" stop-color="#B9D7FF"/>
<stop offset="0.87" stop-color="#B0D0FF"/>
<stop offset="1" stop-color="white"/>
</linearGradient>
<linearGradient id="paint78_linear_266_336" x1="631.835" y1="96.3589" x2="635.402" y2="96.3589" gradientUnits="userSpaceOnUse">
<stop stop-color="white"/>
<stop offset="0.63" stop-color="#B9D7FF"/>
<stop offset="0.87" stop-color="#B0D0FF"/>
<stop offset="1" stop-color="white"/>
</linearGradient>
<linearGradient id="paint79_linear_266_336" x1="622.915" y1="-47.7761" x2="622.915" y2="51.1836" gradientUnits="userSpaceOnUse">
<stop stop-color="white"/>
<stop offset="0.63" stop-color="#B9D7FF"/>
<stop offset="0.87" stop-color="#B0D0FF"/>
<stop offset="1" stop-color="white"/>
</linearGradient>
<linearGradient id="paint80_linear_266_336" x1="612.485" y1="49.9813" x2="616.052" y2="49.9813" gradientUnits="userSpaceOnUse">
<stop stop-color="white"/>
<stop offset="0.63" stop-color="#B9D7FF"/>
<stop offset="0.87" stop-color="#B0D0FF"/>
<stop offset="1" stop-color="white"/>
</linearGradient>
<linearGradient id="paint81_linear_266_336" x1="583.962" y1="-47.7761" x2="583.962" y2="12.8406" gradientUnits="userSpaceOnUse">
<stop stop-color="white"/>
<stop offset="0.63" stop-color="#B9D7FF"/>
<stop offset="0.87" stop-color="#B0D0FF"/>
<stop offset="1" stop-color="white"/>
</linearGradient>
<linearGradient id="paint82_linear_266_336" x1="586.186" y1="11.4626" x2="590.286" y2="11.4626" gradientUnits="userSpaceOnUse">
<stop stop-color="white"/>
<stop offset="0.63" stop-color="#B9D7FF"/>
<stop offset="0.87" stop-color="#B0D0FF"/>
<stop offset="1" stop-color="white"/>
</linearGradient>
<linearGradient id="paint83_linear_266_336" x1="597.389" y1="-47.7761" x2="597.389" y2="62.9215" gradientUnits="userSpaceOnUse">
<stop stop-color="white"/>
<stop offset="0.63" stop-color="#B9D7FF"/>
<stop offset="0.87" stop-color="#B0D0FF"/>
<stop offset="1" stop-color="white"/>
</linearGradient>
<linearGradient id="paint84_linear_266_336" x1="595.937" y1="61.5399" x2="600.037" y2="61.5399" gradientUnits="userSpaceOnUse">
<stop stop-color="white"/>
<stop offset="0.63" stop-color="#B9D7FF"/>
<stop offset="0.87" stop-color="#B0D0FF"/>
<stop offset="1" stop-color="white"/>
</linearGradient>
<linearGradient id="paint85_linear_266_336" x1="554.874" y1="-47.7761" x2="554.874" y2="27.0868" gradientUnits="userSpaceOnUse">
<stop stop-color="white"/>
<stop offset="0.63" stop-color="#B9D7FF"/>
<stop offset="0.87" stop-color="#B0D0FF"/>
<stop offset="1" stop-color="white"/>
</linearGradient>
<linearGradient id="paint86_linear_266_336" x1="548.544" y1="25.7052" x2="552.649" y2="25.7052" gradientUnits="userSpaceOnUse">
<stop stop-color="white"/>
<stop offset="0.63" stop-color="#B9D7FF"/>
<stop offset="0.87" stop-color="#B0D0FF"/>
<stop offset="1" stop-color="white"/>
</linearGradient>
<linearGradient id="paint87_linear_266_336" x1="546.314" y1="-47.7761" x2="546.314" y2="35.5952" gradientUnits="userSpaceOnUse">
<stop stop-color="white"/>
<stop offset="0.63" stop-color="#B9D7FF"/>
<stop offset="0.87" stop-color="#B0D0FF"/>
<stop offset="1" stop-color="white"/>
</linearGradient>
<linearGradient id="paint88_linear_266_336" x1="539.981" y1="34.2171" x2="544.086" y2="34.2171" gradientUnits="userSpaceOnUse">
<stop stop-color="white"/>
<stop offset="0.63" stop-color="#B9D7FF"/>
<stop offset="0.87" stop-color="#B0D0FF"/>
<stop offset="1" stop-color="white"/>
</linearGradient>
<linearGradient id="paint89_linear_266_336" x1="639.714" y1="42.119" x2="643.281" y2="42.119" gradientUnits="userSpaceOnUse">
<stop stop-color="white"/>
<stop offset="0.63" stop-color="#B9D7FF"/>
<stop offset="0.87" stop-color="#B0D0FF"/>
<stop offset="1" stop-color="white"/>
</linearGradient>
<linearGradient id="paint90_linear_266_336" x1="-nan" y1="-nan" x2="-nan" y2="-nan" gradientUnits="userSpaceOnUse">
<stop stop-color="white"/>
<stop offset="0.63" stop-color="#B9D7FF"/>
<stop offset="0.87" stop-color="#B0D0FF"/>
<stop offset="1" stop-color="white"/>
</linearGradient>
<linearGradient id="paint91_linear_266_336" x1="567.983" y1="7.18878" x2="571.551" y2="7.18878" gradientUnits="userSpaceOnUse">
<stop stop-color="white"/>
<stop offset="0.63" stop-color="#B9D7FF"/>
<stop offset="0.87" stop-color="#B0D0FF"/>
<stop offset="1" stop-color="white"/>
</linearGradient>
<linearGradient id="paint92_linear_266_336" x1="563.654" y1="-47.7761" x2="563.654" y2="45.2123" gradientUnits="userSpaceOnUse">
<stop stop-color="white"/>
<stop offset="0.63" stop-color="#B9D7FF"/>
<stop offset="0.87" stop-color="#B0D0FF"/>
<stop offset="1" stop-color="white"/>
</linearGradient>
<linearGradient id="paint93_linear_266_336" x1="559.309" y1="44.0138" x2="562.871" y2="44.0138" gradientUnits="userSpaceOnUse">
<stop stop-color="white"/>
<stop offset="0.63" stop-color="#B9D7FF"/>
<stop offset="0.87" stop-color="#B0D0FF"/>
<stop offset="1" stop-color="white"/>
</linearGradient>
<linearGradient id="paint94_linear_266_336" x1="575.235" y1="-47.7761" x2="575.235" y2="22.1312" gradientUnits="userSpaceOnUse">
<stop stop-color="white"/>
<stop offset="0.63" stop-color="#B9D7FF"/>
<stop offset="0.87" stop-color="#B0D0FF"/>
<stop offset="1" stop-color="white"/>
</linearGradient>
<linearGradient id="paint95_linear_266_336" x1="576.63" y1="20.9398" x2="580.198" y2="20.9398" gradientUnits="userSpaceOnUse">
<stop stop-color="white"/>
<stop offset="0.63" stop-color="#B9D7FF"/>
<stop offset="0.87" stop-color="#B0D0FF"/>
<stop offset="1" stop-color="white"/>
</linearGradient>
<linearGradient id="paint96_linear_266_336" x1="-nan" y1="-nan" x2="-nan" y2="-nan" gradientUnits="userSpaceOnUse">
<stop stop-color="white"/>
<stop offset="0.63" stop-color="#B9D7FF"/>
<stop offset="0.87" stop-color="#B0D0FF"/>
<stop offset="1" stop-color="white"/>
</linearGradient>
<linearGradient id="paint97_linear_266_336" x1="368.554" y1="-16.5563" x2="368.554" y2="46.4001" gradientUnits="userSpaceOnUse">
<stop stop-color="white"/>
<stop offset="0.63" stop-color="#B9D7FF"/>
<stop offset="0.87" stop-color="#B0D0FF"/>
<stop offset="1" stop-color="white"/>
</linearGradient>
<linearGradient id="paint98_linear_266_336" x1="376.446" y1="45.5926" x2="380.013" y2="45.5926" gradientUnits="userSpaceOnUse">
<stop stop-color="white"/>
<stop offset="0.63" stop-color="#B9D7FF"/>
<stop offset="0.87" stop-color="#B0D0FF"/>
<stop offset="1" stop-color="white"/>
</linearGradient>
<linearGradient id="paint99_linear_266_336" x1="365.675" y1="-16.5563" x2="365.675" y2="74.5374" gradientUnits="userSpaceOnUse">
<stop stop-color="white"/>
<stop offset="0.63" stop-color="#B9D7FF"/>
<stop offset="0.87" stop-color="#B0D0FF"/>
<stop offset="1" stop-color="white"/>
</linearGradient>
<linearGradient id="paint100_linear_266_336" x1="377.586" y1="73.3389" x2="381.148" y2="73.3389" gradientUnits="userSpaceOnUse">
<stop stop-color="white"/>
<stop offset="0.63" stop-color="#B9D7FF"/>
<stop offset="0.87" stop-color="#B0D0FF"/>
<stop offset="1" stop-color="white"/>
</linearGradient>
<linearGradient id="paint101_linear_266_336" x1="284.588" y1="-16.5563" x2="284.588" y2="59.1392" gradientUnits="userSpaceOnUse">
<stop stop-color="white"/>
<stop offset="0.63" stop-color="#B9D7FF"/>
<stop offset="0.87" stop-color="#B0D0FF"/>
<stop offset="1" stop-color="white"/>
</linearGradient>
<linearGradient id="paint102_linear_266_336" x1="291.526" y1="57.9406" x2="295.088" y2="57.9406" gradientUnits="userSpaceOnUse">
<stop stop-color="white"/>
<stop offset="0.63" stop-color="#B9D7FF"/>
<stop offset="0.87" stop-color="#B0D0FF"/>
<stop offset="1" stop-color="white"/>
</linearGradient>
<linearGradient id="paint103_linear_266_336" x1="311.163" y1="-16.5563" x2="311.163" y2="84.2406" gradientUnits="userSpaceOnUse">
<stop stop-color="white"/>
<stop offset="0.63" stop-color="#B9D7FF"/>
<stop offset="0.87" stop-color="#B0D0FF"/>
<stop offset="1" stop-color="white"/>
</linearGradient>
<linearGradient id="paint104_linear_266_336" x1="326.115" y1="83.035" x2="329.682" y2="83.035" gradientUnits="userSpaceOnUse">
<stop stop-color="white"/>
<stop offset="0.63" stop-color="#B9D7FF"/>
<stop offset="0.87" stop-color="#B0D0FF"/>
<stop offset="1" stop-color="white"/>
</linearGradient>
<linearGradient id="paint105_linear_266_336" x1="-nan" y1="-nan" x2="-nan" y2="-nan" gradientUnits="userSpaceOnUse">
<stop stop-color="white"/>
<stop offset="0.63" stop-color="#B9D7FF"/>
<stop offset="0.87" stop-color="#B0D0FF"/>
<stop offset="1" stop-color="white"/>
</linearGradient>
<linearGradient id="paint106_linear_266_336" x1="301.147" y1="0.463891" x2="304.709" y2="0.463891" gradientUnits="userSpaceOnUse">
<stop stop-color="white"/>
<stop offset="0.63" stop-color="#B9D7FF"/>
<stop offset="0.87" stop-color="#B0D0FF"/>
<stop offset="1" stop-color="white"/>
</linearGradient>
<linearGradient id="paint107_linear_266_336" x1="-nan" y1="-nan" x2="-nan" y2="-nan" gradientUnits="userSpaceOnUse">
<stop stop-color="white"/>
<stop offset="0.63" stop-color="#B9D7FF"/>
<stop offset="0.87" stop-color="#B0D0FF"/>
<stop offset="1" stop-color="white"/>
</linearGradient>
<linearGradient id="paint108_linear_266_336" x1="310.679" y1="6.85496" x2="314.246" y2="6.85496" gradientUnits="userSpaceOnUse">
<stop stop-color="white"/>
<stop offset="0.63" stop-color="#B9D7FF"/>
<stop offset="0.87" stop-color="#B0D0FF"/>
<stop offset="1" stop-color="white"/>
</linearGradient>
<linearGradient id="paint109_linear_266_336" x1="-nan" y1="-nan" x2="-nan" y2="-nan" gradientUnits="userSpaceOnUse">
<stop stop-color="white"/>
<stop offset="0.63" stop-color="#B9D7FF"/>
<stop offset="0.87" stop-color="#B0D0FF"/>
<stop offset="1" stop-color="white"/>
</linearGradient>
<linearGradient id="paint110_linear_266_336" x1="365.201" y1="6.84431" x2="368.768" y2="6.84431" gradientUnits="userSpaceOnUse">
<stop stop-color="white"/>
<stop offset="0.63" stop-color="#B9D7FF"/>
<stop offset="0.87" stop-color="#B0D0FF"/>
<stop offset="1" stop-color="white"/>
</linearGradient>
<linearGradient id="paint111_linear_266_336" x1="-nan" y1="-nan" x2="-nan" y2="-nan" gradientUnits="userSpaceOnUse">
<stop stop-color="white"/>
<stop offset="0.63" stop-color="#B9D7FF"/>
<stop offset="0.87" stop-color="#B0D0FF"/>
<stop offset="1" stop-color="white"/>
</linearGradient>
<linearGradient id="paint112_linear_266_336" x1="335.458" y1="67.4322" x2="339.02" y2="67.4322" gradientUnits="userSpaceOnUse">
<stop stop-color="white"/>
<stop offset="0.63" stop-color="#B9D7FF"/>
<stop offset="0.87" stop-color="#B0D0FF"/>
<stop offset="1" stop-color="white"/>
</linearGradient>
<linearGradient id="paint113_linear_266_336" x1="359.583" y1="48.6142" x2="359.583" y2="70.5326" gradientUnits="userSpaceOnUse">
<stop stop-color="white"/>
<stop offset="0.63" stop-color="#B9D7FF"/>
<stop offset="0.87" stop-color="#B0D0FF"/>
<stop offset="1" stop-color="white"/>
</linearGradient>
<linearGradient id="paint114_linear_266_336" x1="366.963" y1="69.3305" x2="370.531" y2="69.3305" gradientUnits="userSpaceOnUse">
<stop stop-color="white"/>
<stop offset="0.63" stop-color="#B9D7FF"/>
<stop offset="0.87" stop-color="#B0D0FF"/>
<stop offset="1" stop-color="white"/>
</linearGradient>
<linearGradient id="paint115_linear_266_336" x1="333.02" y1="-16.5563" x2="333.02" y2="45.6572" gradientUnits="userSpaceOnUse">
<stop stop-color="white"/>
<stop offset="0.63" stop-color="#B9D7FF"/>
<stop offset="0.87" stop-color="#B0D0FF"/>
<stop offset="1" stop-color="white"/>
</linearGradient>
<linearGradient id="paint116_linear_266_336" x1="326.177" y1="44.4586" x2="329.745" y2="44.4586" gradientUnits="userSpaceOnUse">
<stop stop-color="white"/>
<stop offset="0.63" stop-color="#B9D7FF"/>
<stop offset="0.87" stop-color="#B0D0FF"/>
<stop offset="1" stop-color="white"/>
</linearGradient>
<linearGradient id="paint117_linear_266_336" x1="324.708" y1="-16.5563" x2="324.708" y2="24.3668" gradientUnits="userSpaceOnUse">
<stop stop-color="white"/>
<stop offset="0.63" stop-color="#B9D7FF"/>
<stop offset="0.87" stop-color="#B0D0FF"/>
<stop offset="1" stop-color="white"/>
</linearGradient>
<linearGradient id="paint118_linear_266_336" x1="318.005" y1="23.1646" x2="321.567" y2="23.1646" gradientUnits="userSpaceOnUse">
<stop stop-color="white"/>
<stop offset="0.63" stop-color="#B9D7FF"/>
<stop offset="0.87" stop-color="#B0D0FF"/>
<stop offset="1" stop-color="white"/>
</linearGradient>
<linearGradient id="paint119_linear_266_336" x1="-nan" y1="-nan" x2="-nan" y2="-nan" gradientUnits="userSpaceOnUse">
<stop stop-color="white"/>
<stop offset="0.63" stop-color="#B9D7FF"/>
<stop offset="0.87" stop-color="#B0D0FF"/>
<stop offset="1" stop-color="white"/>
</linearGradient>
<linearGradient id="paint120_linear_266_336" x1="-nan" y1="-nan" x2="-nan" y2="-nan" gradientUnits="userSpaceOnUse">
<stop stop-color="white"/>
<stop offset="0.63" stop-color="#B9D7FF"/>
<stop offset="0.87" stop-color="#B0D0FF"/>
<stop offset="1" stop-color="white"/>
</linearGradient>
<linearGradient id="paint121_linear_266_336" x1="257.531" y1="-16.5563" x2="257.531" y2="63.7863" gradientUnits="userSpaceOnUse">
<stop stop-color="white"/>
<stop offset="0.63" stop-color="#B9D7FF"/>
<stop offset="0.87" stop-color="#B0D0FF"/>
<stop offset="1" stop-color="white"/>
</linearGradient>
<linearGradient id="paint122_linear_266_336" x1="246.348" y1="62.5841" x2="249.915" y2="62.5841" gradientUnits="userSpaceOnUse">
<stop stop-color="white"/>
<stop offset="0.63" stop-color="#B9D7FF"/>
<stop offset="0.87" stop-color="#B0D0FF"/>
<stop offset="1" stop-color="white"/>
</linearGradient>
<linearGradient id="paint123_linear_266_336" x1="248.138" y1="-16.5563" x2="248.138" y2="14.8573" gradientUnits="userSpaceOnUse">
<stop stop-color="white"/>
<stop offset="0.63" stop-color="#B9D7FF"/>
<stop offset="0.87" stop-color="#B0D0FF"/>
<stop offset="1" stop-color="white"/>
</linearGradient>
<linearGradient id="paint124_linear_266_336" x1="239.145" y1="13.6552" x2="242.712" y2="13.6552" gradientUnits="userSpaceOnUse">
<stop stop-color="white"/>
<stop offset="0.63" stop-color="#B9D7FF"/>
<stop offset="0.87" stop-color="#B0D0FF"/>
<stop offset="1" stop-color="white"/>
</linearGradient>
<linearGradient id="paint125_linear_266_336" x1="261.321" y1="21.2411" x2="261.321" y2="85.0767" gradientUnits="userSpaceOnUse">
<stop stop-color="white"/>
<stop offset="0.63" stop-color="#B9D7FF"/>
<stop offset="0.87" stop-color="#B0D0FF"/>
<stop offset="1" stop-color="white"/>
</linearGradient>
<linearGradient id="paint126_linear_266_336" x1="253.553" y1="73.3065" x2="257.12" y2="73.3065" gradientUnits="userSpaceOnUse">
<stop stop-color="white"/>
<stop offset="0.63" stop-color="#B9D7FF"/>
<stop offset="0.87" stop-color="#B0D0FF"/>
<stop offset="1" stop-color="white"/>
</linearGradient>
<linearGradient id="paint127_linear_266_336" x1="270.266" y1="-1.01095" x2="270.266" y2="71.3724" gradientUnits="userSpaceOnUse">
<stop stop-color="white"/>
<stop offset="0.63" stop-color="#B9D7FF"/>
<stop offset="0.87" stop-color="#B0D0FF"/>
<stop offset="1" stop-color="white"/>
</linearGradient>
<linearGradient id="paint128_linear_266_336" x1="283.412" y1="70.1738" x2="286.974" y2="70.1738" gradientUnits="userSpaceOnUse">
<stop stop-color="white"/>
<stop offset="0.63" stop-color="#B9D7FF"/>
<stop offset="0.87" stop-color="#B0D0FF"/>
<stop offset="1" stop-color="white"/>
</linearGradient>
<linearGradient id="paint129_linear_266_336" x1="274.142" y1="54.9118" x2="277.704" y2="54.9118" gradientUnits="userSpaceOnUse">
<stop stop-color="white"/>
<stop offset="0.63" stop-color="#B9D7FF"/>
<stop offset="0.87" stop-color="#B0D0FF"/>
<stop offset="1" stop-color="white"/>
</linearGradient>
</defs>
</svg>
