<svg width="66" height="28" viewBox="0 0 66 28" fill="none" xmlns="http://www.w3.org/2000/svg">
<g filter="url(#filter0_d_277_3)">
<path d="M15.8235 12.3618C14.9228 13.738 14.0216 15.1142 13.0701 16.5681C12.1175 15.1142 11.2174 13.7413 10.3167 12.3677C10.276 12.3796 10.2353 12.3914 10.1946 12.4033C10.1946 14.5367 10.1946 16.6701 10.1946 18.839C9.43053 18.839 8.73509 18.839 8 18.839C8 15.4038 8 11.9897 8 8.51191C8.75438 8.51191 9.47447 8.49195 10.1913 8.52809C10.3408 8.53564 10.5224 8.72546 10.6178 8.877C11.3347 10.0154 12.0333 11.1662 12.7395 12.3116C12.8413 12.4767 12.9522 12.6357 13.0947 12.852C13.233 12.646 13.3369 12.502 13.4296 12.3515C14.1363 11.2061 14.851 10.0661 15.5395 8.90935C15.7217 8.60305 15.9301 8.48548 16.2815 8.50112C16.9084 8.52809 17.5369 8.50867 18.197 8.50867C18.197 11.9827 18.197 15.3817 18.197 18.8288C17.4763 18.8288 16.768 18.8288 15.9853 18.8288C15.9853 16.6711 15.9853 14.5345 15.9853 12.3985C15.9322 12.3861 15.8781 12.3737 15.8235 12.3618Z" fill="white"/>
<path d="M37.1429 8.51403C37.7853 8.51403 38.3993 8.48544 39.0075 8.5329C39.1757 8.54584 39.3568 8.76209 39.4806 8.92495C40.7793 10.6318 42.0673 12.3467 43.3591 14.0588C43.5209 14.2729 43.6848 14.4854 43.8472 14.6984C43.8857 14.6887 43.9243 14.6796 43.9629 14.6698C43.9629 12.6449 43.9629 10.6194 43.9629 8.55232C44.7349 8.55232 45.4293 8.55232 46.1655 8.55232C46.1655 11.9805 46.1655 15.3925 46.1655 18.8719C45.5841 18.8719 45.0259 18.9026 44.4751 18.8535C44.3042 18.8384 44.1199 18.6319 43.9966 18.4707C42.61 16.6484 41.2347 14.8171 39.8551 12.9889C39.7254 12.8169 39.5893 12.6503 39.3552 12.5014C39.3552 14.5943 39.3552 16.6873 39.3552 18.8282C38.589 18.8282 37.8936 18.8282 37.1429 18.8282C37.1429 15.4281 37.1429 12.0177 37.1429 8.51403Z" fill="white"/>
<path d="M57.526 10.044C57.0877 10.5547 56.6666 11.0455 56.1962 11.5939C55.2575 10.6539 54.1704 10.2592 52.9038 10.504C52.2384 10.6329 51.709 11.0055 51.2911 11.541C50.272 12.8472 50.3621 14.8732 51.4931 16.0666C52.6691 17.308 54.2374 17.2255 56.2808 15.7738C56.7362 16.2597 57.2007 16.7547 57.6594 17.2444C56.1501 19.3508 52.3219 19.6604 50.1756 17.9196C47.673 15.8892 47.6907 12.0339 49.6757 9.92592C51.5681 7.91658 55.4696 7.68307 57.526 10.044Z" fill="white"/>
<path d="M20.7593 18.9253C20.7282 18.6772 20.7009 18.5537 20.6998 18.4302C20.695 17.9228 20.6977 17.4148 20.6977 16.8437C20.9367 16.8313 21.1269 16.8135 21.3176 16.8129C22.4401 16.8102 23.5625 16.8065 24.685 16.8119C27.5337 16.8259 28.391 14.0022 27.4282 12.1191C26.8801 11.047 25.921 10.5827 24.7477 10.566C23.6252 10.5503 22.5027 10.5611 21.3803 10.5606C21.1853 10.5606 20.9897 10.5606 20.7459 10.5606C20.7459 9.8633 20.7459 9.22264 20.7459 8.5987C20.7856 8.57174 20.8006 8.55233 20.8156 8.55233C22.6201 8.52644 24.4369 8.3199 26.2227 8.69362C28.6455 9.20107 30.248 11.3587 30.1547 13.8793C30.0631 16.3535 28.3101 18.4599 25.898 18.7403C24.2188 18.9366 22.5092 18.8724 20.7593 18.9253Z" fill="white"/>
<path d="M34.4874 18.8407C33.7614 18.8407 33.0638 18.8407 32.3175 18.8407C32.3175 15.4222 32.3175 12.0102 32.3175 8.5535C33.0236 8.5535 33.7346 8.5535 34.4874 8.5535C34.4874 11.9827 34.4874 15.3942 34.4874 18.8407Z" fill="white"/>
</g>
<defs>
<filter id="filter0_d_277_3" x="0.0133104" y="0.359136" width="65.6328" height="26.6758" filterUnits="userSpaceOnUse" color-interpolation-filters="sRGB">
<feFlood flood-opacity="0" result="BackgroundImageFix"/>
<feColorMatrix in="SourceAlpha" type="matrix" values="0 0 0 0 0 0 0 0 0 0 0 0 0 0 0 0 0 0 127 0" result="hardAlpha"/>
<feOffset/>
<feGaussianBlur stdDeviation="3.99334"/>
<feComposite in2="hardAlpha" operator="out"/>
<feColorMatrix type="matrix" values="0 0 0 0 0 0 0 0 0 0 0 0 0 0 0 0 0 0 0.15 0"/>
<feBlend mode="normal" in2="BackgroundImageFix" result="effect1_dropShadow_277_3"/>
<feBlend mode="normal" in="SourceGraphic" in2="effect1_dropShadow_277_3" result="shape"/>
</filter>
</defs>
</svg>
