<svg width="143" height="118" viewBox="0 0 143 118" fill="none" xmlns="http://www.w3.org/2000/svg">
  <rect x="52.2" y="114.3" width="39.1" height="2.7" fill="#efefef" />
  <path d="M 57 114.6 L 59 99.8 H 84.8 C 85.4 104.8 86.6 114.6 86.8 114.6 H 57 Z" fill="#d9e0e4" />
  <rect x="0.7" y="0.3" width="142.2" height="99.6" rx="9.6" fill="#f2f5f5" />
  <rect x="6.8" y="8.5" width="129.8" height="70.1" fill="#efc461" />
  <mask id="mask0_266_492" style="mask-type:alpha" maskUnits="userSpaceOnUse" x="49" y="20" width="46" height="47">

  </mask>
  <g mask="url(#mask0_266_492)">
    <path fill-rule="evenodd" clip-rule="evenodd"
      d="M 92.6 24.3 L 80.8 63.6 C 80.7 64 80.5 64.3 80.2 64.6 C 80 64.7 79.8 64.8 79.6 64.9 C 79.4 65 79.2 65 79 65 H 64.7 C 64.4 65 64.2 65 64 64.9 C 63.8 64.8 63.6 64.7 63.4 64.6 C 63.1 64.3 62.9 64 62.8 63.6 L 51 24.3 C 51 24.2 50.9 24.1 50.9 24.1 C 50.9 24 51 24 51 23.9 C 51 23.9 51 23.8 51.1 23.8 C 51.1 23.7 51.2 23.7 51.2 23.7 C 51.3 23.7 51.3 23.7 51.4 23.7 H 62.1 C 62.1 23.7 62.1 23.7 62.1 23.8 C 62.2 23.9 62.2 23.9 62.2 24 C 62.2 24 62.1 24.1 62.1 24.1 C 61.4 24.9 59 27.7 58.1 28.7 C 58 28.8 57.8 28.9 57.7 29 C 57.6 29 57.4 29 57.3 29 C 56.9 28.9 56.6 28.9 56.2 29 C 56 29.1 55.9 29.2 55.7 29.4 C 55.6 29.5 55.5 29.7 55.4 29.9 C 55.3 30.2 55.2 30.4 55.3 30.7 C 55.3 31 55.4 31.2 55.5 31.4 C 55.7 31.7 55.9 31.8 56.1 32 C 56.4 32.1 56.6 32.2 56.9 32.2 C 56.9 32.2 57 32.2 57 32.2 C 57.1 32.2 57.1 32.3 57.1 32.3 L 64.2 55.4 C 64 55.5 63.8 55.7 63.6 55.9 C 63.4 56.1 63.3 56.3 63.2 56.6 C 63.2 56.9 63.2 57.2 63.2 57.4 C 63.2 57.7 63.4 58 63.5 58.2 C 63.7 58.4 63.9 58.6 64.1 58.7 C 64.3 58.9 64.6 59 64.9 59 C 65.1 59.1 65.4 59 65.7 59 C 66 58.9 66.2 58.8 66.4 58.6 C 66.6 58.5 66.8 58.4 67 58.3 C 67.2 58.3 67.4 58.3 67.6 58.3 L 74.8 59.9 C 74.9 59.9 74.9 59.9 75 60 C 75 60 75 60.1 75 60.1 C 75 60.5 75.1 60.9 75.3 61.3 C 75.5 61.6 75.8 61.9 76.1 62.1 C 76.4 62.3 76.8 62.5 77.2 62.5 C 77.6 62.6 78 62.5 78.4 62.4 C 78.7 62.2 78.9 62.1 79.2 61.8 C 79.4 61.6 79.6 61.4 79.7 61.1 C 79.9 60.6 79.9 60.1 79.8 59.7 C 79.7 59.2 79.5 58.8 79.2 58.4 C 79.1 58.4 79 58.2 79 58.1 C 78.9 58 78.9 57.9 79 57.7 L 88 30.2 H 88.1 C 88.4 30.2 88.6 30.1 88.9 30 C 89.1 29.9 89.3 29.7 89.5 29.5 C 89.6 29.2 89.7 29 89.7 28.7 C 89.8 28.4 89.7 28.1 89.6 27.9 C 89.4 27.5 89.2 27.3 88.8 27.1 C 88.6 27 88.3 26.9 88 27 C 87.8 27 87.5 27.1 87.3 27.2 C 87.2 27.2 87.1 27.3 87 27.3 C 86.9 27.3 86.8 27.2 86.7 27.2 L 81.7 24.2 C 81.6 24.1 81.5 24 81.5 23.9 C 81.4 23.8 81.4 23.7 81.5 23.6 H 92.3 C 92.3 23.6 92.4 23.7 92.4 23.7 C 92.5 23.7 92.5 23.7 92.5 23.8 C 92.6 23.8 92.6 23.9 92.6 23.9 C 92.7 24 92.7 24 92.7 24.1 C 92.7 24.1 92.7 24.2 92.6 24.2 L 92.6 24.3 Z M 63.1 24.6 C 63.3 24.8 63.6 24.8 63.9 24.8 C 64 24.8 64.1 24.8 64.1 24.9 C 64.2 24.9 64.2 25 64.2 25.1 L 67 34.8 C 67.1 35 67.1 35.1 67 35.2 C 67 35.3 66.9 35.5 66.8 35.5 C 66.7 35.6 66.6 35.6 66.5 35.7 C 66.4 35.8 66.3 35.9 66.1 35.9 C 66 35.9 65.8 35.9 65.7 35.8 L 58.5 31 C 58.5 30.9 58.5 30.7 58.5 30.6 C 58.5 30.4 58.5 30.1 58.4 29.9 C 58.4 29.8 58.3 29.7 58.4 29.5 C 58.4 29.4 58.5 29.3 58.6 29.2 C 59.4 28.2 61.6 25.7 62.4 24.8 C 62.5 24.7 62.6 24.6 62.7 24.6 C 62.9 24.6 63 24.6 63.1 24.6 L 63.1 24.6 Z M 67.2 39.9 L 64.8 54.9 C 64.8 54.9 64.8 54.9 64.8 54.9 C 64.8 54.9 64.8 55 64.8 55 C 64.8 55 64.8 54.9 64.8 54.9 C 64.8 54.9 64.7 54.9 64.7 54.9 L 57.7 32.2 C 57.7 32.2 57.7 32.1 57.7 32 C 57.8 32 57.8 31.9 57.9 31.9 C 57.9 31.9 57.9 31.8 58 31.8 C 58 31.7 58.1 31.7 58.2 31.7 C 58.2 31.7 58.3 31.7 58.4 31.8 C 59.3 32.4 63.7 35.3 65.3 36.3 C 65.4 36.4 65.6 36.5 65.6 36.7 C 65.7 36.9 65.8 37.1 65.8 37.3 C 65.8 37.6 65.9 38 66 38.3 C 66.2 38.6 66.5 38.8 66.8 39 C 66.9 39.1 67 39.3 67.1 39.4 C 67.2 39.6 67.2 39.8 67.2 39.9 L 67.2 39.9 Z M 67.9 39.6 C 67.9 39.5 67.9 39.4 68 39.4 C 68 39.4 68.1 39.3 68.1 39.3 C 68.2 39.3 68.3 39.3 68.4 39.4 C 68.5 39.4 68.5 39.5 68.5 39.6 L 70.8 45.9 C 70.8 46 70.8 46.1 70.8 46.2 C 70.7 46.3 70.7 46.4 70.6 46.5 C 70.4 46.7 70.2 46.9 70.1 47.1 C 70 47.4 69.9 47.6 69.9 47.9 C 69.9 48.2 70 48.5 70.1 48.7 C 70.2 48.8 70.2 48.9 70.2 49.1 C 70.2 49.2 70.2 49.3 70.1 49.4 L 66 55.2 C 66 55.2 65.9 55.2 65.9 55.3 C 65.8 55.3 65.7 55.3 65.7 55.3 C 65.6 55.3 65.6 55.2 65.5 55.2 C 65.5 55.1 65.5 55 65.5 55 L 67.9 39.6 Z M 71.3 49.7 C 71.4 49.7 71.6 49.8 71.8 49.8 C 71.9 49.8 71.9 49.8 72 49.8 C 72.1 49.7 72.3 49.8 72.4 49.8 C 72.5 49.9 72.6 50 72.7 50.1 L 76.1 57.7 C 76.1 57.8 76.1 57.9 76.1 58 C 76.1 58.1 76 58.2 75.9 58.3 C 75.7 58.5 75.5 58.7 75.3 59 C 75.3 59.1 75.2 59.2 75.1 59.2 C 75 59.3 74.9 59.3 74.8 59.2 L 67.5 57.7 C 67.4 57.6 67.3 57.6 67.2 57.5 C 67.1 57.4 67.1 57.2 67.1 57.1 C 67.1 56.9 67.1 56.7 67 56.5 C 66.9 56.3 66.8 56.1 66.7 56 C 66.6 55.9 66.6 55.7 66.6 55.6 C 66.6 55.5 66.6 55.4 66.7 55.3 L 70.5 49.9 C 70.6 49.8 70.7 49.7 70.8 49.7 C 71 49.6 71.1 49.6 71.2 49.7 L 71.3 49.7 Z M 72.7 46 L 75.8 35.3 C 75.8 35.2 75.9 35.2 76 35.1 C 76 35 76.1 35 76.2 35 H 76.3 C 76.4 35 76.5 35 76.5 35.1 C 76.6 35.1 76.7 35.2 76.7 35.3 L 78.5 40.3 C 78.7 40.7 78.7 40.9 78.6 41.1 C 78.5 41.2 78.4 41.3 78.4 41.5 C 78.3 41.7 78.3 41.8 78.3 42 C 78.3 42.1 78.4 42.3 78.5 42.4 C 78.6 42.6 78.7 42.7 78.8 42.8 C 78.9 42.9 79 42.9 79 43 C 79.1 43.1 79.1 43.2 79.1 43.3 L 77.2 57.8 C 77.1 57.8 77 57.7 76.9 57.7 C 76.8 57.6 76.7 57.5 76.7 57.4 L 73.3 49.9 C 73.3 49.8 73.2 49.6 73.2 49.4 C 73.3 49.2 73.3 49 73.4 48.9 C 73.6 48.6 73.7 48.2 73.7 47.9 C 73.7 47.6 73.6 47.3 73.5 47 C 73.4 46.8 73.2 46.5 72.9 46.4 C 72.8 46.3 72.8 46.3 72.8 46.2 C 72.7 46.1 72.7 46 72.7 46 L 72.7 46 Z M 86.8 29.6 L 80 40.5 C 79.9 40.6 79.9 40.6 79.8 40.6 C 79.8 40.7 79.7 40.7 79.7 40.7 C 79.6 40.7 79.6 40.7 79.5 40.7 C 79.5 40.7 79.4 40.6 79.4 40.6 C 79.4 40.6 79.3 40.6 79.3 40.5 L 77.3 35.1 C 77.3 35 77.3 34.9 77.3 34.8 C 77.3 34.6 77.4 34.5 77.5 34.5 C 77.7 34.2 77.9 33.8 77.9 33.4 C 77.9 33.3 77.9 33.3 77.9 33.2 C 77.9 33.2 78 33.1 78 33.1 L 86.8 29.6 Z M 80.6 41.2 C 80.5 41.2 80.5 41.1 80.5 41 C 80.5 40.9 80.5 40.9 80.6 40.8 L 87.3 30.1 C 87.3 30.1 87.3 30.1 87.3 30.1 C 87.3 30.1 87.3 30.1 87.3 30.1 C 87.3 30.1 87.3 30.1 87.3 30.1 C 87.3 30.1 87.3 30.1 87.3 30.1 C 87.4 30.1 87.4 30.1 87.4 30.1 C 87.4 30.1 87.4 30.1 87.4 30.1 C 87.4 30.1 87.4 30.1 87.4 30.1 C 87.4 30.2 87.4 30.2 87.4 30.2 L 78.3 57.7 C 78.3 57.8 78.2 57.8 78.2 57.9 C 78.2 57.9 78.1 57.9 78.1 57.9 C 78 57.9 78 57.8 78 57.8 C 77.9 57.8 77.9 57.7 77.9 57.7 L 79.7 43.4 C 79.7 43.3 79.8 43.2 79.8 43.1 C 79.9 43.1 80 43 80.1 43 C 80.3 42.9 80.4 42.7 80.6 42.5 C 80.7 42.3 80.8 42.1 80.8 41.9 C 80.8 41.7 80.7 41.4 80.6 41.2 H 80.6 Z M 76.9 31.5 C 77.2 30.3 78.1 26.9 78.4 25.7 C 78.4 25.5 78.5 25.4 78.6 25.3 C 78.7 25.3 78.9 25.2 79 25.2 C 79.1 25.2 79.1 25.2 79.2 25.2 C 79.7 25.2 80.2 25.1 80.6 24.8 C 80.7 24.7 80.8 24.7 81 24.7 C 81.1 24.7 81.3 24.7 81.4 24.8 L 86.4 27.8 C 86.5 27.8 86.5 27.8 86.5 27.9 C 86.5 28 86.5 28 86.5 28.1 C 86.5 28.3 86.4 28.4 86.4 28.6 C 86.4 28.7 86.4 28.7 86.4 28.8 C 86.5 28.9 86.4 28.9 86.4 29 C 86.4 29.1 86.3 29.1 86.2 29.1 L 77.9 32.5 C 77.9 32.5 77.8 32.5 77.7 32.5 C 77.6 32.4 77.5 32.4 77.5 32.3 C 77.4 32.2 77.3 32.1 77.1 32 C 77.1 32 77 31.9 77 31.8 C 76.9 31.7 76.9 31.6 76.9 31.5 L 76.9 31.5 Z M 93.9 22.4 C 93.5 22 92.9 21.8 92.3 21.8 H 81.3 C 81.3 21.6 81.2 21.5 81.1 21.4 C 80.7 21 80.3 20.7 79.8 20.6 C 79.3 20.4 78.7 20.5 78.2 20.7 C 77.9 20.8 77.7 21 77.5 21.2 C 77.2 21.4 77.1 21.7 76.9 22 C 76.8 22.4 76.7 22.9 76.8 23.4 C 76.9 23.9 77.2 24.3 77.5 24.6 C 77.7 24.7 77.7 24.9 77.8 25 C 77.8 25.2 77.8 25.3 77.8 25.5 L 76.3 31.5 C 76.3 31.6 76.2 31.6 76.2 31.7 C 76.1 31.7 76 31.8 75.9 31.8 C 75.7 31.8 75.4 32 75.2 32.2 C 74.9 32.3 74.8 32.6 74.7 32.9 C 74.6 33.1 74.6 33.4 74.6 33.7 C 74.7 34 74.8 34.2 75 34.5 C 75.1 34.6 75.1 34.7 75.2 34.8 C 75.2 34.9 75.2 35 75.2 35.2 C 74.6 37.1 72.4 44.6 72.1 45.9 C 72.1 45.9 72 46 72 46 C 72 46 71.9 46 71.9 46 H 71.8 C 71.7 46 71.6 46 71.6 46 C 71.5 46 71.5 45.9 71.5 45.9 L 69.3 39.6 C 69.2 39.4 69.2 39.2 69.2 39.1 C 69.3 38.9 69.4 38.7 69.5 38.6 C 69.7 38.3 69.9 37.9 70 37.6 C 70 37.2 70 36.8 69.8 36.4 C 69.6 36 69.4 35.7 69 35.5 C 68.7 35.3 68.3 35.2 67.9 35.2 H 67.9 L 65.1 25.6 C 65 25.3 65 25.1 65.1 24.8 C 65.1 24.6 65.3 24.3 65.5 24.2 C 65.7 23.9 65.9 23.5 66 23.1 C 66.1 22.7 66 22.3 65.9 21.9 C 65.7 21.4 65.3 21.1 64.8 20.9 C 64.4 20.7 64 20.7 63.6 20.7 C 63.3 20.8 62.9 20.9 62.6 21.2 C 62.4 21.4 62.2 21.6 62.1 21.8 H 51.4 C 50.7 21.8 50.2 22 49.7 22.4 C 49.5 22.7 49.3 22.9 49.2 23.2 C 49.1 23.5 49 23.8 49 24.1 C 49 24.3 49.1 24.5 49.1 24.7 C 49.1 24.7 49.1 24.8 49.1 24.8 L 60.9 64.1 C 61.1 64.8 61.5 65.4 62 65.9 C 62.4 66.3 62.8 66.5 63.3 66.7 C 63.7 66.8 64.2 66.9 64.7 66.9 H 79 C 79.5 66.9 80 66.8 80.4 66.7 C 80.9 66.5 81.3 66.3 81.6 65.9 C 82.1 65.5 82.5 64.8 82.7 64.2 L 94.5 24.8 C 94.5 24.8 94.5 24.8 94.5 24.7 C 94.6 24.5 94.6 24.3 94.6 24.1 C 94.6 23.5 94.4 22.9 93.9 22.4 V 22.4 Z"
      fill="white" stroke="white" stroke-width="1.06489" />
  </g>
</svg>