<?xml version="1.0" standalone="no"?>
<!DOCTYPE svg PUBLIC "-//W3C//DTD SVG 20010904//EN" "http://www.w3.org/TR/2001/REC-SVG-20010904/DTD/svg10.dtd">
<svg version="1" xmlns="http://www.w3.org/2000/svg" width="756pt" height="547pt" viewBox="0 0 756 547"
  preserveAspectRatio="xMidYMid meet">

  <g transform="matrix(0.1,0,0,-0.1,0,547)" fill="#000000" stroke="none">
    <path
      d="M 3675 5461 c -189 -31 -354 -121 -501 -273 c -96 -100 -155 -181 -222 -308 c -137 -259 -204 -549 -204 -885 c 0 -196 16 -333 58 -500 c 172 -683 671 -1084 1175 -944 c 136 38 257 109 376 222 c 229 218 384 550 439 944 c 21 152 15 491 -11 633 c -88 483 -334 868 -657 1031 c -42 21 -109 47 -148 58 c -81 23 -232 33 -305 22 z m 315 -81 c 134 -46 219 -99 333 -209 c 276 -266 437 -700 437 -1176 c 0 -476 -161 -910 -437 -1176 c -93 -89 -149 -129 -248 -175 c -99 -46 -182 -64 -296 -64 c -249 0 -482 130 -663 371 c -362 481 -420 1285 -135 1866 c 145 295 374 506 623 574 c 98 27 291 21 386 -11 z" />
    <path
      d="M 3700 5340 c -167 -23 -321 -108 -452 -249 c -405 -438 -498 -1272 -208 -1879 c 139 -290 345 -485 581 -548 c 78 -20 223 -23 299 -5 c 79 19 205 80 277 135 c 213 162 381 461 452 811 c 123 599 -58 1266 -426 1570 c -153 126 -351 189 -523 165 z m 272 -83 c 104 -38 175 -84 269 -177 c 219 -215 365 -569 386 -940 l 6 -110 l -851 0 l -852 0 l 0 68 c 0 37 7 113 15 169 c 74 518 343 909 695 1008 c 83 23 245 14 332 -18 z m 655 -1399 c -21 -380 -174 -752 -395 -959 c -140 -131 -263 -188 -422 -196 c -224 -12 -431 101 -600 328 c -162 218 -279 581 -280 867 l 0 72 l 852 0 l 851 0 l -6 -112 z" />
    <path
      d="M 3732 4967 l -42 -43 l 45 -44 l 45 -44 l 45 44 l 45 44 l -42 43 c -23 24 -45 43 -48 43 c -3 0 -25 -19 -48 -43 z" />
    <path
      d="M 3722 4770 c -101 -62 -58 -210 61 -210 c 31 0 46 7 73 34 c 28 28 34 41 34 78 c 0 52 -21 85 -66 104 c -45 19 -63 18 -102 -6 z" />
    <path
      d="M 3488 4734 c -57 -30 -65 -98 -19 -145 c 74 -73 191 6 151 102 c -13 31 -55 59 -87 59 c -10 -1 -30 -7 -45 -16 z" />
    <path
      d="M 3984 4740 c -48 -19 -71 -102 -41 -141 c 30 -39 96 -51 134 -24 c 28 20 46 75 34 106 c -19 51 -81 79 -127 59 z" />
    <path d="M 3520 4430 l 0 -80 l 260 0 l 260 0 l 0 80 l 0 80 l -260 0 l -260 0 l 0 -80 z" />
    <path
      d="M 3582 3577 c -105 -106 -192 -195 -192 -199 c 0 -4 88 -94 195 -200 l 196 -193 l 194 195 l 195 195 l -198 198 l -197 197 l -193 -193 z m 281 -125 l 77 -77 l -80 -80 l -80 -80 l -80 80 l -80 80 l 77 77 c 43 43 80 78 83 78 c 3 0 40 -35 83 -78 z" />
    <path
      d="M 1973 4484 c -22 -22 -25 -32 -20 -68 l 6 -42 l -51 -23 c -105 -48 -190 -167 -207 -287 c -16 -112 21 -233 97 -316 c 68 -75 87 -121 87 -218 c 0 -69 -4 -93 -23 -127 c -68 -129 -205 -197 -326 -163 c -151 42 -214 233 -110 334 c 58 56 166 67 204 21 c 9 -11 6 -17 -18 -29 c -34 -17 -42 -34 -42 -81 c 0 -65 80 -97 135 -53 c 25 20 27 26 23 79 c -12 163 -205 226 -334 107 c -56 -52 -78 -110 -71 -186 c 9 -101 63 -183 149 -226 c 43 -21 66 -26 130 -26 l 78 0 l 0 -157 c 0 -184 -9 -211 -79 -234 l -41 -14 l 161 -137 l 161 -138 l 134 0 l 134 0 l 0 40 c 0 83 -40 120 -133 120 c -40 1 -59 6 -82 25 c -27 23 -28 25 -12 42 c 33 38 47 90 47 184 l 0 91 l 81 -73 c 105 -95 116 -111 98 -147 c -7 -15 -13 -30 -14 -33 c 0 -3 64 -61 142 -127 l 143 -122 l 135 0 l 135 0 l 0 34 c 0 88 -40 126 -133 126 c -47 0 -58 4 -96 36 c -42 36 -42 38 -36 86 c 13 92 -6 135 -141 316 c -134 180 -132 172 -72 229 l 34 33 l 64 -55 l 65 -54 l 158 157 l 157 157 l -2 135 l -3 135 l -36 3 c -52 4 -84 -27 -112 -109 c -19 -57 -30 -74 -82 -118 c -33 -28 -63 -51 -67 -51 c -4 0 -1 17 6 38 c 7 20 16 53 20 72 c 5 28 33 63 141 170 l 135 135 l 0 137 l 0 138 l -43 0 c -58 0 -80 -23 -108 -109 c -21 -64 -27 -73 -101 -136 l -79 -67 l -55 55 c -30 31 -54 59 -54 62 c 0 3 45 5 100 5 l 101 0 l -3 132 l -3 133 l -165 32 c -91 17 -166 32 -167 32 c -2 1 -3 17 -3 36 c 0 76 -84 112 -137 59 z m 75 -36 c 14 -14 16 -48 3 -48 c -22 0 -41 13 -41 29 c 0 31 18 39 38 19 z m 2 -175 c 0 -109 11 -134 93 -205 c 173 -151 218 -219 218 -330 c 0 -67 -8 -118 -20 -118 c -3 1 -31 34 -61 75 c -57 77 -69 85 -90 60 c -10 -13 4 -36 85 -142 c 53 -71 101 -128 106 -128 c 4 0 48 33 98 74 c 88 74 89 76 110 148 c 12 40 26 73 31 73 c 6 0 10 -41 10 -98 l 0 -97 l -130 -130 l -129 -129 l -23 20 c -13 12 -134 116 -271 233 c -136 116 -259 229 -273 250 c -120 182 -34 419 179 492 c 29 10 55 18 60 19 c 4 0 7 -30 7 -67 z m 187 37 c 161 -30 153 -27 153 -55 c 0 -19 -8 -28 -34 -39 c -43 -18 -52 -34 -32 -54 c 13 -14 20 -14 36 -4 c 28 17 30 16 30 -18 l 0 -30 l -101 0 c -110 0 -148 13 -168 57 c -13 29 -15 163 -2 163 c 6 0 59 -9 118 -20 z m 291 -417 c -56 -57 -105 -103 -108 -103 c -4 0 -12 23 -19 51 c -11 43 -11 52 2 62 c 8 7 49 41 90 76 c 64 54 77 71 87 109 c 6 25 19 61 28 81 l 17 36 l 3 -104 l 3 -105 l -103 -103 z m -435 -402 l 107 -93 l -62 -71 c -35 -39 -100 -113 -145 -165 l -83 -93 l 0 -135 l 0 -136 l -32 -32 c -18 -18 -40 -35 -48 -39 c -11 -4 1 -20 45 -61 c 58 -54 62 -56 118 -56 c 67 0 97 -12 97 -40 c 0 -18 -7 -20 -91 -20 l -90 0 l -120 102 c -112 96 -133 118 -109 118 c 5 0 19 18 30 40 c 18 35 20 58 20 213 l 0 174 l 55 37 c 106 70 160 175 158 309 l -1 78 l 22 -19 c 11 -10 69 -60 129 -111 z m -416 13 c 3 -8 -2 -23 -11 -32 c -15 -15 -17 -15 -32 0 c -21 21 -11 48 16 48 c 11 0 23 -7 27 -16 z m 553 -426 c 136 -182 143 -196 137 -267 c -2 -31 -7 -65 -10 -76 c -5 -16 7 -31 57 -72 c 60 -50 66 -53 120 -53 c 66 0 96 -13 96 -40 c 0 -18 -7 -20 -92 -20 l -93 1 l -119 102 l -118 102 l -2 53 c -1 51 -4 56 -56 105 c -30 29 -81 75 -112 102 l -57 50 l 67 77 c 37 43 69 77 72 77 c 3 0 52 -63 110 -141 z" />
    <path
      d="M 5469 4492 c -14 -12 -24 -34 -28 -62 l -6 -44 l -162 -30 l -163 -30 l 0 -133 l 0 -133 l 102 0 l 101 0 l -54 -59 c -30 -32 -58 -59 -62 -60 c -5 0 -43 29 -85 66 c -72 62 -78 71 -99 137 c -26 82 -49 106 -104 106 l -39 0 l 0 -143 l 0 -143 l 135 -134 c 102 -101 135 -140 135 -159 c 1 -14 7 -44 15 -66 c 8 -21 12 -41 10 -44 c -3 -2 -34 22 -69 53 c -57 50 -67 64 -82 116 c -21 76 -54 110 -105 110 l -39 0 l 0 -137 l 0 -138 l 155 -156 l 155 -156 l 48 40 c 26 23 55 47 64 55 c 16 13 22 11 57 -29 c 22 -24 40 -48 41 -52 c 0 -4 -48 -71 -106 -148 c -58 -77 -114 -154 -124 -172 c -28 -48 -42 -120 -31 -168 c 9 -39 8 -41 -32 -79 c -39 -37 -46 -40 -104 -40 c -51 0 -67 -4 -92 -26 c -28 -23 -31 -32 -31 -80 l 0 -54 l 133 0 l 132 1 l 140 120 c 93 80 139 126 137 137 c -16 79 -19 72 77 161 l 91 83 l 0 -79 c 1 -96 12 -147 41 -186 l 22 -30 l -27 -24 c -22 -18 -39 -23 -86 -23 c -48 0 -64 -4 -89 -26 c -28 -23 -31 -32 -31 -80 l 0 -54 l 131 0 l 131 0 l 160 137 l 160 137 l -32 11 c -43 15 -76 48 -84 86 c -3 17 -6 94 -6 170 l 0 139 l 78 0 c 162 1 270 98 280 254 c 3 64 1 77 -25 126 c -41 79 -102 115 -193 115 c -56 0 -73 -4 -109 -28 c -108 -72 -106 -237 3 -237 c 47 0 91 50 82 93 c -7 37 -23 56 -54 68 c -20 8 -22 12 -12 24 c 19 23 85 37 125 26 c 76 -21 134 -93 135 -166 c 0 -91 -75 -193 -160 -215 c -143 -38 -303 58 -346 208 c -31 104 -5 203 79 301 c 115 134 136 281 61 431 c -40 79 -110 148 -178 176 c -45 19 -45 19 -39 61 c 5 35 2 45 -20 67 c -31 31 -75 34 -108 8 z m 71 -47 c 16 -19 -3 -45 -31 -45 c -21 0 -24 12 -9 41 c 13 23 23 24 40 4 z m 76 -142 c 58 -26 121 -89 156 -155 c 19 -36 23 -58 23 -138 c 0 -157 -10 -170 -370 -475 c -115 -98 -218 -185 -228 -193 c -17 -15 -27 -7 -147 113 l -130 130 l 0 97 c 0 55 4 98 9 98 c 6 0 20 -32 33 -72 c 22 -68 27 -75 111 -147 c 49 -42 93 -76 98 -76 c 5 0 54 58 109 130 c 94 123 98 130 79 143 c -25 17 -34 11 -96 -74 c -32 -44 -50 -61 -57 -54 c -6 6 -12 44 -14 84 c -4 64 0 82 23 134 c 26 59 105 145 208 228 c 57 47 77 94 77 186 l 0 78 l 33 -7 c 17 -3 55 -16 83 -30 z m -176 -49 c 0 -41 -5 -84 -10 -95 c -20 -36 -63 -49 -170 -49 l -100 0 l 0 31 c 0 32 -1 32 46 13 c 5 -3 18 4 28 15 c 18 20 17 21 -28 43 c -34 16 -46 28 -46 44 c 0 24 -5 23 175 58 c 113 22 105 27 105 -60 z m -475 -141 c 20 -64 26 -72 112 -148 l 90 -79 l -15 -46 c -8 -25 -17 -47 -19 -49 c -2 -3 -51 42 -108 99 l -105 105 l 0 104 c 0 121 10 124 45 14 z m 650 -586 c 0 -78 4 -100 26 -147 c 29 -62 102 -141 148 -160 l 31 -12 l 0 -175 c 0 -179 7 -222 43 -252 c 10 -7 17 -17 17 -22 c 0 -4 -53 -53 -117 -108 l -118 -101 l -92 0 c -74 0 -93 3 -93 14 c 0 31 30 46 93 46 c 61 0 63 1 125 55 l 62 54 l -29 15 c -63 33 -71 55 -71 203 l 0 135 l -145 163 l -144 164 l 127 110 c 70 61 129 110 132 111 c 3 0 5 -42 5 -93 z m 313 -33 c 4 -26 -26 -40 -45 -21 c -8 7 -11 21 -7 31 c 9 24 48 17 52 -10 z m -438 -336 c 90 -102 93 -83 -25 -187 c -108 -95 -132 -133 -121 -189 c 5 -25 -6 -36 -116 -129 l -122 -103 l -93 0 c -74 0 -93 3 -93 14 c 0 27 42 46 101 46 c 53 0 59 3 115 52 c 41 36 58 58 56 72 c -1 12 -5 42 -8 68 c -4 26 -1 61 5 78 c 10 30 229 338 241 339 c 3 1 30 -27 60 -61 z" />
    <path
      d="M 671 2190 c -146 -53 -238 -160 -281 -327 l -11 -43 l -89 0 l -90 0 l 0 155 l 0 155 l 50 0 l 50 0 l 0 35 l 0 35 l -57 0 c -38 0 -62 -5 -75 -17 c -17 -15 -19 -15 -36 0 c -13 12 -37 17 -75 17 l -57 0 l 0 -34 l 0 -35 l 52 -3 l 53 -3 l 3 -372 l 2 -373 l -55 0 l -55 0 l 0 -40 l 0 -40 l 57 0 c 38 0 62 5 75 17 c 17 15 19 15 36 0 c 13 -12 37 -17 75 -17 l 57 0 l 0 40 l 0 40 l -50 0 l -50 0 l 0 185 l 0 185 l 89 0 l 89 0 l 7 -57 c 16 -127 69 -239 143 -304 c 77 -68 240 -120 277 -89 c 12 10 18 10 30 0 c 33 -28 161 7 249 68 c 56 38 120 130 148 209 c 32 96 32 250 0 346 c -28 79 -92 171 -148 209 c -89 61 -216 96 -249 68 c -12 -10 -19 -10 -27 -2 c -18 18 -76 14 -137 -8 z m 137 -72 c 9 -9 15 -9 24 0 c 33 33 156 -8 226 -76 c 82 -80 119 -189 109 -322 c -7 -100 -37 -177 -95 -241 c -72 -81 -203 -134 -240 -97 c -9 9 -15 9 -24 0 c -32 -32 -139 2 -212 69 c -123 112 -162 337 -85 496 c 13 27 45 69 71 95 c 70 68 193 109 226 76 z" />
    <path
      d="M 1716 1952 c -13 -13 -19 -14 -40 -3 c -48 26 -141 -8 -210 -76 c -144 -142 -120 -419 46 -530 c 62 -41 144 -60 168 -38 c 15 14 18 14 30 -1 c 27 -31 148 11 213 74 c 31 30 87 117 87 136 c 0 4 -68 46 -75 46 c -2 0 -17 -25 -34 -55 c -50 -89 -150 -147 -190 -111 c -16 14 -19 14 -34 -1 c -40 -41 -160 43 -191 134 c -49 142 17 303 139 343 c 32 10 39 10 53 -4 c 15 -14 17 -14 34 1 c 15 14 24 14 58 4 c 47 -14 95 -52 116 -92 c 13 -25 20 -29 59 -29 l 45 0 l 0 99 l 0 99 l -40 4 l -40 4 l 0 -38 l 0 -38 l -46 35 c -25 19 -49 35 -52 35 c -4 0 -23 4 -44 9 c -28 7 -40 5 -52 -7 z" />
    <path
      d="M 5216 1952 c -12 -13 -18 -13 -28 -4 c -35 35 -145 -4 -219 -77 c -82 -83 -114 -195 -89 -316 c 16 -76 41 -126 88 -173 c 65 -65 186 -109 212 -77 c 12 14 15 14 32 -1 c 17 -16 22 -16 80 0 c 76 21 134 62 175 123 c 49 75 50 87 6 113 c -20 12 -39 18 -41 12 c -11 -33 -67 -106 -102 -131 c -54 -39 -96 -48 -119 -27 c -16 15 -19 15 -31 1 c -16 -20 -33 -19 -78 4 c -109 56 -156 184 -117 317 c 13 44 28 69 61 101 c 51 49 111 71 133 48 c 13 -13 17 -13 33 2 c 16 14 24 14 59 4 c 44 -13 114 -71 124 -102 c 5 -15 16 -19 51 -19 l 44 0 l 0 103 l 0 103 l -40 -4 c -39 -4 -40 -5 -40 -40 l 0 -36 l -27 26 c -35 32 -60 45 -111 56 c -32 8 -43 6 -56 -6 z" />
    <path
      d="M 2104 1951 c -2 -2 -4 -19 -4 -37 c 0 -31 2 -33 43 -36 l 42 -3 l 87 -214 c 83 -206 86 -216 72 -243 c -17 -33 -56 -51 -96 -45 c -27 3 -28 2 -28 -40 l 0 -43 l 40 0 c 56 0 103 22 133 62 c 15 19 78 144 140 279 l 113 244 l 42 3 c 40 3 42 4 42 37 c 0 32 -1 33 -46 37 c -28 2 -49 -1 -56 -9 c -13 -16 -30 -17 -45 -2 c -7 7 -32 12 -57 13 l -46 1 l 0 -37 c 0 -38 0 -38 41 -38 c 22 0 39 -4 37 -9 c -30 -79 -144 -318 -149 -313 c -5 6 -45 104 -126 310 c -4 8 6 12 31 12 c 35 0 36 1 36 38 l 0 37 l -45 -1 c -25 -1 -52 -7 -60 -14 c -10 -9 -19 -9 -27 -2 c -13 10 -106 21 -114 13 z" />
    <path
      d="M 2820 1918 c 0 -38 0 -38 40 -38 l 40 0 l -2 -247 l -3 -248 l -37 -3 c -37 -3 -38 -4 -38 -43 l 0 -39 l 42 0 c 24 0 49 7 60 17 c 17 15 19 15 36 0 c 11 -10 36 -17 60 -17 l 42 0 l 0 40 c 0 39 -1 40 -35 40 l -35 0 l 0 250 l 0 250 l 140 0 l 140 0 l 0 -250 l 0 -250 l -35 0 c -34 0 -35 -1 -35 -40 l 0 -40 l 42 0 c 24 0 49 7 60 17 c 17 15 19 15 36 0 c 11 -10 36 -17 60 -17 l 42 0 l 0 39 c 0 39 -1 40 -37 43 l -38 3 l 0 245 l 0 245 l 38 3 c 35 3 37 5 37 40 l 0 37 l -45 -1 c -25 -1 -52 -7 -60 -14 c -11 -9 -19 -9 -28 -2 c -19 16 -333 17 -352 2 c -10 -9 -19 -9 -27 -2 c -7 5 -34 11 -60 13 l -48 4 l 0 -37 z" />
    <path
      d="M 3750 1951 c -204 -62 -286 -336 -158 -527 c 41 -60 111 -109 179 -123 c 44 -10 55 -9 69 4 c 15 14 18 14 30 -1 c 29 -33 158 15 221 83 c 68 74 84 121 84 243 c 0 95 -3 111 -28 162 c -15 31 -44 71 -64 89 c -72 62 -181 97 -211 67 c -9 -9 -15 -9 -24 0 c -13 13 -59 14 -98 3 z m 90 -86 c 12 -14 15 -14 31 1 c 17 16 22 16 64 0 c 95 -37 144 -117 145 -237 c 0 -61 -5 -85 -26 -128 c -42 -84 -145 -145 -182 -107 c -14 14 -17 14 -34 -1 c -43 -39 -161 43 -192 134 c -47 136 9 287 124 337 c 45 19 55 19 70 1 z" />
    <path
      d="M 4280 1918 c 0 -37 1 -38 35 -38 l 35 0 l 0 -250 l 0 -250 l -35 0 c -34 0 -35 -1 -35 -40 l 0 -40 l 42 0 c 24 0 49 7 60 17 c 17 15 19 15 36 0 c 35 -32 230 -17 282 22 c 14 10 36 33 48 52 c 20 29 23 44 20 101 c -3 61 -7 71 -38 103 c -19 20 -45 38 -57 41 c -30 8 -29 17 2 34 c 59 31 80 118 47 192 c -28 64 -78 86 -199 89 c -62 1 -98 -2 -108 -11 c -10 -9 -19 -9 -27 -2 c -7 5 -34 11 -60 13 l -48 4 l 0 -37 z m 327 -64 c 16 -12 32 -37 37 -57 c 18 -69 -43 -117 -149 -117 l -55 0 l 0 93 c 0 52 3 97 8 101 c 15 16 131 1 159 -20 z m -28 -255 c 99 -21 133 -109 68 -174 c -36 -36 -87 -49 -162 -43 l -40 3 l -3 99 c -1 55 0 106 2 113 c 7 16 66 17 135 2 z" />
    <path
      d="M 5653 1952 c -42 -3 -43 -4 -43 -38 c 0 -33 1 -34 40 -34 l 40 0 l 0 -250 l 0 -250 l -40 0 l -40 0 l 0 -40 l 0 -40 l 43 0 c 23 0 52 7 64 15 c 18 13 22 13 33 0 c 8 -10 30 -15 61 -15 l 49 0 l 0 40 l 0 40 l -40 0 l -40 0 l 0 250 l 0 250 l 40 0 c 39 0 40 1 40 34 c 0 33 -1 34 -46 38 c -28 2 -49 -1 -56 -9 c -13 -16 -27 -16 -47 0 c -9 6 -35 11 -58 9 z" />
    <path
      d="M 5934 1951 c -2 -2 -4 -19 -4 -37 c 0 -30 3 -33 35 -36 l 35 -3 l -105 -112 c -58 -61 -105 -114 -105 -117 c 0 -3 47 -63 105 -134 c 104 -127 104 -127 75 -130 c -28 -3 -30 -6 -30 -43 l 0 -39 l 42 0 c 24 0 49 7 60 17 c 17 15 19 15 36 0 c 12 -11 36 -17 65 -17 l 47 0 l 0 40 c 0 40 0 40 -37 40 c -37 0 -42 5 -146 136 l -109 136 l 28 31 c 16 18 65 69 109 115 c 68 70 84 82 113 82 c 32 0 33 1 30 37 l -3 38 l -45 -4 c -25 -1 -51 -7 -57 -13 c -9 -7 -18 -7 -28 2 c -14 12 -102 20 -111 11 z" />
    <path
      d="M 6440 1918 c 0 -38 0 -38 40 -38 c 26 0 40 -4 39 -12 c 0 -7 -37 -119 -82 -248 l -82 -235 l -37 -3 c -37 -3 -38 -4 -38 -43 l 0 -39 l 42 0 c 24 0 49 7 60 17 c 17 15 19 15 36 0 c 10 -10 35 -17 55 -17 c 36 0 37 1 37 40 c 0 39 -1 40 -35 40 c -19 0 -35 4 -35 8 c 0 4 11 39 23 78 l 24 69 l 105 3 c 119 3 116 4 143 -78 c 10 -30 20 -61 23 -67 c 3 -9 -8 -13 -37 -13 l -41 0 l 0 -40 l 0 -40 l 42 0 c 24 0 49 7 60 17 c 17 15 19 15 36 0 c 11 -10 35 -17 59 -17 c 40 0 41 1 45 40 c 3 38 3 39 -32 42 l -35 3 l -82 235 c -45 129 -82 241 -82 248 c -1 8 13 12 40 12 l 40 0 l -3 37 l -3 37 l -64 -3 c -35 -1 -72 -8 -82 -14 c -13 -8 -21 -8 -33 2 c -9 7 -44 14 -81 15 l -65 1 l 0 -37 z m 203 -181 c 20 -62 37 -116 37 -120 c 0 -4 -36 -7 -80 -7 c -44 0 -80 3 -80 7 c 0 15 75 233 80 233 c 3 0 22 -51 43 -113 z" />
    <path
      d="M 7290 1950 c -138 -7 -180 -29 -215 -113 c -35 -84 -6 -189 64 -229 c 47 -26 47 -21 -10 -143 c -39 -83 -41 -85 -74 -85 c -34 0 -35 -1 -35 -40 l 0 -40 l 63 0 l 64 0 l 63 135 l 63 135 l 59 0 l 58 0 l 0 -95 l 0 -95 l -40 0 l -40 0 l 0 -40 l 0 -40 l 47 0 c 28 0 53 6 63 15 c 15 14 18 14 30 0 c 8 -10 30 -15 61 -15 l 49 0 l 0 40 l 0 40 l -40 0 l -40 0 l 0 250 l 0 250 l 40 0 c 39 0 40 1 40 34 c 0 33 -1 34 -46 38 c -34 2 -49 -1 -61 -15 c -16 -17 -17 -17 -37 0 c -18 16 -35 17 -126 13 z m 100 -186 l 0 -116 l -86 3 c -82 4 -87 5 -115 37 c -55 61 -31 159 44 181 c 18 5 60 10 95 10 l 62 1 l 0 -116 z" />
    <path
      d="M 1835 762 c -98 -47 -155 -126 -175 -244 c -27 -153 45 -306 170 -365 c 71 -33 108 -38 131 -17 c 18 16 20 16 38 0 c 23 -21 60 -16 131 17 c 201 94 238 413 65 565 c -67 59 -173 90 -203 60 c -9 -9 -15 -9 -24 0 c -20 20 -69 14 -133 -16 z m 127 -69 c 17 -15 19 -15 36 0 c 15 14 24 15 55 5 c 191 -59 209 -375 26 -469 c -44 -22 -70 -24 -87 -7 c -8 8 -15 8 -26 -2 c -50 -41 -172 52 -201 154 c -40 139 20 280 137 323 c 18 6 35 12 37 12 c 3 1 13 -6 23 -16 z" />
    <path
      d="M 1060 745 c 0 -33 2 -35 35 -35 l 35 0 l 0 -250 l 0 -250 l -35 0 c -34 0 -35 -1 -35 -40 l 0 -40 l 42 0 c 24 0 49 7 60 17 c 17 15 19 15 38 -2 c 17 -15 33 -17 114 -13 c 120 6 175 31 212 94 c 23 39 26 53 22 114 c -4 81 -23 113 -88 149 c -35 20 -62 25 -142 29 l -99 5 l 3 91 l 3 91 l 115 0 l 115 0 l 3 -57 l 3 -58 l 34 0 l 35 0 l 0 95 l 0 95 l -163 0 c -113 0 -167 -4 -175 -12 c -9 -9 -15 -9 -24 0 c -7 7 -34 12 -60 12 l -48 0 l 0 -35 z m 339 -320 c 37 -19 65 -77 57 -119 c -12 -64 -70 -96 -172 -96 l -64 0 l 0 115 l 0 115 l 75 0 c 47 0 87 -6 104 -15 z" />
    <path
      d="M 2430 745 c 0 -33 2 -35 35 -35 l 35 0 l 0 -183 c 0 -208 -12 -271 -57 -307 c -21 -16 -35 -20 -61 -15 l -33 6 l 3 -43 c 3 -41 5 -43 38 -46 c 52 -5 106 15 130 48 c 46 64 53 105 59 325 l 6 210 l 118 3 l 117 3 l 0 -251 l 0 -250 l -41 0 l -40 0 l 3 -37 c 3 -37 4 -38 47 -41 c 30 -2 49 2 62 14 c 18 16 20 16 37 1 c 11 -10 36 -17 60 -17 l 42 0 l 0 40 l 0 40 l -40 0 l -40 0 l 0 250 l 0 250 l 40 0 c 39 0 40 1 40 35 l 0 35 l -48 0 c -26 0 -53 -5 -60 -12 c -9 -9 -15 -9 -24 0 c -9 9 -72 12 -220 12 l -208 0 l 0 -35 z" />
    <path
      d="M 3100 745 c 0 -34 1 -35 40 -35 l 40 0 l 0 -250 l 0 -250 l -40 0 l -40 0 l 0 -40 l 0 -40 l 42 0 c 24 0 49 7 60 17 c 17 15 19 15 38 -2 c 30 -27 190 -17 257 16 c 151 75 132 296 -30 344 c -28 8 -84 15 -124 15 l -73 0 l 0 95 l 0 95 l 40 0 c 39 0 40 1 40 35 l 0 35 l -53 0 c -29 0 -58 -5 -65 -12 c -9 -9 -15 -9 -24 0 c -7 7 -34 12 -60 12 l -48 0 l 0 -35 z m 348 -325 c 36 -22 52 -54 52 -104 c 0 -70 -59 -106 -172 -106 l -58 0 l 0 115 l 0 115 l 73 0 c 54 0 80 -5 105 -20 z" />
    <path
      d="M 3670 745 c 0 -34 1 -35 40 -35 l 40 0 l 0 -250 l 0 -250 l -40 0 l -40 0 l 0 -40 l 0 -40 l 47 0 c 29 0 53 6 65 17 c 17 15 19 15 36 0 c 11 -10 36 -17 60 -17 l 42 0 l 0 40 l 0 40 l -40 0 l -40 0 l 0 115 l 0 115 l 145 0 l 145 0 l 0 -115 l 0 -115 l -40 0 l -40 0 l 0 -40 l 0 -40 l 49 0 c 31 0 53 5 61 15 c 12 14 15 14 30 0 c 10 -9 35 -15 63 -15 l 47 0 l 0 40 l 0 40 l -40 0 l -40 0 l 0 250 l 0 250 l 40 0 c 39 0 40 1 40 35 c 0 35 0 35 -45 35 c -25 0 -54 -6 -65 -12 c -15 -10 -22 -10 -32 0 c -6 6 -34 12 -60 12 l -48 0 l 0 -35 c 0 -34 1 -35 40 -35 l 40 0 l 0 -95 l 0 -95 l -145 0 l -145 0 l 0 95 l 0 95 l 40 0 c 39 0 40 1 40 35 l 0 35 l -48 0 c -26 0 -54 -6 -60 -12 c -10 -10 -17 -10 -32 0 c -11 6 -40 12 -65 12 c -45 0 -45 0 -45 -35 z" />
    <path
      d="M 4420 746 c 0 -33 2 -35 38 -38 l 37 -3 l 0 -245 l 0 -245 l -37 -3 c -37 -3 -38 -4 -38 -43 l 0 -39 l 89 0 l 89 0 l 134 250 c 73 137 135 250 138 250 c 3 0 4 -94 2 -210 l -3 -210 l -34 0 c -34 0 -35 -1 -35 -40 l 0 -40 l 42 0 c 24 0 49 7 60 17 c 17 15 19 15 36 0 c 11 -10 36 -17 60 -17 l 42 0 l 0 40 c 0 39 -1 40 -35 40 l -35 0 l 0 250 l 0 250 l 35 0 c 33 0 35 2 35 35 l 0 35 l -89 0 l -89 0 l -113 -212 c -62 -117 -123 -231 -136 -253 l -23 -40 l 0 218 l 0 217 l 35 0 c 33 0 35 2 35 35 l 0 35 l -48 0 c -26 0 -53 -5 -60 -12 c -9 -9 -15 -9 -24 0 c -7 7 -34 12 -60 12 l -48 0 l 0 -34 z" />
    <path
      d="M 5150 745 c 0 -34 1 -35 40 -35 l 40 0 l 0 -250 l 0 -250 l -40 0 l -40 0 l 0 -40 l 0 -40 l 47 0 c 28 0 53 6 63 15 c 15 14 18 14 30 0 c 10 -12 45 -15 211 -15 l 199 0 l 0 -65 l 0 -65 l 40 0 l 40 0 l 0 105 l 0 105 l -40 0 l -40 0 l 0 250 l 0 250 l 40 0 c 39 0 40 1 40 35 c 0 35 0 35 -45 35 c -25 0 -54 -6 -65 -12 c -15 -10 -22 -10 -32 0 c -6 6 -34 12 -60 12 l -48 0 l 0 -35 c 0 -34 1 -35 40 -35 l 40 0 l 0 -250 l 0 -250 l -145 0 l -145 0 l 0 250 l 0 250 l 40 0 c 39 0 40 1 40 35 l 0 35 l -49 0 c -31 0 -53 -5 -61 -15 c -12 -14 -15 -14 -30 0 c -10 9 -35 15 -63 15 l -47 0 l 0 -35 z" />
    <path
      d="M 6020 745 c 0 -34 1 -35 40 -35 c 22 0 40 -4 40 -9 c 0 -5 -38 -116 -83 -247 l -84 -239 l -36 -3 c -36 -3 -37 -4 -37 -43 l 0 -39 l 42 0 c 24 0 49 7 60 17 c 17 15 19 15 36 0 c 10 -10 35 -17 55 -17 c 36 0 37 1 37 40 c 0 39 -1 40 -35 40 c -19 0 -35 3 -35 7 c 0 4 10 37 22 75 l 22 68 l 112 0 l 111 0 l 23 -62 c 13 -35 25 -69 27 -75 c 4 -9 -7 -13 -36 -13 l -41 0 l 0 -40 l 0 -40 l 42 0 c 24 0 49 7 60 17 c 17 15 19 15 36 0 c 11 -10 36 -17 60 -17 l 42 0 l 0 40 c 0 39 -1 40 -33 40 l -34 0 l -81 240 c -45 131 -82 244 -82 250 c 0 5 16 10 35 10 c 33 0 35 2 35 35 l 0 35 l -60 0 c -33 0 -69 -6 -80 -12 c -15 -10 -22 -10 -32 0 c -7 7 -40 12 -80 12 l -68 0 l 0 -35 z m 200 -180 c 18 -55 35 -106 38 -112 c 3 -10 -16 -13 -77 -13 c -45 0 -81 3 -81 8 c -1 19 76 230 81 224 c 4 -4 21 -52 39 -107 z" />
  </g>
</svg>